<?xml version="1.0" encoding="utf-8"?>
<!-- Generator: Adobe Illustrator 18.0.0, SVG Export Plug-In . SVG Version: 6.00 Build 0)  -->
<!DOCTYPE svg PUBLIC "-//W3C//DTD SVG 1.1//EN" "http://www.w3.org/Graphics/SVG/1.1/DTD/svg11.dtd">
<svg version="1.1" id="Layer_1" xmlns="http://www.w3.org/2000/svg" xmlns:xlink="http://www.w3.org/1999/xlink" x="0px" y="0px"
	 viewBox="0 0 140 621" enable-background="new 0 0 140 621" xml:space="preserve">
<g>
	<path fill="#E4BA27" d="M3.3,260.2c-1.3-0.2-2.4-0.8-3.4-1.3v351.4c0.4,0,1,0.1,1.3,0c1.8-0.5,2.6-2.3,4.1-3.4c2,0.5,3.5-0.5,5.3,0
		c0.1,0,0.1,0,0.2,0c1,0.7,1.8-0.4,2.8-0.2c0.4,0.3,0,1.4,0.5,1.6c0.3,0,0.6,0,0.9,0c0.4-0.5,0.4-1.3,1.1-1.6
		c0.2,0.8-0.4,1.3,0.2,2.3c2.4,0.8,2.9-1.8,3.6-3.4c-0.6-0.4-0.7-1.3-1.1-2c-0.7-0.2-1.2-0.5-1.8-0.7c0.1,0.4-0.3,0.4-0.2,0.9
		c-0.6-0.5-1.1-1.1-2.3-0.9c0,0.2,0,0.3-0.2,0.4c0,1,1.2,0.9,1.2,2c-0.5-0.1-0.5-0.8-1.2-0.7c-1.2,1.9-5.2,1.5-8,1.4
		c-1.2-0.6-0.1-2,0.9-2c0.8,0,1.5-0.2,1.6-0.9c-0.2-0.8-1.5-0.5-1.4-1.6c1-0.2,2.6,0,3.9-0.4c0.5,0.6,0.7,1.4,0.9,2.3
		c2-0.5,3.7-1.3,3.9-3.5c1.4-0.6,1.8-2.1,2.7-3.2c-0.8-1.7-2.8-2.7-1.8-5.1c0.5-0.4,0.7,0.4,1.2,0c0.1-1.7,1.7-3.1,0.2-4.4
		c0.8-1.5,3.5,0,5-0.7c0.5,0.2-0.2,0.6,0,1.1c0.7,0.5,1.8,0.6,1.8,1.8c0.4,0,0.9,0,1.1-0.2c0-1-0.6-1.3-0.9-2
		c1.1,0.4,1.8-0.3,2.5-0.9c0-0.7-0.6-0.8-1.1-1.1c0-0.6,0.9-0.4,0.7-1.2c-0.3-0.3-0.6-0.1-1.1,0c0.1-0.6-0.1-0.8-0.2-1.2
		c-2.8,0-3.4,3.9-6.7,2.3c0-3-2.4-3.5-5.1-3c0,0.6,0.5,0.7,0.5,1.2c-0.8-0.1-1.3,0.6-1.2,1.4c-1.8-0.1-4.1,0.3-5.1-0.5
		c0.2-0.8,0.8-1.3,0.4-2.3c1.8-0.3,3-2.6,1.2-3.9c0.5-0.4,1.7-0.1,2.5-0.2c0.4,1.1,1.4,1.6,2.1,2.5c0.9,0.1,1.1-0.5,1.4-0.9
		c0.6-0.1,0.4,0.6,1.1,0.5c2.4-1.5,2.5-3.9,0.2-5.7c-0.7,0.4-0.8,0.4-1.2-0.2c-0.7,1-1.9-0.3-2.8,0.5c0.6,2.1-1.4,2.3-3.2,2.5
		c0.8-1,0.1-2.7-0.9-3c0.9-1,0-1.8,0-2.8c5.3-0.7,11.1-0.8,16.7-1.2c0.9,1,2,1.6,3.6,2c0.4-0.3,0.4-0.9,0.2-1.4
		c0.1-0.2,0.8,0.1,1.1-0.4c-0.7-0.9-0.3-1.1,0-2.1c-0.4-0.4-1.1-0.4-1.8-0.5c0.1-0.6,0-1.2-0.2-1.6c-0.2,0-0.4,0-0.5,0
		c-0.6,0.5-0.9,1.4-2,1.4c-0.1,0.6,0.4,0.7,0.4,1.2c-1.4,0.2-3.7,0.4-5.7,0.5c0.1-0.8,0.2-1.6,0.9-1.8c0.2-2.2-1.3-2.6-2.1-3.7
		c-0.8,0.3-1.3,0.1-2.1,0c-0.3,1.3-1.8,1.5-2,3c-1.6,0-3.1,0.9-4.6,0.4c0-0.6,0.2-0.8,0.4-1.2c0.6,0.2,1.4,0.9,2.1,0.4
		c-0.2-1.2-1.1-1.8-1.6-2.7c0.2-0.6,1.3-0.6,2-0.4c0.1-0.5,0.1-1.1,0.2-2c1.3-0.6,3.2-0.5,4.8-0.7c0,0.5-0.8,1-0.4,1.2
		c0.4,0.6,2.3,1.6,2.8,0.5c0.6-0.1,0.1,0.8,0.5,0.9c1.4-0.4,1.3-2.1,2.5-2.7c-0.2-1.4-1.2-2-1.6-3.2c-1.2,0.5-1.1-0.4-2.1-0.5
		c-0.6,0-0.8,0.4-0.7,1.1c-0.7,0.2-0.5-0.4-1.1-0.4c-0.2,0.9-0.9,1.3-1.2,2.1c-1.3-0.2-2.5,0.5-3.6,0c-0.4-1.5,1-1.1,1.8-1.4
		c-0.2-1.3,0.2-2.2,0.7-2.8c-0.7-1.3-1.1-2.8-2.1-3.7c1.8-0.9,4.7-0.3,6.2-0.2c0.6,0,0.1,1.2,0.5,1.4c0.9-0.4,2.1-0.5,2.7-1.2
		c0.6-2.4-0.9-3.6-3.7-3.6c0.2,2.4-2.4,2.1-4.4,2.3c0.1-1-0.7-1.6-0.4-2.8c-0.8-0.2-1.3,0-1.6-0.9c1-0.9,3-0.7,5.5-0.9
		c0.8-0.1,2.2-0.3,2.5-0.2c1.5,0.4,1.3,3.2,3,1.8c0.4,0,0.2,0.7,0.5,0.7c1.1-0.3,3.2-2.7,3-4.1c-0.2-1.5-3.3-1.3-2.3-3.4
		c-0.8-0.2-1.2-0.9-1.6-1.4c-0.8,0.3-1.3,0.1-1.6-0.5c-0.9,0.1-1,1-2.1,0.9c0.1,0.9-0.7,0.8-0.5,1.8c-2.6,0.3-6.7,0.5-8.5-0.5
		c-0.2,0.3-0.6,0.7-0.2,1.1c-0.5-0.4-0.9,0.1-1.4-0.2c0.2-1.2-0.2-2.2,0.5-2.7c-0.3-0.8-0.3-1.9-1.1-2.3c3.7-0.4,7.9-0.4,11.2-1.2
		c0.5,0.3,0.6,0.9,0.7,1.6c1,0.2,2.1,0.2,2.8,0.7c0.6-0.4,1.2-0.8,2.1-0.9c0.8-1.4,0.5-2.9,1.4-4.1c-0.6-0.9-0.3-0.7,0-1.8
		c-0.4-0.1-0.8-0.3-1.4-0.2c-0.1-2.4,1-2.6,2.8-3.2c-0.3-1,0.4-1.4,0.5-2.8c-1-0.5-1.5-1.6-1.8-2.8c0-0.4,0.8,0,0.9-0.4
		c-0.2-0.7-0.7-0.7-0.4-1.6c-0.8-0.1-1.2-0.7-1.6-1.2c-1,0.5-1.3-0.3-2.3-0.4c-0.1,0.2-0.2,0.5-0.2,0.9c-0.6,0.1-0.8-0.1-1.2-0.2
		c0.1-1.6,2-1.5,1.6-3.7c-1-0.2-1.1-1.3-1.8-1.8c-0.9,0.4-1.3,0.3-1.8-0.5c0.6-0.8,1.9-0.9,2.7-0.2c1.6-0.7,2.1-1.9,2.3-3.6
		c-0.2-0.3-0.7-0.4-0.9-0.7c0.8-1.3,2-2.2,1.8-3.7c-0.1-0.8-1.3-1.4-0.7-2.7c0.2-0.3,0.7-0.3,0.7-0.7c0.1-0.7-0.3-0.9-0.2-1.6
		c-1.1-0.2-1.4-1.2-1.8-2.1c-0.7,0.1-0.7,0.8-1.4,0.4c0.4-1.3,1.6-2.4,1.2-3.9c-1-0.5-1.7-1.2-2.3-2c-0.6-0.1-0.7,0.3-1.1,0.4
		c0-0.3,0-0.6,0-0.9c2.8,0,5.8,0.1,8.2,0c0.4,0,0.7,0,1.1,0c3,0,5.9,0,8.9,0c0-0.9,0-1.8,0-2.7c0.6-0.4,2-0.1,2.8-0.2
		c0-0.9,0-1.9,0-2.8c-6,0-12,0-17.9,0c-0.4-0.1-0.1-1-0.2-1.4c-1.8,0-3.6,0-5.3,0c-0.4-1.4-0.1-3.5-0.2-5.1
		c-0.5-0.9-1.5-1.3-2.1-2.1c-0.3-0.5-0.3-2.2,0-2.7c4.3,0,8.6,0,13,0c0-1,0-2,0-3c0.7,0,1.4,0,2.1,0c0.4-1.1,0.1-2.7,0.2-4.1
		c-0.2,0-0.4,0-0.5,0c-0.8,0.2-1.9-0.2-1.2-0.9c0-0.4,0-0.7,0-1.1c-0.1,0-0.1,0-0.2,0c0-0.1,0-0.2,0-0.4c-0.4-0.1-1.2,0.2-1.2-0.2
		c0-1.1,0-2.2,0-3.4c-3.3-0.1-7,0.2-9.9-0.2c0.3-2.6-0.9-6.7,1.1-7.6c7.8-0.4,16.3-0.1,24.3-0.2c0.1-0.6-0.2-1.6,0.2-2
		c0-0.2,0-0.4,0-0.5c0.4,0,0.8,0,1.2,0c-0.2-2.5,0.4-5.8-0.4-7.6c-1-0.2-0.7-1.7-0.7-2.8c-0.5-0.4-1-0.8-1.4-1.2
		c-4.6-0.1-9.6,0.2-13.8-0.2c-0.3-0.6-0.3-2.4,0-3c0.1-0.4,1-0.1,1.4-0.2c0.3-1.4,0.1-3.3,0.2-5c-0.6,0-1.2,0-1.8,0
		c-0.8-0.6-0.2-2.6-0.4-3.7c0.5-0.7,1.4-1,1.8-1.8c0.1-0.5-0.2-1.5,0.2-1.8c2,0,3.5-0.5,4.3-1.8c5.6,0,11.1,0,16.7,0c0-4,0-8,0-12.1
		c-9.3,0-18.6,0-27.9,0c-0.4-0.1-0.1-1-0.2-1.4c-0.4,0-0.8,0-1.2,0c0-0.5,0-0.9,0-1.4c0.5,0,0.9,0,1.4,0c0-0.1,0-0.1,0-0.2
		c0.6,0.2,0.3-0.6,0.4-0.9c0-0.3,0.2-0.4,0.2-0.7c2,0,4,0,6,0c0.4,0,0.7,0,1.1,0c0.3-1,0-1.7,0-2.8c0.1-0.6,1.2-0.3,1.8-0.4
		c1.6-0.2,3.3,0.3,5,0c0.4-0.1,0.2-0.4,0.5-0.5c2.7-1,6.3,0.7,8.2,0c0.4-0.1,0.4,0.1,0.4-0.7c2.7-0.4,6.2-0.1,9.2-0.2
		c0-0.5,0-0.9,0-1.4c4.7-0.4,10.2-0.1,15.3-0.2c0.2-0.3,0.1-0.7,0.5-0.9c1.1-0.5,4,0,6,0c2.3,0,4.4,0,6,0c4.5-1.4,4.5-10.2,0.2-11.7
		c-5.9,0-13.6,0-20.2,0c-3.9,0-7.7,0.8-8.7-2c-2.5-1.4-12.6,0.2-15.3-0.9c0-0.2,0-0.4,0-0.5c2.6-0.4,6-0.1,8.9-0.2
		c0.5-3,0.6-7.2-1.6-8.5c-3.1,0-6.3,0-9.4,0c-4.7,0-9.4,0-14,0c-0.8-0.1-0.2-1.5-0.4-2.1c0-0.5,0-0.9,0-1.4c3.3-0.1,7,0.2,9.9-0.2
		c0-0.5,0-1.1,0-1.6c0-2.7,0-5.3,0-8c-7.2,0-8.5,0-15.7,0c0-0.3,0-0.6,0-0.9c4.7-0.4,4.2-0.1,9.1-0.2c0-0.3,0-0.6,0-0.9
		c3.6,0,7.2,0,10.8,0c0.2-0.6,0.4-1.2,0.4-2.1c0.8,0,1.7,0,2.5,0c0-0.4,0-0.8,0-1.2c0.9-0.1,1.3-0.6,2.3-0.5c0.1-0.4,0.2-1,0.2-1.6
		c-1.5-0.1-2.3-0.9-2.7-2.1c-0.7,0-1.3,0-1.8-0.2c-0.4-0.1-0.1-1-0.2-1.4c-2.9-0.1-6.3,0.2-8.9-0.2c0-1.5,0-3.1,0-4.6
		c0-0.1,0-0.1,0-0.2c-0.2-0.4-0.9-0.2-1.1-0.7c-0.1,0-0.2-0.1-0.2-0.2c-3.8-0.1-8.2,0.2-11.7-0.2c0-0.9,0-1.8,0-2.7
		c0.4-0.4,1.4-0.1,1.1-1.2c1.8,0,2.9-0.5,4.8-0.4c-0.7-0.4-1.7-0.5-2.8-0.5c-0.1,0-0.2,0-0.3,0c0,0,0,0,0,0c-1.4-0.1-1.1-1.9-3-1.4
		c-0.4-0.9-0.3-2.3-0.5-3.4c1.7-0.5,3.7,0.2,5.7,0c-0.1-3,0.2-6.4-0.2-9.1c-0.4,0-0.7,0-1.1,0c-1.3-0.1-3.3,0.3-4.1-0.4
		c-0.1-0.8,0.2-2-0.2-2.5c-0.1-1.1-0.9-1.5-0.9-2.7c-0.4-1.2-0.1-3.3-0.2-4.8c0-1.1,0-2.1,0-3.2c0-0.5,0-0.9,0-1.4
		c3.7,0.1,7.8-0.2,11.2,0.2c-0.1,1,0.2,1.4,0.2,2.3c0,0.1,0,0.1,0,0.2c0,0.9-1.5,0-1.6,0.4c-0.1,0-0.2-0.2-0.4-0.2
		c-0.3,0.2-0.9,0.1-1.1,0c-0.6,0.2,0.2,0.4,0.2,0.5c-0.1,0.4-1.4,0-0.5-0.2c-0.3-0.3-0.5,0-1.1-0.2c0,0.3,0.5,0.1,0.5,0.4
		c-1.2-0.4-5.2-0.5-6.9-0.4c0.3,0.7,0.3,1.8,1.4,1.6c0-0.3-0.5-0.1-0.5-0.4c0.3-0.4,0.6,0.2,1.1-0.2c0.1,0.3-0.1,0.3-0.4,0.4
		c1.3,0.4,4.6,0.1,6.7,0.2c-0.1-0.1-0.2-0.3-0.2-0.5c0.4,0.2,0.7,0.5,0.9,0.9c0.2,0,0.1-0.2,0.2-0.4c0-0.4,0.6-0.1,0.9-0.2
		c0.3,0,0.6,0,0.9,0c0.1,0.3-0.2,0.9,0.2,0.9c0.5,1.9-0.3,4,0.7,5.5c-0.9,0.2-0.4,2.4,0.4,2.5c0,0.1,0,0.2,0,0.4
		c-0.2,0-0.6,0.2-0.9,0.4c0,0,0,0,0,0c0,0,0,0,0,0c-0.3,0.2-0.4,0.5,0,0.9c0,0.2,0,0.5,0,0.7c0.9,0,1.9,0,2.8,0
		c-0.8-0.1-0.4-1.4-1.1-1.6c0.2-0.3,0.8-0.1,0.9-0.5c-1.5-2.6-2.1-6-2.7-9.6c0.2,0,0.5,0,0.7,0c0,0.2-0.2,0.1-0.4,0.2
		c0.1,0.3,1.3,0,0.7-0.4c0.6,0.3,1.4,0.1,2-0.2c0.3,0,0.6,0,0.9,0c0,0.3-0.2,0.4-0.2,0.7c0.7-0.2,0.4-1.7,0-2.3
		c-0.4,0.2-0.4,0.7-0.4,1.2c-0.9,0.1-1.6,0.5-2.7,0.4c-0.4-0.1-0.2-1.3-0.9-0.7c0-0.1,0-0.1,0-0.2c0.1-0.2,0.4-0.1,0.7-0.2
		c-0.2-0.5-0.4-0.6-0.9-0.4c0.2-0.3,0.3-0.6,0.7-0.5c0-0.4-0.5-0.4-0.7-0.2c0-0.7-0.2-0.7,0-1.2c0.4-0.7,2.9,0.2,3.2,0.2
		c0.2,0,2.6-0.4,3.9-0.4c1,0,2.6,0.5,3-0.5c0-0.2-0.2-0.1-0.4-0.2c0-0.2,0-0.3,0.2-0.4c0.7,0.2,0.3,0.7,0.5,1.1
		c0.8-0.1,0-0.7,0.4-1.1c0.2,0.1,0.3,0.2,0.4,0.4c0,0.2-0.2,0.1-0.2,0c-0.5,0,0.2,0.3,0,0.7c0.7,0,1.3,0,2,0
		c-0.2-0.3-0.6-0.4-1.1-0.4c0.2-0.2,0.9-1.3,0.2-1.2c0.1-0.5,0.7-0.5,1.1-0.7c0.4,0.6,0.9,1,1.1,1.8c0,0.3-0.6,0.1-0.7,0.4
		c0.3,0.3,1.8,0.3,2.1,0c0-0.7-0.1-0.1-0.5-0.2c-0.3-0.6,0.6-0.1,0.5-0.5c0-0.1,0-0.1,0-0.2c0.2,0.1,0.3,0.3,0.4,0.5
		c0.3,0,0.3-0.2,0.5-0.2c0,0.1,0,0.1,0,0.2c0,0.3-0.6,0.1-0.7,0.4c0.5,0.3,2.4,0.2,2.7,0.2c0.4,0,0.2-0.5,0.7-0.4
		c0.5,0.1-0.2,0.4,0,0.9c0.8,0.2,1.8,0.2,1.4,1.6c0.2-0.1,0.3-0.5,0.4-0.2c0.1,0.2,0,1.1-0.2,0.5c-0.6,0.3,0.5,0.4,0.2,1.1
		c-0.2-0.1-0.3-0.4-0.4-0.7c-0.4,0.1-0.1,0.9-0.2,1.2c0.3,0.1,0.3-0.2,0.5-0.2c-0.1,0.2-0.2,0.3,0,0.4c0,0.1,0,0.1,0,0.2
		c-0.2,0.2-0.4,0.2-0.4-0.2c-0.4,1-0.1,2.8-0.2,4.1c0.2-0.1,0.2-0.4,0.5-0.4c0.2,0.6-0.5,0.4-0.5,0.7c-0.1,0.7,0.5-0.2,0.5,0.5
		c-0.4,0.2-0.7-0.1-0.5,0.9c0.1-0.1,0.3-0.2,0.5-0.2c-0.2,1-0.8,0.5,0,1.2c0,0.1-0.2,0.2-0.2,0.4c-0.6-0.7-0.3,0.6-0.5,1.1
		c0.5,0.2,0.8,0.5,0.5,1.1c-0.3-0.2-0.4-0.4-0.4-0.9c-0.4,1-0.1,2.8-0.2,4.1c0.4-0.4,0.5,0.1,0.5,0.5c-0.1,0.2-0.3,0-0.4-0.2
		c-0.4,0-0.1,0.6-0.2,0.9c0.2,0,0.1-0.4,0.4-0.4c0.1,1.4,0.2,2.4-0.2,4.4c-0.3-1.1,0-1.7,0-3c-0.8,2.2-0.2,5.8-0.5,7.5
		c0.2-0.1,0.3-0.3,0.4-0.5c0.4,0,0.1,0.8,0.2,1.1c-0.2-0.1-0.2-0.4-0.5-0.4c0,0.5-0.1,1.2,0.2,1.4c0.5-0.2-0.3-0.6,0.2-0.9
		c0.5,0.8,0,2.5-0.4,3c0.3-0.1,0.1-0.5,0.5-0.2c-1.1,0.8,0.1,1.9-0.5,2.8c0.3,0.7,0-0.7,0.4-0.5c0.5,0.6-0.3,0.8-0.5,1.4
		c-0.1,0-0.2,0-0.4,0c0.5,0.6-0.2,1.1-0.2,1.8c0.3-0.5,0.6,0.3,0.2,0.4c0,0.2,0.4,0.1,0.4,0.4c0.2,0.6,1,0,0.9,1.1
		c-0.4,0.1,0.1-0.8-0.5-0.5c0.1,0.4,0.1,0.5,0.2,1.2c-0.2-0.1-0.2-0.4-0.5-0.4c0,2.2,0,4.5,0,6.7c0.2-0.2,0.3-0.1,0.5,0
		c-0.1,0.2-0.3,0.3-0.5,0.4c0.4,0.1-0.2,1.4,0.5,1.2c0.1,0.6-0.7,0.2-0.5,0.9c0.2,0.2,0.3,0.1,0.5,0c0.1,0.4-0.3,0.3-0.4,0.5
		c0.2,0.7-0.4,1.1,0,1.8c0.6-0.1,0.7-0.6,0.9-1.1c-0.2-0.7,0.3-1.6,0-2.1c0-0.1-0.5-0.1-0.5-0.2c0-0.1,0.3-0.6,0.4,0
		c0-0.8,0.3-1.5-0.2-2.1c0.7,1,0.2-1.1-0.4-0.4c-0.3-0.4,0.6-0.5,0.5-0.2c-0.1-0.4,0.6-2.6-0.2-3.6c0.1,0,0.8-0.4,0-0.5
		c0.7-1.5,0.4-3.1,0.7-5.1c-0.4,0.1,0,0.9-0.7,0.7c0.4-1.8,0.7-3,0.2-4.6c0.5-1.2,0.2-1.1,0-2.5c0.4,1,0.6-0.8,0-0.2
		c0.6-1.9,0.2-2.6,0.5-5c-0.1,0-0.2,0.2-0.4,0.2c0.4-1.6,0.5-4.2,0.2-6c0.7-0.9,0.3-1.8,0.7-3c-0.2,0.1-0.4,0.2-0.7,0.2
		c0.8-1.1,0-2.5,0.5-3.5c-0.8-0.6,0.5-1.1-0.4-1.6c0.4-0.1,0.6-1.2,0.4-1.2c-0.3-0.7,0.4-1.3-0.4-1.6c0.1-0.3,0.3-0.4,0.5-0.5
		c-0.1-0.4-0.4-0.5-0.5-0.7c0.5-1.1,0.6-2,0.2-3.2c0.4,0.3,0.2,0,0.7,0c0-0.2-0.4-0.1-0.4-0.4c-0.5-0.3,0.3-0.9-0.2-1.1
		c-0.2-0.6,0.2-0.6,0.7-0.5c0.4,0,0.8,0,1.2,0c0.4,0,0.1,0.6,0.2,0.9c0.4-0.1,0.4,0.3,0.9,0.2c0.1-0.4-0.5-0.2-0.5-0.5
		c0-0.5,0.5-0.6,0.7-0.4c0.3,0-0.2,0.6,0,1.1c-0.5,0,0.1,1.1-0.4,1.1c0.1,0.2,0.5,0.3,0.2,0.4c0,0.4,0.5-0.1,0.4-0.4
		c0.6-0.7-0.2-1.7,0.7-2c-0.5-0.7-0.7-1.6-1.1-2.5c-0.4-0.8,0.1,1.1,0.2,1.6c-0.1,0.4-0.5-0.3-0.9-0.2c-0.7,0-1-0.3-1.4-0.5
		c-0.1-0.3-0.8,0-0.9-0.4c0.3,0,0.3-0.2,0.5-0.2c0-0.2-0.3-0.1-0.5-0.2c-0.2-0.6,0.4-1.1,0-1.2c0-0.5,0-1,0.5-0.9
		c-0.7-0.8-0.7-1.8,0-2.5c-0.8-1.8,0.8-3.3,0.4-5.1c0-0.5-0.1-1.2,0.2-1.4c0.1,0,0.2,0,0.4,0c-0.1-1.3,0.2-2.4-0.5-2.3
		c0-0.4,0-0.8,0-1.2c0.1-0.4,0.9-0.1,1.2-0.2c-0.7-1-2.4-1.1-4.1-0.7c0,0.3,0,0.6,0,0.9c-0.3,0.2-0.3,1.6,0,1.8
		c0.6-0.1,0.7,0.3,1.2,0.2c0,0.5,0,1.1,0,1.6c-0.9,0.9,0,2.8-0.2,4.1c0,2.7-0.1,5.2,0,7.3c-0.5,0.3-1.8,0.6-2-0.2
		c-0.1,0-0.1,0-0.2,0c0,0,0,0,0,0c-2.3,0-5.9,0-8.4,0c-0.5,0-0.9,0-1.4,0c-0.8,0-1.7,0-2.5,0c-0.5,0-0.9,0-1.4,0
		c-1.4-0.3-4.2-0.2-5.3-0.2c0.1-0.3,0.7-0.1,0.5-0.7c-0.3,0-0.3,0.2-0.5,0.2c-0.2-0.6,0.6-0.1,0.4-0.7c-0.2,0.2-0.3,0.1-0.5,0
		c0.1-0.2,0.7-0.6,0.5,0c0.4-0.2-0.1-1.6-0.5-1.1c-0.1-0.5,0.5-0.3,0.4-0.9c-0.2,0-0.1,0.2-0.2,0.4c-0.4,0-0.2-0.5-0.7-0.4
		c0.4,0.6,0.3,1.9,0.4,3.2c-1.3,0-2.6,0-3.9,0c-0.9,0-1.8,0-2.7,0c-1.1,0-2.1,0-3.2,0c-0.6-0.2-0.9-0.7-0.7-1.6
		c0.1,0,0.2-0.2,0.4-0.2c-0.1-0.8-1.3-0.5-2.1-0.5c0.6-2,2.9-2.9,4.4-4.1c1.8-1.4,3.6-2.9,5-4.6c0.5-0.7,1.1-1.3,1.8-1.8
		c1.4-2.1,4.4-5.4,4.6-9.8c0-0.8,0-1.7,0-2.5c0.5-0.5,0.2-0.5,0-1.1c0.2-1.1,0.2-2.3,0-3.4c-2.4-8.8-9.2-13.1-15.8-17.8
		c0-0.3,0-0.6,0-0.9c-0.7-0.1-1.2-0.3-2-0.4c-1.1-0.2-2.7,0.5-4.1,0.5c-0.6,0-1,0.3-1.6,0.4C5.4,260.5,3.8,260.5,3.3,260.2z
		 M47.2,334.1c-0.3,0.3,0,1.2-0.4,1.4C46.8,335.4,46.6,334.1,47.2,334.1z M19.1,314.6c0.7,0.2,1.1-0.3,1.2,0.4
		C19.9,314.9,19.2,315.1,19.1,314.6z M22.7,314.4c-0.4,0.4,0.8-0.3,0.9,0.4c-0.7,0-1.4,0.4-1.8-0.2
		C22.2,314.7,22.6,313.9,22.7,314.4z M18.2,314c0-0.1,0-0.2-0.2-0.2c0,0.1,0,0.2,0,0.4c-0.6-0.5-1.5,0-2.1-0.4
		C16.3,313.6,18.7,313.5,18.2,314z M15.2,583.7c0.3,0.1,0.8,0.1,0.7,0.5C15.6,584.6,15.1,584.3,15.2,583.7z M11.1,598.3
		c0,0.2,0.2,0.2,0.2,0.5c-0.5,0.1-1.1,0.1-1.2,0.5c-0.1,0.6,0.6,0.4,0.5,1.1c-0.6,0.3-1.5,0.2-2.3,0.2c-0.4-0.5-0.6-1.1-0.5-2
		C8.8,598.4,10,598.4,11.1,598.3z M12.4,593.5c-1,1.2,0.6,2.2,1.2,2.8c-1.3,0.6-3.8,1.7-5.3,0.9c0.4-0.8,0.9,0,1.6,0
		c-0.1-1.6,0.3-2.2-0.5-3.4C10.2,593.6,12,593.5,12.4,593.5z M9,590.1c0.6,0.3,1-0.2,1.4,0.4c-0.3,0.8-0.1,1.3,0,2.1
		c-0.2,0.2-0.8,0.2-1.2,0.2C8.9,591.8,8.5,591,9,590.1z M9.2,585.8c0.5,1.2,2.8,0.7,4.4,0.9c0.2,0.6,0.6,0.8,0.7,1.4
		c-1.5,0.5-3.3,1.3-5,1.1C9.1,588.3,8.2,586.4,9.2,585.8z M16.1,567.6c0.1,0.8,0.4,1.2,0.5,2c-2.5-0.1-5,0.8-7.3,0.4
		c1.1,0,1-1.1,0.5-1.8C12.1,568.1,14.4,568.1,16.1,567.6z M13.8,544.7c0,0.2,0,0.4,0,0.5c-0.4,0-0.9,0-0.9-0.4
		C13.1,544.7,13.4,544.6,13.8,544.7z M20.4,542.3c0.4,0.2-0.5,0.4-0.2,1.1c0.5,0.3,1,0.8,1.8,0.4c0,0.2,0,0.4,0,0.5
		c-2,0.3-4.5,1-6.7,0.5c0.2-1.1-1.4-1.7-2.1-2.3C15.1,542.4,17.7,542.3,20.4,542.3z M8.8,537.4c0.7,1.1,0.8,2.5,0,3.6
		C7.8,540.7,8,537.8,8.8,537.4z M18.8,532.2c0.7,0.8,2.4,0.7,2.8,1.8c0,0.1,0,0.2,0,0.4c-4.1,0.7-8.7,1-13.3,1.2
		c-0.4-0.5-0.1-1.7-0.2-2.5C10.6,531.8,15.3,532.6,18.8,532.2z M23,526.5c0.2,1,1,1.2,2.1,0.9c0.5,0.4-0.1,1.2,0.7,1.6
		c-0.4,0.3-0.8,0.6-1.4,0.7c-0.9-1.3-2.5-1.6-4.6-1.2c-0.5,0.4-0.5,1.3-0.7,2c-2.7,0.4-5.9,0.3-8.5,0.5c-0.9,0.1-2.1,0.8-2.5-0.4
		c0.7-0.2,1.2-0.6,1.4-1.2c-0.1-0.7-0.6-1-0.9-1.6C12.9,526.9,18.8,527.5,23,526.5z M23,522.3c0.1,0.7-0.8,0.4-0.5,1.2
		c0.5,0.4,1.3-0.4,1.6,0.4c-0.4,0.1-1,0.1-1.1,0.5c0.1,0.4,0.4,1,0.2,1.2c-3.9,0.2-8.8,1.1-12.4,0.4c0.6,0.1,0.7-0.2,0.9-0.5
		c-1-1-3.5-0.5-3.7-2.3C12.4,522.5,18.7,521.9,23,522.3z M8.5,514.1c0.8-0.3,0.7-1.6,1.1-2.3c3.7-0.3,7.5-0.5,11.2-0.9
		c0,1.1-0.5,2-0.4,3.4c-0.6-0.1-1.6-0.8-2.1,0c-0.2,0.8,0.6,1,0.2,1.4c-1,0-2.1,0.4-3.4,0.5c-2.7,0.2-5.8-0.6-7.5,0.7
		c0.3,1.1,1.3,0.4,2,0.4c2.5,0,6-0.2,8.5-0.4c0.2,1.3,1.4,1.4,1.4,2.5c1.1,0,1.8-0.4,2.5-0.9c1.3,0.6,0,1.6,0.2,2.5
		c-5.2-0.1-10.4,0.9-15.1,0.7c-0.2-0.9,1.4-0.1,1.1-1.2c0-0.4-0.8,0-0.9-0.4c-0.1-2-0.3-4.9,0-7.3C8.6,512.7,7.8,513.7,8.5,514.1z
		 M20.4,506.1c0.5,0.7,1.5,0.9,1.6,2c-1.6-0.7-2.3,0.7-2.1,1.8c-3.1,0.8-7.4,0.5-10.8,1.1c-0.6-0.1,0.1-0.9-0.7-1.1
		c-0.5,0.4,0.4,1.1-0.5,1.1c-0.2,0-0.5,0-0.7,0c-0.3-1.1,0.1-2.6,0.4-3.7C11.5,506.7,16.3,506,20.4,506.1z M21.6,503.3
		c-1.3,0.3-0.3,1-0.9,1.6c-4.5,0.3-8.6,0.8-13.1,1.1c-0.1-0.9,0.1-1.5,0.2-2.3c1.9,0,3.8,0,5.7,0c0-0.4,0-0.7,0-1.1
		C16.2,502.9,20.4,500.8,21.6,503.3z M23.2,502.2c-0.4-0.1-0.4,0.3-0.9,0.2C22.1,501.8,23.3,501.5,23.2,502.2z M20.2,494.8
		c-0.1-0.7,0.9-0.7,0.7,0C20.7,494.8,20.4,494.8,20.2,494.8z M19.1,496.2c0.4,0.5-0.8,1.8,0.4,2.1c0.4-0.3,0.8-0.5,1.2-0.7
		c0,0.5-0.2,1.2,0.4,1.2c0.9,0.2,0.9-0.5,1.8-0.4c0.2,1.6-1.3,0.4-2,0.9c-0.3,0.6-0.1,1,0,1.6c-1.3,0-2.3,0.3-3.7,0.2
		c0-1.5,0-3,0-4.4c-0.4,0-0.8,0-1.2,0C16.9,496.4,18.1,496.4,19.1,496.2z M18.6,494.1c-0.5,0.4,0,0.7-0.4,1.2
		c-1.4-0.2-1.9,0.5-3.2,0.4c0-0.5,0-1.1,0-1.6C16.2,494.1,17.4,494.1,18.6,494.1z M22.3,310.1c-0.2,0-0.4,0-0.5,0
		c-0.1-0.4,0.1-0.5,0.2-0.7c0.1,0,0.1,0,0.2,0C22.3,309.6,22.3,309.8,22.3,310.1z M34.2,310.1c0-1,1.2,0,1.6-0.2c0.1,0,0.1,0,0.2,0
		C36.1,310.6,34.9,309.9,34.2,310.1z M31.9,310.3c-0.3-0.5-1.8,0.2-1.8-0.5C31.1,309.9,32.2,309.6,31.9,310.3z M22.5,310.3
		c0-0.2,0-0.4,0-0.5c0.5,0.3,0.7-0.2,0.9,0.4C22.9,310,22.9,310.4,22.5,310.3z M13.8,309.2c0.6,0.2,0.8,1.2,1.6,0.7
		c0,0.1,0,0.1,0,0.2c-0.1,0.2-0.9,0.2-1.6,0.2c-0.2,0-0.4,0-0.5,0C13.1,309.6,13.5,309.4,13.8,309.2z M30.3,308.9
		c-0.3,0-0.1-0.6-0.5-0.5c0.5-0.5,1.2,0.2,1.6-0.2c0.3,0.3,0.7-0.3,1.1,0.2c0,0.3,0,0.5-0.2,0.5c-0.1-0.3-0.8,0-0.9-0.4
		c-0.3,0.1,0,0.2,0,0.4C30.7,308.9,30.9,308.7,30.3,308.9z M35.3,308.2c0.4,0,0.7,0,1.1,0c0,0.2,0,0.5,0,0.7c-0.1,0-0.2,0-0.4,0
		C35.9,308.5,35.1,308.8,35.3,308.2z M27.3,308.9c-0.2,0-0.4,0-0.5,0c-0.5-1,0.8-1,1.1-0.2c-0.4,0.2-0.7-0.5-0.7,0
		C27.2,308.7,27.3,308.7,27.3,308.9z M43.1,308.9c0.1-0.4-0.3-0.3-0.4-0.5c0.4,0,0.5-0.3,0.9,0C43.7,308.7,43.5,308.9,43.1,308.9z
		 M41.3,308.2c0.6,0.1,1.3,0.3,1.6,0.7c-0.3,0-0.5,0-0.5,0.2c-0.1,0-0.1,0-0.2,0c0-0.2,0-0.3-0.2-0.4c0,0.2-0.1,0.2-0.2,0.2
		c0-0.2,0-0.3-0.2-0.4c0,0.2,0,0.3-0.2,0.4C41.4,308.7,41.3,308.5,41.3,308.2z M37.2,308.7c0.5,0,0.2-0.8,0.9-0.5
		c0.1,0.3-0.3,0.5,0,0.5c0.1-0.2,0.2-0.4,0.5-0.4C38.7,309.2,37.4,308.8,37.2,308.7z M34.4,308.9c-0.2-0.2-0.7-0.2-0.7-0.5
		c1.1-0.2,1.2-0.2,1.8,0.5C34.4,309,35.2,308.2,34.4,308.9z M18.4,308.5c0-0.2-0.4-0.1-0.4-0.4c0.1-0.3,1,0,1.1,0.4
		c-0.6,0.5-0.7,0-1.8,0.4c-0.2,0-0.2-0.5,0-0.5c-0.2-0.5-0.5,0.5-0.9,0.4c0-0.1,0-0.1,0-0.2C16.7,307.5,17.9,308.4,18.4,308.5z
		 M23.9,308c0.1,0.5-0.5,0.3-0.4,0.9c-0.7-0.1-0.5-0.5-0.7,0c-0.4-0.4-0.9,0.3-1.2-0.2c-0.2-0.7-0.7,0.5-0.4-0.7c0.2,0,0.4,0,0.5,0
		C22.5,308.4,22.9,308,23.9,308z M28.7,281c0-0.2-0.2-0.2-0.2-0.5c-0.9-4.4-4.9-6.6-6.7-9.4c2-1.9,3.5,1.1,4.4,2.5
		c1.2,1.7,2.3,3.9,2.5,5.9C29,279.5,29,280.9,28.7,281z M21.1,290.6c-0.6,0.6-0.4-1.5,0-1.6c1-3.1-0.1-5.8,0.5-8.7
		c-0.1-1.3-0.2-2.6-0.2-4.1c-0.4-1.3,0.1-2.4,0-3.9c2.8,2.4,7.3,5.6,7.1,9.9C28.4,285.7,23.5,289.1,21.1,290.6z M21.3,295.2
		c-0.3-0.4-0.1-1.2-0.4-1.6c-0.3-0.4-0.4-2.2,0.2-2.3c2.8-1.5,5.2-3.3,6.7-6c0.3-0.4,0.4-1.1,0.9-1.2c-0.1,0.4,0.2,1.2-0.2,1.2
		c-0.8,3.3-2.2,6.7-4.4,8C24.2,294.3,22.6,296.1,21.3,295.2z M15.1,294.5c1.4-0.5,2.5-1.3,3.9-1.8c1.3,4.5-1.1,7.5-4.1,9.2
		C15.2,299.5,15.3,297,15.1,294.5z M15.6,268.4c1.3,0.3,2,1.3,2.7,2.3c0.1,0.4,0.2,0.9,0.4,1.2c0.7,0.9-0.6,1.2-1.1,1.4
		c-0.8,0.7-0.6,2.3-0.7,3.7c-0.1,2.5,0.2,5.6-0.2,7.8c0,0.1,0,0.2,0,0.4c0.3,0.2,0.3,1.6,0,1.8c0,0.3,0,0.6,0,0.9
		c0.4,0.3,0.1,1.4,0.2,2c-0.2,1.1,0.9,0.9,1.1,1.6c-0.7,0.9-1.6,1.7-2.8,2.1c-0.5-1,0-2.3,0-3.4c-1-0.1-1.3-0.8-2.5-0.7
		c-0.3-1-0.2-1.5-0.2-2.7c0.8-0.2,1.8-0.2,2.5-0.5c-0.1-0.2-0.3-0.3-0.2-0.7c-0.4-0.2-0.1-1.2-0.2-1.8c0-0.3,0-0.6,0-0.9
		c-0.8,0.1-1.1-0.3-2-0.2c0-1.9,0.4-3.4,0.4-5.3c0.6-0.4,2.1,0.1,2.7-0.4C15.6,274.2,15.6,271.3,15.6,268.4z M13.8,267.3
		c0,0.1,0.1,0.2,0.4,0.2c0.5,0.1,0.9,0.3,1.1,0.7c-0.5-0.1-1.4,0.2-1.6-0.2C13.7,267.8,13.6,267.4,13.8,267.3z M13.5,262.2
		c1.4,0.5,2.1,1.6,3.4,2.1c1.3,1.2,2.6,2.2,3.2,4.1c0,0.6-0.4,0.8-0.4,1.4c-2-1.1-4.2-2.2-6-3.5c0-0.1,0-0.2,0-0.4
		c-0.4-0.7-0.1-2.2-0.2-3.2C13.5,262.5,13.5,262.4,13.5,262.2z"/>
	<g>
		<path fill="#E4BA27" d="M123,12.9c-6.3,0-12.3,0.1-18.3-0.9c-2.4-0.4-4.1-1.2-5.7-1.9c-1.9-0.1-3.8-0.2-5.7-0.3
			C93,9.5,92.8,9.2,92.5,9h-9c-2.2-0.9-6.6-0.5-9.7-0.5H51.4V6c0.9-0.1,1.8-0.1,2.8-0.2c0.6-0.6,0.4-2.9,0.3-4.1c-6.7,0-20,0-20,0
			l0.1-4.2c-11.5,0.3-23.1,1-34.6,0.7v263.2c4.9,0,9.3,0.1,13.1-0.9c3.5-0.9,6-3.2,10.9-3.3c0.3-1.9,0.6-3.8,0.9-5.7
			c6.3,0.1,23.1,1.2,25.5-2.1c0.9-1.5-0.3-5.1-0.3-7.4c-2.9-0.4-5.8-0.8-8.6-1.2c-2.3-0.1-4.6-0.1-6.9-0.2v-2.1
			c0.5-0.1,0.9-0.1,1.4-0.2c0.1-1.9,0.1-3.6-1-4.3c-2.1-1.6-7-1.6-10.5-1.6v-4c3.1,0,5.2-0.7,7.6-1.4c0.1-1.2,0.3-3.7-0.3-4.3
			c-2.1-0.3-4.3-0.7-6.4-1v-1c0.9-0.5,0.6-3.3,0.5-4.7c-1-0.1-2.1-0.1-3.1-0.2v-1.2c0.2-0.1,0.3-0.2,0.5-0.3c0.8,0,1.2,0,1.6-0.3
			c0.1-0.7,0.1-1.4,0.2-2.1c0.7-0.1,1.5-0.1,2.2-0.2v-1.2c-1.7-0.1-1.2-1.1-2.2-1.6c-1-0.4-2.1,0.3-2.8-0.3c-0.9-0.9-0.9-3-0.9-4.8
			c7.2-0.2,14.5-0.3,21.8-0.5c1.5-2.6,8.4-0.9,11.4-2.1c-3.5-0.3-7-0.6-10.5-0.9c-0.1-0.5-0.2-0.9-0.3-1.4
			c-6.4-0.1-12.8-0.1-19.2-0.2v-1.7h7.6v-3.1c-1.1-0.3-2.7-1.4-3.1-2.4c-2.9-0.1-5.9-0.2-8.8-0.3v-1.6c2,0,2.7-0.5,4.3-1
			c0-2-0.8-3.1-0.3-4.8c4.5,0,9-0.8,12.6-1.2c-0.1-0.1-0.1-0.2-0.2-0.3c-1.8-0.4-3.7-0.7-5.9-1c-2.4-0.1-4.7-0.1-7.1-0.2
			c-1.1-0.5-1.1-1.4-3.1-1.6v-0.7c1.6,0,1.8-0.3,1.7-1.9c0.9-0.1,1.8-0.1,2.8-0.2v-1.7c0.7-0.1,1.5-0.1,2.2-0.2v-1
			c1,0,1.5-0.1,2.1-0.3v-1c-0.1-0.1-0.2-0.2-0.3-0.3c-2.8-0.1-5.6-0.1-8.5-0.2c-0.1-1-0.1-2-0.2-2.9c-0.8-0.1-1.6-0.1-2.4-0.2
			c-0.1-0.6-0.1-1.1-0.2-1.7c-1.2-0.1-2.3-0.1-3.5-0.2v-0.2c0.2-0.7,0.3-1.4,0.5-2.1c1.5-0.1,3-0.1,4.5-0.2c0.1-1.6,0.7-4.6,0-5.4
			c-1.6-0.2-3.1-0.3-4.7-0.5c-0.1-0.9-0.2-1.7-0.3-2.6c1.9-0.6,2.6-1.6,5.4-1.7c-0.2-1.4-0.3-2.9-0.5-4.3c-1.4-0.2-2.9-0.5-4.3-0.7
			c-0.2-0.6-0.3-1.3-0.5-1.9h3.1v-0.9c-0.7-0.1-1.5-0.2-2.2-0.3v-1.9c2.5,0,14.7,0.6,15.7-0.3c0.1-0.7,0.2-1.4,0.3-2.1
			c1.4,0.1,3.6,0.3,4.1-0.5c0.1-0.7,0.1-1.5,0.2-2.2h-1.7v-1.9H31v-0.9h-1c0.5-0.6,0.9-1.3,1.4-1.8c0.8-1.1,1.8-2,2.8-3
			c1.9-1.9,3.9-3.7,5.9-5.5c0.1-0.1,0.3,0,0.4-0.1c0.1-0.2,0.3-0.3,0.4-0.5c0.4,0.1,0.4-0.3,0.9-0.2c0.1,0,0.1-0.3,0.3-0.3
			c0.2,0.1,0.4,0.2,0.6,0.1c0,0,0-0.1,0.1-0.1c0.1-0.6-0.6-0.5-0.8-0.3c-0.2-0.3-0.3-0.2-0.6-0.3c-0.3-0.3-0.3-0.9-0.5-1.5
			c0.1-0.1,0.2-0.1,0.4-0.1c0.2,0,0.1-0.2,0.3-0.2c0.2-0.1,0.4,0.2,0.6,0c0-0.2,0.1-0.1,0.1-0.3c-0.1-0.4-0.5-0.3-0.8-0.1
			c0-0.2-0.3-0.2-0.5-0.2c-0.1-0.2-0.3-0.3-0.4-0.6c-0.1-0.6-0.3-1.3-0.3-1.8c0.2-0.1,0.5-0.2,0.7-0.3c0.2,0.1,0.6,0.2,0.6-0.1
			c0-0.4-0.5-0.3-0.7-0.2c-0.1-0.2-0.3-0.3-0.6-0.2c-0.2-0.4-0.5-0.8-0.4-1.4c0.4,0.1,0.5-0.1,0.7-0.2c0.2,0.2,0.6,0.2,0.6-0.2
			c-0.1-0.3-0.5-0.2-0.7-0.1c-0.1-0.1-0.3-0.2-0.6-0.2c0.1-0.3-0.2-0.2-0.2-0.4c-1.3-3.2-2.4-6.5-3.4-10c-0.5-1.7-1-3.5-1.5-5.3
			c-0.5-1.7-0.8-3.7-1.3-5.4c-0.1-1.1-0.5-1.6-0.5-2.8c-0.1-0.4-0.3-0.9-0.3-1.4c-0.1-0.1-0.1-0.3-0.2-0.5v-0.4
			c-0.2-0.7-0.4-1.5-0.5-2.3c-0.3-1-0.4-2.1-0.6-3.1c-0.1-0.4-0.2-0.8-0.2-1.2c-0.1-0.4-0.2-1-0.2-1.5h17.6v-2.1
			c1.5-0.5,3-0.9,4.5-1.4c0.1-0.7,0.1-1.5,0.2-2.2c0.6-0.4,0.6-0.6,1.6-0.7v-2.1h-2.6v-2.2h-2.6v-1.9H36.7v-4.1h6.2V62h-3.1v-1.6h-4
			v-4.3h-4.5v-2.9h-2.2v-0.5h20.4v-1.4c2.8-2.8,7.6-2.7,12.9-2.6v-1H54v-0.9c-1.6-0.1-3.1-0.1-4.7-0.2c-1.5-0.7-3-1.4-4.5-2.1
			c-2.1-0.1-4.3-0.1-6.4-0.2c-0.1-0.1-0.2-0.1-0.3-0.2v-2.4c-1.1-0.3-2.9-0.4-4.5-0.3v-2.8h14.7v-3.3c2.6-0.1,5.3-0.1,7.9-0.2v-9.3
			H43.4V24H46v-6c8.5-0.1,16.9-0.1,25.4-0.2c4,0,9.2,0.5,12.6-0.3c3.2-0.1,6.4-0.1,9.7-0.2c2.9-0.1,6.3-1.2,6.3-1.2l4.8-1.6
			c0,0,22.2-1.4,32.1-1.3C134,13,125.8,13,123,12.9z M24.9,98.2H25v0.3C24.8,98.6,24.9,98.3,24.9,98.2z M25.3,123.9
			c-0.2,0.1-0.1-0.2-0.1-0.3c-0.2-0.1-0.5-0.2-0.7-0.3c-0.2-0.1-0.6-0.1-0.7-0.4c0.6,0.2,0.9,0.4,1.6,0.6
			C25.3,123.6,25.4,123.9,25.3,123.9z M25.5,131.3c-0.2,0.1-0.1-0.3,0.1-0.2C25.6,131.2,25.6,131.3,25.5,131.3z M25.6,132.4v0.2
			c-0.2,0.1-0.1-0.1-0.1-0.2H25.6z M25.5,129.7v0.2C25.3,129.9,25.3,129.6,25.5,129.7z M24.3,128.8c-0.1,0,0.1-0.1,0.1-0.1
			c0.3-0.1,0.7-0.2,1-0.4c-0.3-0.2-0.7-0.3-1.1-0.4c0-0.2,0.3-0.1,0.3,0.1c0.1-0.1,0.3,0,0.4,0.1c0.3,0.1,0.6,0,0.6,0.4
			C25.1,128.5,24.7,128.7,24.3,128.8z M24.5,129.4c0-0.1-0.1-0.1-0.2-0.1c0.3-0.1,0.6,0.2,0.9,0.3c0.1,0-0.1,0.1-0.1,0
			C24.9,129.6,24.8,129.4,24.5,129.4z M25.2,129.7c-0.1,0.1-0.2,0.1-0.4,0.1C24.9,129.7,24.9,129.8,25.2,129.7z M24.4,129.8
			c-0.2-0.1,0.1-0.1,0.2-0.1C24.8,129.8,24.5,129.8,24.4,129.8z M24.4,129C24.5,129,24.4,129.1,24.4,129C24.3,129,24.4,129,24.4,129
			z M24.7,129c0.1,0,0,0.1-0.1,0.1C24.5,129,24.6,129,24.7,129z M25.2,129.1h-0.3c-0.1-0.1,0.3,0,0.4-0.1
			C25.4,129,25.2,129.1,25.2,129.1z M24.4,128.2C24.6,128.3,24.2,128.3,24.4,128.2L24.4,128.2z M25,128.3c0.1,0.1-0.2,0-0.3,0
			C24.6,128.2,25,128.2,25,128.3z M25.2,128.2C25.3,128.2,25.2,128.3,25.2,128.2C25.1,128.2,25.2,128.2,25.2,128.2z M23.6,127.9
			c-0.2,0,0.1-0.1,0.2-0.1C23.9,127.9,23.6,128,23.6,127.9z M23.6,128.4C23.8,128.5,23.4,128.5,23.6,128.4L23.6,128.4z M24.1,118.9
			c-0.2-0.2-0.7-0.2-0.8-0.5c0.3,0.1,0.5,0.2,0.8,0.3c0.1,0.2,0.5,0.2,0.6,0.4c0.1-0.1,0.1,0,0.3,0v0.4c-0.7,0.1-1,0.5-1.6,0.6
			c0.3-0.4,1-0.4,1.4-0.8c0-0.1,0-0.1-0.1-0.1c-0.2,0.2-1,0.1-1.4,0.1c0.4-0.1,0.9,0,1.4-0.1C24.7,119,24.3,119,24.1,118.9z
			 M23.8,126.2c0-0.2,0.3-0.1,0.5-0.1h0.6c0.1,0,0,0.2,0.1,0.2C24.7,126.4,24,126.2,23.8,126.2z M23.8,125.9
			C24.1,126.1,23.6,125.8,23.8,125.9L23.8,125.9z M23.9,124.6c-0.1-0.1,0.5,0,0.7-0.1c0.1,0,0,0.1-0.1,0.1H23.9z M24,126.6
			C24.2,126.7,23.8,126.7,24,126.6L24,126.6z M25.2,126.8c-0.3,0.3-0.8,0.4-1.2,0.5C24.3,127,24.8,126.9,25.2,126.8z M24.3,127.4
			h0.9c0.1,0,0,0.1-0.1,0.1h-1.1C24,127.4,24.3,127.4,24.3,127.4z M25.4,126.8c-0.2,0.1-0.1-0.1-0.2-0.1h-1.1c0.2-0.1,0.7,0,1-0.1
			c0.2,0,0.1-0.2,0.3-0.1C25.5,126.6,25.5,126.6,25.4,126.8z M25.4,124.5h-1.6c0.1-0.1,0.2-0.1-0.1-0.1c0.5-0.1,1,0,1.6-0.1
			L25.4,124.5L25.4,124.5z M23.8,123.7c0.3-0.1,0.9,0,1.3-0.1v0.3c-0.2,0-0.3,0.2-0.6,0.2c0.1-0.2,0.4-0.1,0.5-0.3
			C24.7,123.7,24.1,123.7,23.8,123.7z M24.5,124.1c-0.1,0.1-0.3,0.2-0.5,0.2C24.2,124.2,24.3,124.1,24.5,124.1z M24,122.6h1
			c0.1,0,0,0.1-0.1,0.1h-1.1C23.6,122.6,24,122.6,24,122.6z M25.2,122.7C25.2,122.7,25.1,122.7,25.2,122.7c0-0.1,0-0.1,0.1-0.1
			C25.3,122.7,25.2,122.7,25.2,122.7z M25.2,121.8c-0.1,0-0.2,0.1-0.3,0c0,0.2-0.2,0.1-0.3,0.2c-0.4,0.1-0.6,0.3-1,0.4
			c0.1-0.2,0.4-0.2,0.6-0.3c0.2-0.1,0.4-0.2,0.6-0.3H25c0,0,0.1-0.1,0.1-0.1c-0.1-0.1-0.3-0.1-0.5,0c-0.2,0-0.4,0-0.5-0.1
			c-0.1,0-0.5,0-0.3-0.1H25c0-0.2-0.3-0.1-0.4-0.2c-0.1,0-0.3-0.1-0.4-0.2c-0.3-0.1-0.6-0.1-0.7-0.4c0.6,0.1,1,0.5,1.7,0.6
			C25.2,121.4,25.2,121.8,25.2,121.8z M24.8,120.5c-0.4,0-1,0.1-1.2,0c0.4-0.1,1.1,0,1.6-0.1C25.1,120.7,24.9,120.5,24.8,120.5z
			 M25.1,103.2C25.3,103.2,24.9,103.2,25.1,103.2L25.1,103.2z M25.1,118c0,0.2-0.3,0-0.5,0.1c-0.5-0.1-0.9,0.1-1.2,0
			C23.8,118,24.5,118.1,25.1,118z M23.1,123.5h0.3C23.4,123.7,23,123.7,23.1,123.5z M23.2,123.7C23.4,123.8,23,123.8,23.2,123.7
			L23.2,123.7z M22.8,119.9c-0.1,0,0-0.1-0.1-0.2c0.1,0,0.1,0.1,0.3,0.1C23,119.9,22.8,119.8,22.8,119.9z M22.9,120.4v0.1h-0.1v-0.1
			H22.9z M22.3,115.2c0-0.1,0.1-0.1,0.2-0.1C22.4,115.1,22.3,115.2,22.3,115.2z M22.4,115.9c0,0,0-0.1-0.1-0.1
			C22.4,115.8,22.3,115.9,22.4,115.9z M22.2,114.4c0-0.2,0.1-0.2,0.3-0.2C22.5,114.4,22.3,114.3,22.2,114.4z M21.5,107.6
			c-0.1,0,0-0.2-0.1-0.3c0.1,0,0.3-0.1,0.3,0.1C21.8,107.6,21.5,107.4,21.5,107.6z M21.7,108.4c0.1,0.2-0.2,0.2-0.2,0H21.7z
			 M20.7,124v-0.3c0.1-0.1,0.4-0.2,0.4-0.3c0.1-0.1,0.1,0,0.3-0.1c0.1,0.4,0,0.8,0,1.1c-0.3,0-0.4-0.1-0.6-0.3c0-0.1,0.1,0,0.1,0
			C21,124.1,20.7,124,20.7,124z M20.1,121.7c-2.1,0.1-4.4,0-6.2-0.3c0.1-0.2,0.2-0.3,0.2-0.4c0.1,0,0.3,0,0.4,0v-0.7
			c1.2-0.1,2.4-0.2,3.6-0.3c0.2,0.1,0.1-0.2,0.3-0.1c0.6,0.1,1,0,1.7,0c0.4,0.2,0.7,0.4,0.8,0.8C20.8,121.2,20.5,121.5,20.1,121.7z
			 M20.3,123.7c-0.1,0.3-0.3,0.5-0.6,0.6c0-0.4,0.1-0.7,0.1-1.1C20.1,123.3,20.1,123.6,20.3,123.7z M19.5,124.4
			c-0.3,0-0.3-0.3-0.5-0.5c0.1-0.3,0.3-0.5,0.6-0.6C19.5,123.7,19.4,123.9,19.5,124.4z M18.4,124c0.1,0,0,0.2-0.2,0.1
			c0.2,0.2-0.2,0-0.1,0.2c0,0.1-0.2,0.1-0.3,0.1c-0.2-0.2,0.1-0.4-0.1-0.7c0.2,0.1,0-0.2,0.2-0.4c0.3,0,0.3,0.3,0.5,0.4
			C18.5,123.8,18.5,123.9,18.4,124C18.4,124.1,18.4,124.1,18.4,124z M17.8,124.4C18,124.6,17.7,124.3,17.8,124.4L17.8,124.4z
			 M18.5,123.4c0-0.2,0.3-0.1,0.5-0.1C19,123.5,18.6,123.5,18.5,123.4z M18.5,124.2C18.5,124.2,18.5,124.2,18.5,124.2
			c0.2-0.2,0.5,0,0.5,0.2c-0.2,0-0.2,0-0.4,0c0-0.1,0-0.1-0.1-0.1c0-0.1,0.1,0,0.1,0C18.6,124.3,18.5,124.3,18.5,124.2z M17.6,124.4
			c-0.3,0-0.3-0.3-0.5-0.5c0.1-0.3,0.3-0.4,0.5-0.6C17.8,123.6,17.6,124,17.6,124.4z M16.7,124.1c-0.1,0.1-0.1,0.2-0.2,0.2
			c-0.2,0,0-0.1-0.1-0.2c-0.1,0.1-0.1,0.3-0.4,0.2c-0.1-0.3,0.1-0.6,0.1-1c0.1-0.1,0.2,0,0.3-0.1c0.1,0.1,0.2,0.3,0.3,0.4
			c-0.1,0.1-0.2,0.3-0.3,0.3C16.4,124.3,16.5,124.1,16.7,124.1z M17.1,124.3c0,0.2-0.3,0-0.4,0.1C16.6,124.1,17,124.2,17.1,124.3z
			 M16.8,123.4H17C17.1,123.5,16.7,123.5,16.8,123.4z M15.4,124.2c-0.3,0.1-0.7-0.1-1.3-0.1c0.1-0.2-0.2,0-0.1-0.2
			c0-0.2,0.3-0.1,0.1-0.2c0-0.1,0.2,0,0.3-0.2c0.4,0.1,0.8-0.2,1.2-0.2C15.8,123.7,15.3,124,15.4,124.2z M16.1,118.2
			c-0.1,0.2-0.5,0-0.7,0c-0.2,0-0.9,0-0.8-0.3c0.4,0.1,1.1-0.1,1.6-0.1C16.2,118,16,118.2,16.1,118.2z M16.7,117.9
			c0.1-0.1,0.2-0.1,0.3-0.1c0.2,0.2,0,0.4,0.3,0.4c0,0.1-0.1,0.1-0.1,0.3H17v-0.2c0.1,0,0.1-0.1,0.2-0.1c-0.1-0.2-0.2,0.2-0.5,0.1
			C16.6,118.2,16.8,118,16.7,117.9z M18.1,118.4c-0.3,0.1-0.4-0.2-0.5-0.3c0.2-0.2,0.2-0.4,0.5-0.4C18.2,117.8,18,118.3,18.1,118.4z
			 M17.5,117.9c0-0.2,0.1-0.2,0.2-0.2C17.8,117.9,17.7,117.9,17.5,117.9z M19,118.2c0,0.2-0.1,0.2-0.1,0.3c0,0.1-0.2,0-0.3,0.1
			c0-0.3-0.1,0-0.3-0.1c0-0.4,0-0.4,0.1-0.8c0.4,0,0.6,0.2,0.5,0.5C18.9,118.2,18.9,118.1,19,118.2z M19.2,117.9
			c0-0.2,0.1-0.1,0.1-0.2c0.3,0.1,0.2,0,0.5,0c0.1,0.2,0,0.5,0,0.8c-0.3,0-0.4-0.2-0.5-0.3c0-0.2,0.1-0.2,0.2-0.3
			C19.4,117.7,19.3,118.1,19.2,117.9z M20,117.7c0.3-0.1,0.6,0.2,0.5,0.5h0.2c0,0.2-0.2,0.3-0.3,0.4c-0.1,0,0-0.1-0.1-0.2
			c-0.1,0.1-0.2,0.1-0.3,0.2C19.9,118.3,20.1,118,20,117.7z M20.7,123.4c-0.1,0.2-0.4,0.2-0.4-0.1C20.4,123.3,20.6,123.3,20.7,123.4
			z M21,118.2c0.2-0.2,0.2-0.5,0.6-0.3c0,0.3,0,0.5-0.1,0.6C21.2,118.5,21.1,118.3,21,118.2z M21.2,104.6c0-0.1,0-0.2,0.2-0.2
			C21.4,104.5,21.3,104.6,21.2,104.6z M21.4,105.6c-0.1,0,0-0.1-0.1-0.2C21.4,105.5,21.4,105.6,21.4,105.6z M21.2,103.5
			c-0.1,0,0-0.2-0.1-0.3c0.1-0.1,0.2,0,0.3-0.1c0,0.1,0.1,0.1,0.1,0.2C21.3,103.3,21.1,103.3,21.2,103.5z M20.8,100v-0.1H21v0.1
			H20.8z M21,101.1C21.1,101.3,20.8,101,21,101.1L21,101.1z M20.8,98.7v0.2c-0.2-0.1,0-0.2,0-0.4h0.3v0.2L20.8,98.7L20.8,98.7z
			 M21.2,102.2c0,0.2-0.1,0.2-0.2,0.1C21,102.2,21.1,102.2,21.2,102.2z M23.6,93.3c0,0.1,0,0.1-0.1,0.1c-0.3-0.3-0.7-0.5-1.1-0.8
			c-0.3-0.1-0.4-0.2-0.6-0.4c-0.2-0.1-0.4-0.2-0.5-0.4c0.5,0,0.8,0.4,1.1,0.6c0.4,0.2,0.7,0.5,1,0.7C23.5,93.1,23.5,93.3,23.6,93.3z
			 M21.5,96.3c0.1,0,0,0.1,0.1,0.1C21.5,96.4,21.5,96.3,21.5,96.3z M21.6,97.2c0,0,0-0.1-0.1-0.1C21.6,97.1,21.6,97.1,21.6,97.2z
			 M21.4,93.6h2.1v0.2c-0.2,0.1-0.7-0.1-1,0.1C22.3,93.6,21.5,94,21.4,93.6z M23.3,90.9c0,0.2-0.2,0.1-0.4,0.1
			c-0.5,0-1.2,0.1-1.7-0.1c-0.1-0.3,0.2-0.2,0.4-0.2c0.4,0,1.1,0,1.6,0h0.2V90.9z M23.2,88.7c-0.3,0.3-0.7,0.5-1,0.8
			c-0.4,0.1-0.7,0.6-1,0.6c-0.2-0.3,0.2-0.3,0.3-0.5c0.2-0.1,0.4-0.2,0.5-0.4c0.4-0.2,0.7-0.5,1-0.7c0,0,0.1-0.1,0.2-0.1
			C23.2,88.6,23.2,88.5,23.2,88.7z M21.6,106.5c0.1,0.2-0.2,0.2-0.2,0H21.6z M22.5,96.4c-0.3,0-0.8,0.1-0.9-0.2h2v0.2H22.5z
			 M23.5,97.6c-0.1,0,0-0.1,0-0.1C23.5,97.5,23.5,97.6,23.5,97.6z M21.9,110.2c0,0.1-0.1,0.1-0.2,0.1
			C21.8,110.2,21.9,110.2,21.9,110.2z M21.8,98.8c0-0.2,0.3-0.1,0.4-0.1c0.3,0,0.8,0,1.3,0h0.2v0.2C23.1,98.8,22.3,98.9,21.8,98.8z
			 M22.2,110.9v0.2c-0.1,0-0.3,0.1-0.3-0.1C21.8,110.8,22,111,22.2,110.9z M22,105.3C22.3,105.4,21.8,105.4,22,105.3L22,105.3z
			 M22.1,111.9c0,0.1-0.1,0.1-0.2,0.1C21.9,111.9,22,111.9,22.1,111.9z M22,112.8C22.3,112.8,21.8,112.8,22,112.8L22,112.8z
			 M22.3,113.6c0,0.1-0.1,0.1-0.2,0.1C22.1,113.6,22.2,113.6,22.3,113.6z M22.5,116.5c0.1,0,0,0.1,0,0.1
			C22.4,116.6,22.4,116.5,22.5,116.5z M22.6,110.8c0.1,0,0,0.1-0.1,0.1C22.4,110.8,22.5,110.8,22.6,110.8z M22.7,109.5
			C22.9,109.5,22.5,109.5,22.7,109.5L22.7,109.5z M22.7,117.1c0.1,0.2-0.3,0-0.2,0.2c-0.1,0,0-0.1-0.1-0.2H22.7z M22.8,113.9
			C23,114,22.6,114,22.8,113.9L22.8,113.9z M22.7,117.9c0.1,0.2-0.2,0.2-0.2,0H22.7z M22.7,119.2C22.9,119.3,22.5,119.3,22.7,119.2
			L22.7,119.2z M23,121.6C23.2,121.6,22.8,121.6,23,121.6L23,121.6z M23.2,122c0,0.2-0.2,0.2-0.3,0.1C22.9,122,23.1,122,23.2,122z
			 M23.2,115.8C23.2,115.8,23.2,115.7,23.2,115.8c0.6,0.2,1.1,0.5,1.7,0.7c0,0.3,0.1,0.3,0,0.5c-0.6,0.1-1.1,0.6-1.7,0.7
			c0.1-0.3,0.5-0.3,0.7-0.4c0.2-0.1,0.5-0.2,0.7-0.4c-0.4-0.1-1,0-1.4-0.1c-0.1,0-0.1-0.1,0-0.1h0.2c0.3-0.1,1,0,1.2-0.1
			c0-0.2-0.3-0.1-0.4-0.2c-0.1-0.1-0.3-0.1-0.4-0.2c-0.3-0.1-0.5-0.3-0.8-0.3C23.1,115.8,23.4,115.9,23.2,115.8z M23.1,122.7
			C23.3,122.7,22.9,122.7,23.1,122.7L23.1,122.7z M25,98.7C25.2,98.8,24.8,98.8,25,98.7L25,98.7z M24.9,115.3v0.2
			c-0.5,0-1.3,0-1.8,0c0-0.2,0.2-0.1,0.4-0.1c0.4,0,0.9,0,1.3,0C24.8,115.3,24.8,115.3,24.9,115.3z M24.9,114.2
			c-0.7,0.2-1.1,0.7-1.8,0.8c0.1-0.3,0.5-0.3,0.8-0.5c0.1-0.1,0.2-0.2,0.4-0.2c0.1-0.2,0.3-0.1,0.4-0.3c-0.3,0-1.1,0-1.6,0
			c0.1-0.3,0.4,0,0.7-0.1h0.9c-0.2-0.3-0.6-0.4-0.9-0.5c-0.3-0.2-0.6-0.3-0.9-0.4c0-0.1,0.2,0,0.3-0.1c0.5,0.2,1,0.4,1.3,0.7
			c0.1-0.1,0.2,0.1,0.4,0.1L24.9,114.2L24.9,114.2z M23.7,113.7C23.9,113.8,23.5,113.8,23.7,113.7L23.7,113.7z M23,112.8
			C23.2,112.8,22.8,112.8,23,112.8L23,112.8z M24.7,112.5c-0.3-0.1-0.6,0-0.8-0.1c-0.1,0-0.1,0.1-0.2,0.2c0-0.2-0.6-0.3-0.6-0.1
			c-0.1,0-0.2-0.2-0.4-0.1c0.5-0.2,1.4-0.1,2-0.1L24.7,112.5L24.7,112.5z M23.3,112.2C23.5,112.3,23.1,112.3,23.3,112.2L23.3,112.2z
			 M23.6,112.2C23.7,112.3,23.6,112.3,23.6,112.2C23.5,112.2,23.5,112.2,23.6,112.2z M24.7,111c-0.7,0.3-1.2,0.6-1.8,1
			c-0.1-0.3,0.3-0.4,0.5-0.5c0.2-0.1,0.5-0.3,0.7-0.4c0.2,0,0.4-0.1,0.4-0.3c-0.1-0.2-0.2,0.1-0.3,0.1c-0.2-0.1-0.5,0-0.8-0.1
			c-0.2,0-0.6,0.1-0.7-0.1h1.7c-0.1-0.2-0.3-0.2-0.5-0.3c-0.2-0.2-0.5-0.3-0.7-0.4c-0.2-0.1-0.5-0.2-0.6-0.4
			c0.3-0.1,0.5,0.2,0.6,0.1c0.1,0,0,0.1,0,0.1c0.5,0.3,1,0.5,1.5,0.8L24.7,111L24.7,111z M23.5,110.6c0.1,0,0,0.1-0.1,0.1
			C23.3,110.6,23.4,110.6,23.5,110.6z M23.8,110.6C24,110.7,23.6,110.7,23.8,110.6L23.8,110.6z M24.6,109.1c-0.5-0.1-1.1,0-1.6,0
			c-0.1,0-0.4,0.1-0.4-0.2h2V109.1z M23,108.9C23.1,108.9,23,108.9,23,108.9C22.9,108.9,23,108.9,23,108.9z M23.3,108.9
			c0.1,0,0,0.1-0.1,0.1C23.1,108.9,23.2,108.9,23.3,108.9z M24.5,107.5c-0.7,0.4-1.3,0.8-2,1.1c0.1-0.4,0.6-0.4,0.8-0.7
			c0.3-0.1,0.6-0.4,0.9-0.5c0-0.2-0.3-0.1-0.4-0.1c-0.4,0-0.8,0-1.2,0c-0.1,0-0.3,0.1-0.3-0.1c0.8,0,1.2-0.1,1.9,0
			c-0.2-0.3-0.7-0.4-1-0.6c-0.2-0.1-0.3-0.2-0.5-0.3c-0.1-0.1-0.4-0.1-0.4-0.4c0.4,0,0.6,0.3,0.9,0.4c0.3,0.1,0.6,0.4,0.8,0.4
			c0.1,0,0.1,0.1,0.1,0.3c0.1,0,0-0.1,0.1-0.2C24.5,106.9,24.6,107.1,24.5,107.5z M23.1,107C23.2,107.1,23.1,107.1,23.1,107
			C23,107,23.1,107,23.1,107z M23.2,107c0-0.2,0.1,0.1,0.2,0C23.4,107.2,23.3,107,23.2,107z M23.7,107
			C23.8,107.2,23.5,106.9,23.7,107L23.7,107z M24.4,105.3c-0.6,0.1-1.5,0.1-2.2,0c0.2-0.2,0.6-0.1,1-0.1c0.4,0,0.7,0,1,0h0.2
			C24.4,105.3,24.4,105.3,24.4,105.3z M24.3,103.6c-0.8,0.3-1.3,0.9-2.1,1.2c-0.1-0.4,0.3-0.3,0.4-0.4c0.1-0.1,0.4-0.2,0.5-0.3
			c0.4-0.2,0.7-0.3,1-0.6c-0.6-0.1-1.3,0-2-0.1c0.1-0.3,0.6-0.2,0.9-0.2h1c-0.1-0.2-0.3-0.2-0.5-0.3c-0.1-0.1-0.3-0.2-0.5-0.3
			c-0.3-0.2-0.6-0.5-1-0.6c0-0.1,0-0.1-0.1-0.2c0,0,0.3-0.1,0.1-0.1c0.2-0.1,0.4,0.2,0.6,0.2c0.2,0.1,0.4,0.3,0.6,0.3
			c0.4,0.3,0.8,0.4,1.1,0.7L24.3,103.6L24.3,103.6z M22.4,102.9c0.1,0,0,0,0,0.1C22.3,103,22.3,102.9,22.4,102.9z M22.5,101.8
			C22.6,102,22.3,101.6,22.5,101.8L22.5,101.8z M23.9,102.2c-0.1,0.2-0.2-0.2-0.1-0.2C23.9,101.9,23.7,102.2,23.9,102.2z
			 M23.8,101.5C24,101.7,23.6,101.7,23.8,101.5L23.8,101.5z M23.7,101.5C23.5,101.3,23.9,101.2,23.7,101.5L23.7,101.5z M24.2,101.1
			c0,0.3-0.3,0-0.5,0.1c-0.6,0-1.3,0.1-1.8-0.1c0-0.2,0.2-0.1,0.4-0.1h1.3c0.1,0,0.3,0,0.3,0.1c0-0.1,0.1-0.1,0.3-0.1
			C24.2,101,24.2,101.1,24.2,101.1z M22.8,100.9C23,100.9,22.6,100.9,22.8,100.9L22.8,100.9z M23.3,100.9
			C23.4,100.9,23.4,100.9,23.3,100.9C23.2,100.9,23.3,100.9,23.3,100.9z M24.2,99.1c-0.4,0.2-0.7,0.5-1.1,0.7
			c-0.4,0.2-0.7,0.5-1.1,0.7c-0.1-0.3,0.2-0.4,0.4-0.4c0.1-0.2,0.4-0.2,0.5-0.4c0.4-0.2,0.7-0.5,1.1-0.6c-0.2-0.3,0.1-0.3-0.1-0.6
			c-0.3,0-0.7-0.4-1.1-0.6c-0.2-0.1-0.4-0.3-0.6-0.3c-0.1-0.2-0.4-0.2-0.4-0.4c0-0.3,0.1,0.1,0.2,0c0.1,0.1,0.3,0,0.3,0.2
			c0.2,0.1,0.4,0.2,0.5,0.3c0.3,0.2,0.7,0.4,1,0.6c0,0,0.1,0.1,0,0.1c0.1,0,0.3,0.1,0.5,0.2C24.2,98.6,24.1,99,24.2,99.1z M24,96.4
			c-0.1,0-0.3,0-0.4-0.1c0-0.2,0.3-0.1,0.4-0.2C24,96.2,24,96.3,24,96.4z M23.9,94.1c-0.8,0.5-1.5,1.1-2.3,1.5
			c0-0.6,0.6-0.6,0.9-0.9c0.4-0.2,0.7-0.5,1-0.7h0.1c0.1-0.4,0-0.5,0-0.9C23.9,93.2,24,93.6,23.9,94.1z M23.8,91
			c-0.2,0-0.3,0-0.4-0.1c0-0.2,0.3-0.1,0.4-0.1V91z M23.7,88.4c-0.2,0-0.3,0.1-0.4,0.2c-0.2-0.2,0.2-0.5-0.1-0.7
			c0-0.1,0.1-0.1,0.2-0.2c-0.1-0.1-0.2-0.2-0.2-0.4C23.8,87.4,23.6,87.9,23.7,88.4z M23.6,84.6c0.1,0.2-0.1,0.1-0.2,0.1
			c0,0.2,0.2-0.1,0.2,0.2h-0.3c0-0.1,0-0.2-0.1-0.2C23.3,84.6,23.5,84.6,23.6,84.6z M23.2,87.9c-0.6,0.1-1.6,0.1-2.2,0
			c0-0.2,0.3-0.2,0.4-0.2c0.4,0,1.1,0.1,1.6,0.1C23.2,87.8,23.2,87.9,23.2,87.9z M23.2,87.5c-0.1,0-0.2-0.2-0.4-0.2
			c-0.1-0.3-0.4-0.4-0.6-0.4c-0.1-0.3-0.5-0.3-0.6-0.6c-0.3-0.1-0.5-0.2-0.7-0.5c0.2,0,0,0,0.1-0.2c0.3,0.1,0.6,0.3,0.8,0.5
			c0.3,0.2,0.5,0.4,0.8,0.6c0.1,0.2,0.4,0.2,0.5,0.4c0.1,0,0.1,0.1,0.2,0.1L23.2,87.5L23.2,87.5z M23.1,84.6v0.1
			c0,0.3-0.4-0.1-0.5,0.1c-0.4-0.1-1.2,0-1.8-0.1c0-0.2,0.4-0.1,0.5-0.1c0.4,0,1.1,0,1.6,0H23.1z M21.6,82.9
			c0.3-0.2,0.6-0.5,0.9-0.7c0,0,0,0,0,0H23c-0.6,0.6-1.4,1-2,1.6h-0.2c0.1-0.1,0.2-0.2-0.1-0.1C20.9,83.3,21.3,83.1,21.6,82.9z
			 M20.8,97.5c0,0.1-0.1,0-0.2,0.1v-0.2C20.8,97.3,20.7,97.5,20.8,97.5z M20.4,94.9v-0.2h0.2C20.6,94.9,20.5,94.9,20.4,94.9z
			 M20.5,96.3c-0.1,0,0-0.1-0.1-0.2C20.6,96.1,20.5,96.2,20.5,96.3z M20.6,93.1v0.2c0,0-0.4,0.2-0.4-0.1
			C20.2,93,20.5,93.2,20.6,93.1z M20.3,92c0,0.2-0.2,0.1-0.2,0.1C20.2,91.9,20.2,92,20.3,92z M20.2,87.3c0,0.1-0.4-0.1-0.4,0.2
			c-0.1,0,0-0.3-0.1-0.4C19.9,87,20.2,87,20.2,87.3z M20,89.1h-0.1c0-0.1,0-0.1-0.1-0.1c0-0.2,0.1-0.1,0.2-0.1L20,89.1
			C20,89.1,20,89.1,20,89.1z M20.1,90.6c-0.1,0,0-0.1-0.1-0.2C20.1,90.5,20.1,90.6,20.1,90.6z M19.8,85.7c0.1,0,0,0.1,0.1,0.2
			c-0.2,0-0.2,0-0.2-0.2C19.7,85.6,19.7,85.8,19.8,85.7z M19.5,82.2c0,0.1-0.1,0.1-0.1,0.2c-0.1,0-0.1-0.1-0.1-0.2H19.5z M19.6,84.1
			c-0.1,0,0-0.1-0.1-0.2C19.6,84,19.6,84.1,19.6,84.1z M10.7,90.9c0.7-0.9,2.2-1.4,3.5-1.7v-4.8h-3.5v-2.2H18
			c1.2,11.4,2.2,22.8,3.5,34c-4.9,0.1-8.7-0.3-11.4-0.4c0.5-4.3,5.3-8.4,8.3-9.3C18.9,102.4,6.4,100.5,10.7,90.9z M21.2,136.4v-2.7
			c-3.8,0.4-7.6,0.5-11.4,0.5c0.8-0.7,2-1.2,2.9-1.5c0.3-0.3,0.6-0.7,0.9-1c-0.9-0.3-1.8-0.7-2.8-1c-0.1-0.8-0.1-1.6-0.2-2.4
			c2.1-0.1,4.1-0.1,6.2-0.2v-1.4c-2.1-0.1-4.2-0.1-6.3-0.2c1.1-0.1,1.2-0.1,3.5-0.4c2-0.3,4.9-0.4,6.8-0.2c0.3,0,0.6,0,0.9,0.1
			c0.3,0.3,0.6,0.6,0.6,1.1c0.2,0.3,0.4,0.7,0.7,1.1c0.2,2.8,0.4,5.5,0.6,8.3L21.2,136.4L21.2,136.4z M23.7,128.9
			c-0.1,0,0-0.2,0.1-0.1C23.7,128.8,23.7,128.8,23.7,128.9z M23.7,130.4c0-0.1,0.1-0.1,0.2-0.1C23.9,130.4,23.8,130.4,23.7,130.4z
			 M23.9,131.7C24.1,131.6,23.8,131.9,23.9,131.7L23.9,131.7z M24,133C24.2,133.1,23.8,133.1,24,133L24,133z M24.1,134.2
			C24.3,134.3,23.9,134.3,24.1,134.2L24.1,134.2z M24.2,135.3C24.3,135.4,24.2,135.4,24.2,135.3C24,135.3,24.1,135.3,24.2,135.3z
			 M24.2,136.3C24.4,136.4,24,136.4,24.2,136.3L24.2,136.3z M25.3,130c0.1-0.2,0,0.1-0.2,0.1c-0.2,0.1-0.5,0.2-0.8,0.3
			C24.6,130.1,24.9,130,25.3,130z M25.2,130.5h-0.6C24.6,130.4,25.1,130.5,25.2,130.5C25.3,130.5,25.3,130.5,25.2,130.5z M25.4,131
			c-0.3,0.1-0.6-0.2-1-0.2C24.7,130.7,25,131,25.4,131z M25.3,131.4c-0.3,0.1-0.5,0.2-0.8,0.3C24.7,131.4,25,131.4,25.3,131.4
			C25.4,131.3,25.4,131.3,25.3,131.4z M25.1,131.9h-0.3c-0.1-0.1,0.3,0,0.4-0.1C25.4,131.8,25.2,131.9,25.1,131.9z M24.5,132
			c0.3,0.1,0.6,0.2,0.9,0.3c-0.1,0.1-0.3-0.1-0.5-0.1C24.8,132.1,24.5,132.2,24.5,132z M24.7,134.3c-0.1-0.1,0.3,0,0.4-0.1
			c0.1,0,0,0.1-0.1,0.1H24.7z M24.9,134.5C24.8,134.5,24.9,134.5,24.9,134.5C25,134.5,25,134.5,24.9,134.5z M25.1,134.6
			c0.1-0.2,0.2,0.1,0.3,0C25.5,134.7,25.2,134.6,25.1,134.6z M25.1,134.9C25.3,135,24.9,135,25.1,134.9L25.1,134.9z M25.3,135.3
			c0.2,0.1-0.1,0.1-0.2,0.1C24.9,135.3,25.2,135.3,25.3,135.3z M25.4,134.9C25.1,135,25.6,134.8,25.4,134.9L25.4,134.9z M24.9,134
			C24.8,134,24.8,133.9,24.9,134c0,0,0-0.1,0.1-0.1c0.1,0,0.1,0,0.1-0.1c0.2,0,0.2-0.1,0.4-0.1C25.3,133.9,25.1,133.9,24.9,134z
			 M24.7,133.7c-0.1,0,0-0.1,0.1-0.1C24.9,133.7,24.8,133.7,24.7,133.7z M25.1,133.6C25.1,133.7,25.1,133.7,25.1,133.6
			C24.9,133.7,25,133.6,25.1,133.6z M25.3,133.7c-0.1,0,0-0.1,0.1-0.1C25.5,133.7,25.3,133.7,25.3,133.7z M25.1,133.1
			c-0.2-0.1,0.2-0.1,0.3-0.1C25.5,133.1,25.1,133.1,25.1,133.1z M25.1,132.7c-0.1,0,0.2-0.1,0.3-0.1
			C25.3,132.7,25.2,132.7,25.1,132.7z M24.6,132.8c0.1,0,0.1-0.1,0.3-0.1C25.1,132.6,24.8,132.9,24.6,132.8
			C24.6,132.9,24.5,132.8,24.6,132.8z M25.1,133.4c0.1,0.1-0.5,0-0.5-0.2C24.8,133.3,24.9,133.4,25.1,133.4z M24.7,134
			C24.8,134,24.7,134,24.7,134C24.6,134,24.6,134,24.7,134z M24.7,134.4C24.8,134.5,24.8,134.5,24.7,134.4
			C24.6,134.5,24.7,134.4,24.7,134.4z M25,135c0,0.1-0.1,0-0.1,0.1C24.5,135.1,24.9,135,25,135z M24.8,135.3
			C24.7,135.3,24.8,135.3,24.8,135.3C24.9,135.3,24.9,135.3,24.8,135.3z M24.9,135.5c0.2,0,0.3,0.1,0.5,0.1c0.1,0-0.1,0.1-0.1,0
			C25.1,135.7,25,135.6,24.9,135.5C24.6,135.6,24.9,135.4,24.9,135.5z M24.9,136.3C25.1,136.3,24.6,136.3,24.9,136.3L24.9,136.3z
			 M24.9,136C25.1,136.1,24.6,136.1,24.9,136L24.9,136z M24.9,135.8c-0.2,0,0.1-0.1,0.2-0.1C25.2,135.8,25,135.8,24.9,135.8z
			 M25.1,136.3C25.3,136.3,24.9,136.3,25.1,136.3L25.1,136.3z M25,136c-0.1,0,0.2-0.1,0.3-0.1C25.2,136,25.1,136,25,136z
			 M25.4,135.9C25.6,135.9,25.2,135.9,25.4,135.9L25.4,135.9z M25.4,133.5c0.1,0,0.4,0.2,0.1,0.3c0-0.1,0-0.1,0.1-0.1
			C25.5,133.6,25,133.5,25.4,133.5z M25.6,135.9c-0.1,0-0.1-0.1-0.1-0.2c0,0,0.1,0.1,0.1,0.1V135.9z M25.6,134.8
			c-0.1,0-0.1-0.1-0.1-0.2c0,0,0.1,0.1,0.1,0.1V134.8z M26.9,136.4h-0.5c0.5-1.5,1-2.8,1.8-4.1c-0.2-0.1-0.2,0.3-0.3,0.4
			c-0.1,0.1-0.2,0.4-0.3,0.5c-0.4,1.1-0.9,2.1-1.3,3.2h-0.2c0-0.2,0.1-0.5-0.1-0.5c0-0.2,0.2-0.1,0.2-0.3c0-0.7,0-1.3-0.1-1.8
			c-0.2-0.2,0.1-0.2-0.1-0.4c0.1-0.2,0-0.3,0.1-0.6c0-2.2-0.1-4.6-0.1-6.9c0.5,0,0.9-0.1,1.5-0.1c0.1,0.1,0,0.5,0.3,0.4
			c0.2,0,0-0.1,0.1-0.1c0.1,0.1,0.2-0.3,0.3-0.4c1.3-0.1,2.7-0.1,4.1-0.1c-0.7,1.1-1.5,2.1-2.2,3.2c-0.7,1.1-1.4,2.2-2,3.4
			c0.1,0.1,0.1-0.1,0.2-0.2c0.2-0.3,0.5-0.7,0.7-1.2c0.4-0.4,0.5-0.9,0.9-1.3c0-0.1-0.1-0.1,0-0.2c0.1,0,0.1-0.1,0-0.1
			c0.3-0.2,0.5-0.5,0.5-0.8c0.1-0.1,0.2-0.1,0.2-0.2c0.1-0.1,0-0.2,0.2-0.1c0-0.1,0-0.2,0.1-0.3c0.7-0.7,1.1-1.7,1.9-2.4
			c0.6,0,1-0.1,1.6-0.1c-2.3,2.8-4.7,5.5-6.4,8.9c-0.3,0.5-0.5,1.2-0.8,1.7C27,136.3,26.9,136.4,26.9,136.4z M26,135.5
			C26.2,135.6,25.8,135.6,26,135.5L26,135.5z M26.4,117.6C26.5,117.7,26.4,117.7,26.4,117.6C26.3,117.7,26.4,117.6,26.4,117.6z
			 M27,117.6c0.2,0-0.1,0.1-0.2,0.1C26.7,117.7,27,117.6,27,117.6z M28.1,119.8c2.3,0.1,5.2-0.2,7.6-0.1c0.4,0,0.8,0.1,1.1,0.3
			c0,0,0.1,0.1,0.2,0.1c-0.5,0.7-1.1,1.3-1.7,1.9c-0.4,0.1-0.8-0.1-1.1-0.1c-0.2,0-0.5,0.1-0.7,0.1c-0.7,0-1.3,0-2,0
			c-1.1,0-2.2-0.1-3.3-0.1c-0.2-0.5,0-1.1,0.1-1.6C28.3,120.1,28,119.9,28.1,119.8z M28.1,117.6c0.1-0.1,0.4,0,0.5-0.1
			C28.6,117.8,28.2,117.7,28.1,117.6z M29.3,117.6C29.4,117.8,29.1,117.5,29.3,117.6L29.3,117.6z M30,117.6
			C30.1,117.8,29.8,117.5,30,117.6L30,117.6z M31.4,117.6c0,0.3,0.1,0.6,0.1,1c-0.2-0.1-0.4-0.3-0.6-0.4
			C31,117.9,31.1,117.7,31.4,117.6z M31,117.6C31.1,117.5,30.8,117.8,31,117.6L31,117.6z M31.1,118.6c0-0.1-0.2,0-0.2-0.2
			C31.1,118.4,31.1,118.5,31.1,118.6z M30.5,118.4c0.2,0,0.2,0.1,0.4,0.2c-0.1,0.1-0.3,0-0.5,0.1c-0.1,0,0-0.1,0.1-0.1
			C30.5,118.5,30.4,118.5,30.5,118.4z M30.7,118.2c0,0,0.1,0.1,0.2,0.1v0.2C30.8,118.4,30.7,118.3,30.7,118.2z M30.6,117.8
			c-0.2,0.1-0.2-0.1-0.4-0.1c0.1-0.1,0.4,0,0.6-0.1C30.8,117.7,30.7,117.7,30.6,117.8z M32.9,118.1c0-0.3,0.3-0.3,0.5-0.5
			c0.1,0.1,0.1,0.6,0.2,1C33.3,118.4,33.2,118.2,32.9,118.1z M33.3,118.5v0.1h-0.1c0,0,0-0.1-0.1-0.1v-0.1L33.3,118.5
			C33.2,118.5,33.2,118.5,33.3,118.5z M32.8,118.3c0.1-0.1,0.2,0,0.2,0.2C32.9,118.4,32.9,118.3,32.8,118.3z M33,118.6
			c-0.1,0.1-0.4,0-0.7,0c0.1-0.1,0.2-0.2,0.3-0.2C32.8,118.4,32.8,118.6,33,118.6z M32.3,117.6c0.1-0.1,0.4,0,0.6-0.1
			C32.8,117.8,32.5,117.8,32.3,117.6z M32.4,118c-0.1-0.2-0.4-0.2-0.4-0.4c0.1,0,0.2,0.1,0.2,0.2C32.3,117.7,32.5,117.8,32.4,118z
			 M32.3,118c-0.1,0.3-0.3,0.4-0.6,0.6c0-0.4-0.1-0.6-0.1-1C31.9,117.7,32.1,117.9,32.3,118z M34.5,118.1c-0.2,0.2-0.3,0.4-0.6,0.4
			c0-0.3-0.1-0.7-0.1-0.9C34.1,117.8,34.2,118,34.5,118.1z M34,117.6c0.1-0.1,0.3,0,0.3,0.2C34.1,117.7,34.1,117.6,34,117.6z
			 M34.9,118.2c0.2,0.1,0.3,0.2,0.5,0.3c-0.1,0.1-0.2,0-0.2-0.2C35,118.4,34.9,118.4,34.9,118.2z M35.1,118.5c0,0.1,0,0.1-0.1,0.1
			c-0.2,0-0.2,0-0.4,0c-0.1,0-0.1,0-0.1,0.1c-0.1-0.1,0.1-0.3,0.3-0.3C34.9,118.3,34.9,118.6,35.1,118.5z M35,118.1
			c0.1-0.2,0.2-0.5,0.5-0.5c0,0.3,0.1,0.6,0.1,0.9C35.4,118.4,35.3,118.2,35,118.1z M34.8,117.8c-0.3,0.1-0.2-0.2-0.4-0.2
			c0.1-0.1,0.4,0,0.6-0.1C35,117.6,34.9,117.7,34.8,117.8z M34.6,117.9c-0.2,0.2-0.3-0.1-0.3-0.2C34.4,117.6,34.4,117.9,34.6,117.9z
			 M36.5,118.1c-0.1,0.2-0.3,0.3-0.5,0.4c0-0.3-0.1-0.6-0.1-0.9C36.2,117.7,36.3,118,36.5,118.1z M36.1,117.5
			C36.2,117.7,35.9,117.4,36.1,117.5L36.1,117.5z M35.7,106.8c0-0.5-0.3-0.9-0.2-1.3c-0.2-0.2-0.3-0.6-0.3-1.1
			c-0.2-0.6-0.5-1.3-0.4-2c-0.2-0.2-0.2-0.6-0.3-0.8c0-0.4-0.2-0.6-0.1-0.9c1.4,5.2,2.7,10.5,4.6,15.2c-0.3-0.1-0.2,0.2-0.4,0.2
			c-0.1-0.3-0.2-0.5-0.3-0.9c-0.5-1.1-0.7-2.4-1.2-3.5c-0.1-0.6-0.4-1.2-0.5-1.8c-0.2-0.6-0.4-1.2-0.5-1.8
			C35.9,107.7,35.9,107.2,35.7,106.8z M36,108.7C35.9,108.4,36.1,108.9,36,108.7L36,108.7z M38.8,120C39,120.1,38.6,120.1,38.8,120
			L38.8,120z M38.9,123.3c0,0,0-0.1-0.1-0.1C38.9,123.2,38.8,123.3,38.9,123.3z M38.2,123.9c-0.1,0-0.2-0.2-0.4-0.2
			c0.2-0.2,0.3-0.5,0.6-0.6c0.1,0.3,0.1,0.7,0.2,1.1C38.4,124.1,38.2,124,38.2,123.9z M38.5,124.4C38.3,124.6,38.3,124.2,38.5,124.4
			L38.5,124.4z M38.3,124.2c-0.1,0.1-0.2,0-0.2-0.2C38.2,124.1,38.2,124.2,38.3,124.2z M36.6,123.2c0.2,0,0.5,0.4,0.7,0.5
			c-0.2,0.2-0.3,0.5-0.6,0.6c0-0.3-0.2-0.7,0-0.9C36.7,123.4,36.7,123.4,36.6,123.2z M36,123.9c0.1-0.1,0.2-0.2,0.3-0.3
			c0.2,0.2,0,0.4,0.2,0.7C36.2,124.1,36,124.1,36,123.9z M36.3,124.4c0,0.1-0.1,0-0.2,0C36.1,124.3,36.2,124.4,36.3,124.4z
			 M35.1,123.7c-0.1,0.3-0.4,0.4-0.5,0.6c-0.1-0.3-0.2-0.7-0.1-1.1C34.7,123.4,34.8,123.6,35.1,123.7z M34.7,123.2
			c0-0.1,0.2,0,0.2,0.1C34.7,123.4,34.8,123.2,34.7,123.2z M36.1,123.5c-0.2,0-0.2,0.4-0.5,0.2c0.1-0.2,0.3-0.4,0.6-0.6v0.2
			c-0.1,0.1-0.1,0-0.2,0C36,123.4,36.1,123.4,36.1,123.5z M35.4,123.4c-0.3,0-0.3-0.3-0.5-0.3c0.2-0.2,0.7,0.1,0.9-0.1
			C35.8,123.2,35.5,123.3,35.4,123.4z M35.1,123.6c-0.1,0-0.1-0.1-0.2-0.1C35,123.3,35.2,123.5,35.1,123.6z M35.5,124.1
			c-0.1,0.2-0.2,0.4-0.6,0.4C35.1,124.3,35.1,124,35.5,124.1z M35.9,124.4c-0.1,0.1-0.3,0-0.5,0.1C35.5,124.2,35.8,124.2,35.9,124.4
			z M35.9,124.2c0.1-0.2,0.1,0.1,0.2,0.1C36,124.4,35.9,124.2,35.9,124.2z M35.7,122c-0.2,0,0.2-0.3,0.3-0.4
			c0.1-0.2,0.3-0.3,0.4-0.4c0.2-0.4,0.6-0.6,0.7-1c0.3,0.1,0.4,0.5,0.7,0.6C37.5,121.7,36.7,121.9,35.7,122z M37.3,118.6
			c-0.2,0.1-0.6,0-0.8,0.1c0.1-0.2,0.3-0.2,0.4-0.3C37,118.4,37,118.6,37.3,118.6z M37,118.2c0.1,0,0.2,0,0.2,0.2c0,0,0,0,0.1-0.1
			C37.3,118.4,36.9,118.4,37,118.2z M37.3,118.4c0.1,0,0.1,0.1,0.2,0.1C37.4,118.6,37.2,118.5,37.3,118.4z M37.6,118.6
			C37.8,118.7,37.4,118.7,37.6,118.6L37.6,118.6z M37.1,123.4c-0.2,0-0.1-0.2-0.3-0.2C36.9,123.1,37.1,123.2,37.1,123.4z
			 M36.8,123.1c0,0,0-0.1-0.1-0.1C36.8,123,36.8,123.1,36.8,123.1z M37.1,123.4c0.1,0,0.1,0.1,0.2,0.1
			C37.3,123.6,37.1,123.5,37.1,123.4z M37.5,124c0.3,0,0.3,0.3,0.6,0.3c0,0.2-0.2-0.1-0.3,0.1c-0.3,0-0.5-0.1-0.7,0
			C37.2,124.3,37.4,124.2,37.5,124z M37.8,123.9c0-0.1,0.1,0.1,0.2,0.1C37.9,124.1,37.8,123.9,37.8,123.9z M38.2,118.3
			C38.4,118.3,38,118.3,38.2,118.3L38.2,118.3z M38.4,120.8c0.1,0,0,0.1,0.1,0.1C38.4,120.9,38.5,120.8,38.4,120.8z M36.3,109.7
			c0,0.1,0.1,0.1,0.1,0.2c0.1,0.1,0.1,0.3,0.1,0.4c0.1,0.2,0.2,0.6,0.3,0.9c0.2,0.5,0.3,1.2,0.6,1.7c0.2,0.9,0.5,1.7,0.8,2.6
			c0,0.3,0.3,0.6,0.2,0.8c-0.2,0.2-0.2-0.1-0.3-0.2c0-0.2-0.1-0.2-0.1-0.4c-0.3-0.8-0.5-1.7-0.8-2.6c-0.3-1.1-0.7-2.3-1-3.5
			C36.3,109.4,36.2,109.8,36.3,109.7z M38,123c-0.1,0.2-0.2,0.3-0.4,0.4c-0.2-0.1-0.3-0.3-0.6-0.3C37.3,122.9,37.9,123.1,38,123z
			 M37.7,120c0-0.1,0.1-0.1,0.1-0.2c0.1,0,0.1,0.1,0.1,0.2C37.8,120.1,37.8,120,37.7,120z M37.1,117.9c0.2-0.1,0.2-0.3,0.5-0.3
			c0.1,0.3,0.1,0.6,0.2,0.9C37.5,118.3,37.2,118.2,37.1,117.9z M36.8,117.8c-0.2,0-0.3-0.2-0.4-0.2c0.1-0.1,0.5,0,0.7-0.1
			C37.1,117.6,37,117.7,36.8,117.8z M36.6,117.9c-0.1,0-0.1-0.2-0.2-0.1c0,0,0.1-0.1,0.1-0.1c-0.2,0.1-0.2,0-0.3-0.2
			C36.3,117.6,36.6,117.7,36.6,117.9z M33.8,124.1c0-0.2,0.2-0.2,0.2-0.3c0.1,0.1,0.1,0.4,0.1,0.6C34,124.3,34,124.1,33.8,124.1z
			 M33.9,124.4C34.1,124.5,33.7,124.5,33.9,124.4L33.9,124.4z M33.7,124c-0.2,0-0.1-0.2-0.3-0.2c0.1-0.3,0.4-0.4,0.6-0.6
			C34.1,123.6,33.9,123.7,33.7,124z M33.8,124.3C33.9,124.5,33.6,124.2,33.8,124.3L33.8,124.3z M32.8,123.8
			c-0.2,0.2-0.3,0.5-0.6,0.6c-0.1-0.4,0-0.8-0.1-1.2C32.4,123.3,32.6,123.6,32.8,123.8z M32.4,123.2c0-0.2,0.1,0.1,0.2,0.1
			C32.7,123.4,32.5,123.3,32.4,123.2z M32.7,123.2c0.2-0.1,0.6-0.2,0.9-0.1c-0.1,0.1-0.2,0.2-0.3,0.3
			C32.9,123.5,32.9,123.3,32.7,123.2z M32.9,123.6c0,0.1-0.1-0.1-0.2-0.1C32.8,123.3,32.9,123.6,32.9,123.6z M33.4,124.2
			c0,0.2-0.1,0.1-0.1,0.2h-0.6C32.8,124.3,33.2,124,33.4,124.2z M33.4,124c0-0.1,0.2,0,0.2,0.1C33.4,124.1,33.4,124,33.4,124z
			 M31.2,123.8c0.1-0.3,0.4-0.4,0.6-0.6c0.2,0.3,0.1,0.8,0.2,1.2C31.6,124.2,31.4,124,31.2,123.8z M31.5,124.4
			c-0.1,0-0.2-0.1-0.2-0.2C31.5,124.2,31.6,124.3,31.5,124.4z M30.6,123.8c0,0.1,0,0.1-0.1,0.2c-0.3,0.1-0.3,0.4-0.6,0.4
			c0-0.4-0.1-0.6-0.1-1.2C30.2,123.4,30.4,123.6,30.6,123.8z M30.3,123.3C30.4,123.5,30.1,123.1,30.3,123.3L30.3,123.3z M30.9,123.5
			c-0.3,0-0.3-0.2-0.5-0.3c0.2-0.2,0.5,0,0.8-0.1C31.2,123.3,31.1,123.4,30.9,123.5z M31.2,124c0,0.1-0.1,0-0.2,0
			C31.1,123.9,31.2,124,31.2,124z M30.6,123.5C30.7,123.7,30.4,123.4,30.6,123.5L30.6,123.5z M30.8,124.1c0.2,0.1,0.5,0.2,0.5,0.4
			h-0.9C30.5,124.3,30.7,124.2,30.8,124.1z M28.5,123.2H29c-0.1,0.2-0.2,0.4-0.5,0.3c0-0.1,0-0.3-0.2-0.2
			C28.2,123.1,28.6,123.4,28.5,123.2z M28.6,124.1c0.2,0,0.2,0.2,0.4,0.3c-0.1,0.1-0.4,0-0.6,0.1C28.3,124.3,28.5,124.2,28.6,124.1z
			 M28.9,124.1C28.7,124,29.2,124.2,28.9,124.1L28.9,124.1z M28.9,123.9c0.2-0.2,0.3-0.6,0.7-0.6c0,0.4,0,0.8,0.1,1.2
			C29.3,124.3,29.2,124,28.9,123.9z M27,136.4L27,136.4C27,136.4,27,136.4,27,136.4C27.1,136.3,27.1,136.4,27,136.4z M27.1,136.4
			c0-0.1,0.1-0.1,0.1-0.2c0.1-0.1-0.2-0.1-0.1-0.2c0.2-0.1,0-0.1,0-0.1c0-0.2,0.3-0.1,0.3-0.3c-0.2,0-0.1-0.1,0.1-0.1
			c-0.1-0.1-0.1,0-0.1-0.2c0-0.1,0.2,0,0.2-0.2c0.1-0.1-0.1,0,0-0.2c0.2-0.2,0.2-0.3,0.3-0.5c0.1-0.2,0.3-0.4,0.4-0.7
			c0.3-0.4,0.5-0.9,0.8-1.2c0.5-0.9,1.1-1.7,1.7-2.5c0.5-0.8,1.2-1.5,1.8-2.3c0.4-0.3,0.6-0.7,0.9-1.1c0.4-0.3,0.5-0.8,1-1
			c0.9-0.1,2.1-0.1,3-0.2c-0.2,0.3-0.4,0.5-0.7,0.8c-1.8,1.8-3.4,3.7-5,5.5c-1.3,1.5-2.5,3-3.5,4.7L27.1,136.4L27.1,136.4z
			 M40,125.9c-0.1,0.4-0.6,0.4-0.7,0.8c-0.9,0.7-1.6,1.5-2.4,2.2c-1.1,1-2.1,2-3.1,3.1c-1.4,1.4-2.7,2.9-3.9,4.5h-1.4
			c1.4-2.3,3.1-4.2,4.8-6.2c0.3-0.1,0.4-0.5,0.6-0.6c0.2-0.2,0.4-0.4,0.6-0.7c0.3-0.1,0.3-0.5,0.6-0.6c0.2-0.2,0.4-0.5,0.6-0.7
			c0.2-0.2,0.4-0.3,0.6-0.5c0.2-0.2,0.3-0.4,0.6-0.6c0.3-0.4,0.7-0.7,1.1-1.1C38.7,125.5,39.6,125.4,40,125.9z M39.5,124.1
			C39.7,124.1,39.3,124.1,39.5,124.1L39.5,124.1z M34.7,100.6c0.8,2.6,1.4,5.6,2.3,8.1c0.4,1.3,0.9,2.6,1.3,3.9
			c0.2,0.6,0.5,1.2,0.7,1.9c0.2,0.3,0.2,0.6,0.4,1c0.1,0.3,0.3,0.6,0.3,0.9c-0.4-0.2-0.5-0.7-0.6-1.1c-0.2-0.3-0.3-0.7-0.4-1.1
			c-0.2-0.4-0.4-0.7-0.4-1.2c-0.5-1.3-0.9-2.7-1.3-4.1c-0.4-1.4-0.8-2.8-1.2-4.2c-0.2-0.9-0.6-1.9-0.7-2.8c-0.1-0.1-0.1-0.2-0.2-0.4
			c0-0.1-0.1-0.1-0.1-0.2c0.1,0,0-0.2,0-0.1c0-0.2-0.1-0.5-0.2-0.8C34.6,100.3,34.6,100.6,34.7,100.6z M34.5,100.1
			c0.1,0,0,0.1,0.1,0.2C34.5,100.3,34.5,100.2,34.5,100.1z M34.5,100.1c-0.1,0,0-0.1-0.1-0.2C34.5,99.9,34.5,100,34.5,100.1z
			 M34.2,99.2c0,0.1,0,0.1,0.1,0.2c0,0.1,0,0.2,0.1,0.2c0,0.2,0.1,0.2,0.1,0.4c-0.1,0,0-0.1-0.1-0.1C34.3,99.7,34.3,99.5,34.2,99.2
			C34.2,99.2,34.2,99.2,34.2,99.2z M34.3,100.6c-0.2-0.4-0.3-0.9-0.4-1.5C34.1,99.6,34.2,100.1,34.3,100.6z M30.5,82.1
			c0,0.1,0,0.2,0,0.4c0.3,1.4,0.5,3.1,0.7,4.4c1.3,7.3,2.7,14.7,4.4,21.5c0.6,2.4,1.3,4.7,2,7c0.1,0.3,0.3,0.7,0.3,0.9
			c-3.2,0.1-6.6-0.1-9.9-0.1c-0.3,0,0-0.5-0.2-0.6c-0.5-0.2-0.5,0.3-0.7,0.6c-0.5,0-0.9,0.1-1.5,0.1c-0.2-3.4-0.2-7-0.4-10.3
			c0-0.1,0-0.3-0.1-0.4c0-0.1,0.1-0.5-0.2-0.4c0.2-0.1,0.1-0.1,0.2-0.3c0.1-0.3,0-0.8-0.1-1.2c0-0.8,0-1.5-0.1-2.3
			c-0.1-1.4-0.1-2.7-0.2-3.7C25,97.8,25,97.9,25,98c0,0.3-0.1-0.1-0.1-0.2c0-0.2,0-0.3,0.2-0.4c-0.1,0-0.1-0.2-0.1-0.4
			c0.1,0,0,0.2,0.1,0.2c-0.1-4.8-0.3-10-0.4-15L30.5,82.1L30.5,82.1z M24.9,119.3L24.9,119.3C24.9,119.3,24.9,119.3,24.9,119.3
			C24.9,119.3,24.9,119.3,24.9,119.3z"/>
	</g>
</g>
<g>
	<path fill="#E4BA27" d="M71.2,29.9L96,40.5V42L71.2,52.5v-1.9l8.2-3.5V35.3l-8.2-3.5V29.9z M93.9,41.2l-13-5.5v10.9L93.9,41.2z"/>
	<path fill="#E4BA27" d="M71.2,56.4H96v1.8H71.2V56.4z"/>
	<path fill="#E4BA27" d="M71.2,87.2h21.4l-16.7-9.8v-1.1l16.7-9.8H71.2v-1.8H96v1.8L78.3,76.9L96,87.2V89H71.2V87.2z"/>
	<path fill="#E4BA27" d="M96,123.9H71.2v-1.8h11.9v-15.6H71.2v-1.8H96v1.8H84.7v15.6H96V123.9z"/>
	<path fill="#E4BA27" d="M71.2,130.4H96v1.8H71.2V130.4z"/>
	<path fill="#E4BA27" d="M75.1,157.1c-2.7-2.4-4-5.2-4-8.3c0-1.7,0.4-3.2,1.1-4.7c0.7-1.4,1.7-2.7,2.9-3.7c1.2-1,2.5-1.8,4.1-2.4
		c1.5-0.6,3-0.9,4.6-0.9c1.6,0,3.2,0.3,4.7,0.9c1.5,0.6,2.9,1.4,4,2.4c1.2,1,2.1,2.2,2.8,3.6c0.7,1.4,1,2.9,1,4.6
		c0,1.3-0.1,2.4-0.4,3.4c-0.3,1-0.6,1.9-1.1,2.6c-0.5,0.8-1,1.4-1.7,2c-0.7,0.6-1.4,1.1-2.2,1.4l-0.9-1.4c1.6-0.9,2.8-2,3.5-3.4
		c0.7-1.4,1.1-3,1.1-4.7c0-1.5-0.3-2.8-0.9-4c-0.6-1.2-1.5-2.2-2.5-3s-2.2-1.5-3.5-1.9c-1.3-0.4-2.6-0.7-4-0.7
		c-1.5,0-2.9,0.3-4.2,0.8c-1.3,0.5-2.5,1.2-3.5,2.1c-1,0.9-1.8,2-2.4,3.2c-0.6,1.2-0.9,2.5-0.9,3.9c0,1.5,0.3,2.9,1,4.3
		c0.7,1.3,1.8,2.6,3.3,3.9h4.8v-5.6h1.4v7.2H71.2v-1.6H75.1z"/>
	<path fill="#E4BA27" d="M96,183.3H71.2v-1.8h11.9v-15.6H71.2v-1.8H96v1.8H84.7v15.6H96V183.3z"/>
	<path fill="#E4BA27" d="M71.2,218.8h17.9l-13.5-7.4v-2.2l13.5-7.4H71.2V198H96v4.2l-15.2,8.2l15.2,8.2v4.2H71.2V218.8z"/>
	<path fill="#E4BA27" d="M71.2,225.8l24.8,10v3.2l-24.8,10v-4.2l6.7-2.7v-9.6l-6.7-2.6V225.8z M91.7,237.4l-10.8-4.1v8.1L91.7,237.4
		z"/>
	<path fill="#E4BA27" d="M74.3,269.1c-2.2-2-3.2-4.4-3.2-7.1c0-1.6,0.4-3.1,1.1-4.5c0.7-1.4,1.7-2.6,2.8-3.7c1.2-1,2.5-1.9,4.1-2.4
		c1.5-0.6,3.1-0.9,4.7-0.9c1.7,0,3.3,0.3,4.8,0.9c1.5,0.6,2.8,1.4,4,2.4c1.1,1,2,2.3,2.7,3.7c0.7,1.4,1,3,1,4.6
		c0,2.3-0.5,4.3-1.5,5.9c-1,1.6-2.3,2.8-3.9,3.6l-2.2-3c1.4-0.7,2.4-1.6,3-2.7c0.7-1.2,1-2.4,1-3.8c0-1.1-0.2-2.2-0.8-3.1
		c-0.5-0.9-1.2-1.7-2-2.4c-0.8-0.7-1.8-1.2-2.9-1.5c-1.1-0.4-2.2-0.5-3.4-0.5c-1.3,0-2.4,0.2-3.5,0.6c-1.1,0.4-2,0.9-2.9,1.7
		c-0.8,0.7-1.5,1.5-1.9,2.5c-0.5,1-0.7,2-0.7,3.1c0,2.5,1.2,4.8,3.7,6.8h2.6v-5.2h2.9v8.5H71.2v-3.3H74.3z"/>
	<path fill="#E4BA27" d="M71.2,274.4l24.8,10v3.2l-24.8,10v-4.2l6.7-2.7v-9.6l-6.7-2.6V274.4z M91.7,286l-10.8-4.1v8.1L91.7,286z"/>
	<path fill="#E4BA27" d="M74.2,298.7l18.3,15.1v-14.7H96v19.2h-3l-18.3-14.7v14.7h-3.5v-19.7H74.2z"/>
	<path fill="#E4BA27" d="M71.2,322.3H96v3.9H71.2V322.3z"/>
	<path fill="#E4BA27" d="M88.7,335.7H71.2v-3.9H96v3.1l-17.9,14.2H96v3.9H71.2v-3.2L88.7,335.7z"/>
	<path fill="#E4BA27" d="M74.7,375.6h-3.5v-17H96v16.7h-3.5v-12.8h-7.1v11.1h-3.2v-11.1h-7.6V375.6z"/>
</g>
</svg>
