<?xml version="1.0" encoding="utf-8"?>
<!-- Generator: Adobe Illustrator 18.0.0, SVG Export Plug-In . SVG Version: 6.00 Build 0)  -->
<!DOCTYPE svg PUBLIC "-//W3C//DTD SVG 1.1//EN" "http://www.w3.org/Graphics/SVG/1.1/DTD/svg11.dtd">
<svg version="1.1" id="Back" xmlns="http://www.w3.org/2000/svg" xmlns:xlink="http://www.w3.org/1999/xlink" x="0px" y="0px"
	 viewBox="0 336 800 186" enable-background="new 0 336 800 186" xml:space="preserve">
<g>
	<g>
		<path fill="#FFFFFF" d="M643.5,354.3c0-0.6-0.6-1.3-1.3-1.3c-0.3,0-0.3,0-0.6,0.3l-1.3-2.2c3.2-2.5,5.7-5.4,5.7-5.4
			s1.3-1.9,0.6-2.5c-0.6-0.6-2.2,0-3.8,0c-1.9,0-7.9,5.4-7.9,5.4c0-1-1-1.6-1.9-1.6s-1.3,1.6-1.3,1.6l-14.6-2.9l-0.3,0.6l4.8,1.9
			c0,0.3,0.3,0.6,0.6,0.6h0.3l1,0.3l0,0c0,0.3,0.3,0.6,0.6,0.6c0,0,0.3,0,0.3-0.3l1.3,0.3c0,0.3,0.3,0.6,0.6,0.6h0.3l1.3,0.6l0,0
			c0,0.3,0.3,0.6,0.6,0.6c0,0,0.3,0,0.3-0.3l2.2,1l-6.7,5.4l-3.2-3.2l-1,1.3l1,2.5l-5.1-0.6l-0.3,0.6l5.1,2.2c0,0-0.6,1.3,0,1.9
			c0.6,0.3,2.2-0.6,2.2-0.6l3.8,2.5l0.6-1l-1.3-2.9l10.5-5.4l1,0.6c0,0,0,0,0,0.3c0,0.3,0.3,0.6,0.6,0.6c0,0,0.3,0,0.3-0.3l1,0.6
			l0,0c0,0.3,0.3,0.6,0.6,0.6c0,0,0,0,0.3,0l1,0.6l0,0c0,0.3,0.3,0.6,0.6,0.6c0,0,0,0,0.3,0l1.3,1l0,0c0,0.3,0.3,0.6,0.6,0.6l0,0
			l3.2,2.2l0.3-1.6l-3.2-4.8C643.2,355.2,643.5,354.9,643.5,354.3z"/>
	</g>
</g>
<g>
	<path fill="#FFFFFF" d="M364.8,460.3c0-0.3,0-0.3,0-0.6c-0.6,0.3,0,0-0.3-0.6C363.5,459.4,363.5,461,364.8,460.3z"/>
	<path fill="#FFFFFF" d="M331.6,458.1c0,0,0.1,0,0.2,0c0-0.3-1.6-0.3-1.9,0c0,0,0,0,0,0c0.4,0,0.8,0,1.3,0
		C331.3,458.1,331.4,458.1,331.6,458.1z"/>
	<path fill="#FFFFFF" d="M364.4,447.9c0.3-0.3,0.6-1.6-0.3-1.6c0,0.3,0,0.6,0.3,0.6c0,0.3-0.3,0-0.6,0
		C363.5,447.6,364.4,447.3,364.4,447.9z"/>
	<path fill="#FFFFFF" d="M364.8,449.2v-0.3c-0.3,0-0.6,0-1,0c0,0.3,0,1,0,1.3C364.8,450.5,364.4,449.5,364.8,449.2z"/>
	<path fill="#FFFFFF" d="M363.8,463.8c0,1,0.3,1.6-0.3,2.5c0,0.3,0,0.3,0,0.6c1.6,0.6,0,0,1-0.3c0.6-0.6,0-1,0.3-1.6
		c-0.6-0.3-0.3,0,0-1C364.1,464.4,364.4,463.8,363.8,463.8z"/>
	<path fill="#FFFFFF" d="M364.4,469.2c-0.3,0-0.6,1.3-0.3,1.3s0-0.3,0.3-0.3c-0.3,0.6-1.3,1.9-0.3,2.2c0.3,0,0.3,0,0.3,0
		c0.3-0.3-1-0.6-0.3-1c0,0.3,0.6,0.3,0.6,0C364.4,470.2,365.1,469.8,364.4,469.2z"/>
	<path fill="#FFFFFF" d="M364.8,450.2c-1,0.6-1,1-0.6,2.2c0.3-0.3,0.3-0.6,0.6-1C364.1,450.5,365.1,451.4,364.8,450.2z"/>
	<path fill="#FFFFFF" d="M364.8,454c0-0.3-0.3-0.3-0.6-0.3c-0.6,0.3,0,1-0.3,1.3c0.6,0.6-0.3,1.3,0.3,1.9c0-0.6,0.6-0.3,0.6-0.6
		c-0.3-0.6,0-0.6,0-1.3c0,0-0.3,0.3-0.3,0C364.8,454.9,364.4,454,364.8,454z"/>
	<path fill="#FFFFFF" d="M371.7,467.9c-0.6,0.3,0,0.6-0.3,1.6C372.1,469.2,371.7,468.6,371.7,467.9z"/>
	<path fill="#FFFFFF" d="M364.1,440.3c-0.3,0.3,0,0.3,0,1c0.3,0,0.3-0.3,0.6-0.3C364.8,440.6,364.8,440.3,364.1,440.3z"/>
	<path fill="#FFFFFF" d="M370.5,473.3c0.3-1,0-1.9,0.3-2.9C370.2,469.8,370.2,472.7,370.5,473.3z"/>
	<path fill="#FFFFFF" d="M365.7,474.9c-0.2,0.2-0.5,0.4-0.6,0.7c0.1,0.3,0.3,0.5,0.5,0.6c0.4,0,0.7,0,1.1,0c0-0.3,0-0.3,0-0.6
		c0-0.2,0-0.4,0-0.6c-0.3,0.1-0.6,0.2-0.9,0.3C365.7,475.1,365.7,475,365.7,474.9z"/>
	<path fill="#FFFFFF" d="M351.5,474.1c1.7,0,3.3,0,5,0.2c-1.6-3-4.4-5.5-8.5-5.2c0.8,0.8,1.5,1.7,2.1,2.6
		C350.6,472.4,351,473.3,351.5,474.1z"/>
	<path fill="#FFFFFF" d="M333.3,458.4c0,0-0.1,0-0.1,0c1.6,0.4,3,1,4.3,1.7C336.2,459.1,334.8,458.4,333.3,458.4z"/>
	<path fill="#FFFFFF" d="M344.8,465.7c0.6,0.6,1.1,1.1,1.7,1.7c0.1,0,0.2-0.1,0.2-0.1c0.6-0.3,1.6,0,1.9-0.3c1.3-1.6-1-3.5-2.2-3.2
		c-1.6-2.9-5.7-4.4-9.5-5.4c-0.3-0.6-1.3-0.3-1.6-0.3c0.3,0.6,1,0.6,1.6,1c1.3,0.8,2.4,1.8,3.4,2.9c0.9,0.6,1.6,1.2,2.3,1.6
		C343.2,464.4,344.1,465.1,344.8,465.7z"/>
	<path fill="#FFFFFF" d="M371.7,464.1c-0.6,0,0.3,1.3-0.3,1c-0.6,0.3,0.3,0.6,0,1.3C372.1,465.7,371.7,465.1,371.7,464.1z"/>
	<path fill="#FFFFFF" d="M365.1,442.2c0-0.3,0-0.3,0-0.3c-0.3,0-0.3-0.3-0.3-0.6c-0.6,0.3-0.6,1.3-1,1.9c0.6,0,0.6,0,1.3,0.3
		c0-0.3,0-0.3-0.3-0.3c0-0.3,0-0.3,0.3-0.3c0-0.3,0-0.3-0.3-0.3C364.8,442.2,364.8,442.2,365.1,442.2z"/>
	<path fill="#FFFFFF" d="M365.4,466c0.3,0.3,0.6,0.3,1,0.3c0-0.3,0-0.3,0-0.6c0,0,0,0,0,0c-0.3,0-0.3,1-0.6,0.3c0-0.1,0-0.2,0.1-0.3
		c-0.1,0-0.2,0-0.4,0C365.4,466,365.4,466,365.4,466z"/>
	<path fill="#FFFFFF" d="M643.2,469.5c0,1.7,0,3.2,0.2,4.4c0,0,0.1,0,0.1,0c0.6-2.4-0.2-5.3-0.6-7.5c0,0.1-0.1,0.1-0.1,0.2
		C642.9,467,643.2,468.6,643.2,469.5z"/>
	<path fill="#FFFFFF" d="M365.8,464.8c0,0.1,0.1,0.3-0.1,0.6c0,0,0.1,0,0.1,0C365.9,465.2,365.9,465,365.8,464.8z"/>
	<path fill="#FFFFFF" d="M365.7,464.8C365.7,464.8,365.7,464.8,365.7,464.8C365.8,464.8,365.8,464.8,365.7,464.8
		C365.7,464.8,365.7,464.8,365.7,464.8z"/>
	<path fill="#FFFFFF" d="M604.4,467.4c-0.3-0.1-0.6-0.1-0.9-0.1c0,0.1,0,0.3,0,0.4c0.1,0.1,0.2,0.2,0.3,0.3
		C604.1,467.8,604.3,467.6,604.4,467.4z"/>
	<path fill="#FFFFFF" d="M630.8,468.3c1,4.1,1,8.9,1.6,13.3c0.1-0.1,0.2-0.2,0.3-0.3c-0.3-4.8-0.6-9.4-1.3-13.6
		C631.1,467.8,630.9,468,630.8,468.3z"/>
	<path fill="#FFFFFF" d="M365.7,456.5c1,0,0-1.9,0.6-2.2C365.7,454,366,455.2,365.7,456.5z"/>
	<path fill="#FFFFFF" d="M396.2,436.5c-0.3-0.3-1.3,0-1.6-0.3C394.6,436.8,396.2,436.8,396.2,436.5z"/>
	<path fill="#FFFFFF" d="M365.7,464.8c0.1,0,0.3,0,0.3-0.3C365.8,464.6,365.7,464.7,365.7,464.8z"/>
	<path fill="#FFFFFF" d="M644.1,475.6c-0.1,0-0.1,0-0.2,0c0.1,0.1,0.1,0.2,0.2,0.3C644.1,475.8,644.1,475.7,644.1,475.6z"/>
	<path fill="#FFFFFF" d="M366,449.2c0,0.3,0,0.3,0,0.3c0.3,0.6-1,1.9,0.3,1.9C366,450.8,366.7,449.2,366,449.2z"/>
	<path fill="#FFFFFF" d="M123.5,449.8c-0.1,0-0.3,0.1-0.4,0.1c0.3-0.1,0.6-0.1,0.8-0.2C123.8,449.8,123.6,449.8,123.5,449.8z"/>
	<path fill="#FFFFFF" d="M129.3,448.3c-0.3,0.1-0.7,0.2-1,0.3c-1.3,0.4-2.8,0.8-4.3,1.2c1.7-0.3,3.2-0.6,4.7-1.2
		C128.8,448.5,129,448.4,129.3,448.3z"/>
	<path fill="#FFFFFF" d="M129.3,448.3c0.5-0.1,1-0.3,1.4-0.5C130.2,448,129.7,448.2,129.3,448.3z"/>
	<path fill="#FFFFFF" d="M118.7,451.4c-0.6,0-1.3,0.3-1.6,0.6C117.8,451.7,118.4,451.7,118.7,451.4z"/>
	<path fill="#FFFFFF" d="M134.6,446.3c0.3,0,1,0,1.3-0.3c0.3,0,1-0.3,1.3-0.6c-0.3,0-0.6,0.3-1,0.3c-0.6,0-1,0-1.3,0.3
		c-0.6,0.3-1.6,0.6-2.2,1c-0.6,0.3-1.3,0.6-2,0.9c0.9-0.3,1.8-0.5,2.6-0.9C133.7,446.7,134.3,446.7,134.6,446.3z"/>
	<path fill="#FFFFFF" d="M152.2,456.5c0,0-0.1,0-0.1-0.1c0,0,0,0,0,0C152.1,456.5,152.1,456.5,152.2,456.5z"/>
	<path fill="#FFFFFF" d="M161,461c-1.2-0.6-2.5-0.9-3.7-1.5C158.3,460,159.5,460.5,161,461z"/>
	<path fill="#FFFFFF" d="M148.6,451.9c0.3,0.4,0.7,0.6,1,0.8c0.3,0.3,1,0.6,1.3,1c1,0.6,1.9,1.6,2.9,2.2c0.5,0.3,1,0.7,1.6,1
		c-2.3-1.7-4.3-3.5-6.6-5.2C148.6,451.8,148.6,451.8,148.6,451.9z"/>
	<path fill="#FFFFFF" d="M145.9,468.2c-0.1,0-0.1,0.1-0.2,0.1C145.8,468.3,145.9,468.2,145.9,468.2z"/>
	<path fill="#FFFFFF" d="M155.2,452.4c1.3,1,2.2,2.2,3.5,3.2c0.6,0.6,1.6,1,2.2,1.6c-1.9-1.6-3.8-3.2-5.4-4.8
		c-1-1.3-2.2-2.5-3.5-3.8c-0.6-1-1.6-1.9-2.5-2.9c-0.3-0.3-0.6-0.6-1-1c0,0.3,0,0.6,0,0.6C150.8,447.9,153,450.2,155.2,452.4z"/>
	<path fill="#FFFFFF" d="M152.2,456.5c0.2,0.1,0.3,0.2,0.5,0.3C152.5,456.7,152.3,456.6,152.2,456.5z"/>
	<path fill="#FFFFFF" d="M156.2,459c-0.3-0.3-1-0.6-1.3-1c-0.3-0.3-1-0.6-1.6-1h-0.2c1.1,0.8,2.2,1.4,3.4,2.2
		C156.5,459.4,156.5,459.4,156.2,459z"/>
	<path fill="#FFFFFF" d="M156.5,459c0.3,0,0.3,0.3,0.6,0.3c0,0,0.1,0,0.1,0c-0.4-0.2-0.7-0.4-1-0.7C156.2,459,156.5,459,156.5,459z"
		/>
	<path fill="#FFFFFF" d="M138.7,449.2c0-0.1,0.1-0.2,0.1-0.3C138.8,448.9,138.7,449,138.7,449.2z"/>
	<path fill="#FFFFFF" d="M110.2,464.1c-0.1,0.1-0.2,0.2-0.3,0.3c0.1,0,0.1,0,0.2,0C110.1,464.3,110.1,464.2,110.2,464.1z"/>
	<path fill="#FFFFFF" d="M99,467.3C98.7,467,98.7,467.3,99,467.3L99,467.3z"/>
	<path fill="#FFFFFF" d="M110.5,464.1v0.3c0.1,0,0.2,0,0.3,0c0-0.1,0-0.2,0-0.3H110.5z"/>
	<path fill="#FFFFFF" d="M116.5,463.9c0.1,0,0.2,0,0.3-0.1h-0.3V463.9z"/>
	<path fill="#FFFFFF" d="M153.2,457.1c-0.2-0.1-0.3-0.2-0.5-0.3c0,0,0,0-0.1,0c0.1,0.1,0.2,0.2,0.4,0.3H153.2z"/>
	<path fill="#FFFFFF" d="M131.1,448.4c2-0.7,3.9-1.4,5.8-2.2c0-0.1-0.1-0.1-0.1-0.2c-5.3,2.1-11.2,3.6-16.8,5.1
		c0-0.3,0.3-0.3,0.3-0.3c0.8-0.3,1.9-0.5,2.7-0.8c-1.5,0.4-2.9,0.7-4.3,1.1c0,0,0.3,0,0.8,0c0,0,0.1,0,0.1,0c0.1,0,0.2,0,0.3,0
		c-0.4,0.1-0.8,0.2-1.2,0.3c0.6,0.3,1,0,1.3,0s0.6,0,1-0.3c0.6,0,1.6-0.3,2.2-0.6c0.6,0,1,0,1.3-0.3c0.6,0,1-0.3,1.6-0.3
		c0.3-0.3,1-0.3,1.6-0.3c0.3-0.1,0.6-0.2,0.8-0.2c0.6-0.2,1.2-0.4,1.8-0.6C130.6,448.6,130.8,448.5,131.1,448.4z"/>
	<path fill="#FFFFFF" d="M121.6,462.2c0.1,0,0.2,0,0.2,0C121.8,462.1,121.7,462.1,121.6,462.2z"/>
	<path fill="#FFFFFF" d="M107.6,454.6c0.3-0.3,0.6,0,0.6-0.3c0.6,0,1,0,1.6-0.3c1.3,0,1.9-0.6,3.2-0.6c1.9-0.6,4.4-1,6.3-1.6
		c1.6-0.2,3-0.6,4.4-1c-5.7,1.3-11.7,2.4-17.7,3.5c0.4,0.1,0.8,0.2,1.2,0.4H107.6z"/>
	<path fill="#FFFFFF" d="M134.6,447.6c0.4-0.1,0.7-0.2,1-0.4c-0.9,0.2-1.6,0.5-2.3,0.7C133.8,447.8,134.2,447.7,134.6,447.6z"/>
	<path fill="#FFFFFF" d="M133.3,448C133.3,448,133.3,448,133.3,448C133.3,447.9,133.3,447.9,133.3,448
		C133.3,447.9,133.3,447.9,133.3,448z"/>
	<path fill="#FFFFFF" d="M146.3,470.2C146.3,470.2,146.4,470.2,146.3,470.2C146.4,470.2,146.4,470.2,146.3,470.2z"/>
	<path fill="#FFFFFF" d="M145.7,469.8c0,0.1-0.1,0.2-0.1,0.3c0,0,0.1,0,0.1,0C145.7,470.2,145.7,470,145.7,469.8z"/>
	<path fill="#FFFFFF" d="M146.5,470.3C146.5,470.3,146.5,470.3,146.5,470.3L146.5,470.3z"/>
	<path fill="#FFFFFF" d="M146.4,470.2C146.4,470.2,146.4,470.2,146.4,470.2C146.4,470.2,146.4,470.2,146.4,470.2z"/>
	<path fill="#FFFFFF" d="M139.7,472.1L139.7,472.1c0,0,0-0.1,0-0.1C139.7,472.1,139.7,472.1,139.7,472.1z"/>
	<path fill="#FFFFFF" d="M146.3,462.4c0,0,0-0.1,0.1-0.1H146C146,462.2,146.2,462.4,146.3,462.4z"/>
	<path fill="#FFFFFF" d="M720.9,490.4c-0.7-2.2-2.8-3.1-4.1-4.7c0.6-2.5-0.6-4.1,0-6.3c0,0,0,0,0-0.3c0.6-1.3-0.3-2.2-0.3-3.5
		c0.3-0.3,1.6,0,1.9-0.6c0-0.3,0-0.6,0-1c-0.6-0.3-1.6-0.6-1.9-1.3c1-0.3,1.6,0.3,2.9-0.3c1-2.9-2.2-3.5-4.1-4.1
		c-0.3,0.6-1.6,1-2.2,1.3c-0.3,1-0.6,1.3-1,2.2c0.6,0,0.3,0.3,1,0.3c-0.6,0.6-1.3,1.3-1,2.9c0.3,0,0.3,0,0.3,0.3
		c1.3,0,1-1.3,2.2-1.6c-0.3,0.6-1,0.6-1,1.6c2.2,1.6,1.9,6.3,1.6,9.5c-0.6,1.6-2.2,0-2.2-1s-0.3-1.6-1-1.9c-1,0.3-0.6,1.9-1.9,1.6
		c-0.3-1.3,0-3.2-0.3-4.8c0.6-0.6,1.6-1,2.9-1c-0.6-2.2-1.6-4.4-4.1-4.8c-0.6-1.6-2.5-2.2-3.8-3.2c-1.9,1-3.2,3.2-6,2.2
		c-0.3-0.6,0.3-0.6,0-1.6c-1.9,0-3.5-1.9-5.4-0.3c-1.9-1,0-4.1-1-6c0.3-0.6,0.6,0.3,1.3,0c0.6-1,0.6-2.2,2.2-2.2c0-0.6,0-1-0.3-1.3
		c-1.3,0-1.6,0.6-2.2,1c0.6-1.3-0.3-2.2-1-2.9c-1,0-1,0.6-1.3,1.3c-0.6,0-0.3-1-1.6-1c-0.3,0.3,0,0.6,0,1.3c-0.6,0-1,0-1.6,0.3
		c0,3.5,4.8,4.1,2.9,7.9c-3.5,0-4.1,2.9-3.5,6c0.6,0,0.6-0.6,1.6-0.6c0,1,0.6,1.6,1.6,1.6c0,2.2,0.3,4.8-0.6,6c-1-0.3-1.6-1-2.9-0.3
		c-0.3-2.2-3.2-3.5-4.8-1.6c-0.6-0.6,0-1.9-0.3-2.9c1.3-0.6,1.9-1.6,2.9-2.5c0-1-0.6-1.3-1-1.6c0-0.6,0.6-0.6,0.6-1.3
		c-1.6-2.9-4.8-2.9-6.7-0.3c0.3,1,0.3,1-0.3,1.6c1.3,1-0.3,2.2,0.6,3.5c2.5-0.6,2.9,1.6,2.9,3.8c-1.3-1-3.2-0.3-3.5,1
		c-1.3-1-2.2,0-3.5,0c-1-6.3-1-13-1.6-19.7c1.3-1,1.9-2.5,2.2-4.1c-0.3-0.3-1-0.6-1.6-0.3c-0.3,0,0-1-0.3-1.3c-1,1-1.3,0.3-2.5,0
		c-0.3,0.3-0.6,1.3-0.6,2.2c-0.6,0-1.3,0-1.9,0.3c0,0.3,0,0.3,0,0.6c0.6,0.6,1.6,1,1.6,2.2c0.6,0,1-0.3,1.6-0.3
		c0.3,1.6,0.3,4.4,0.6,6.7c-1,0-1.9-0.3-2.2-1c-2.5-0.3-3.2,1.6-4.4,2.5c0.3,1,0,1.6,0,2.5c1.6,0.3,1.9,2.2,3.5,2.2
		c0,1.9,1,3.5,0.3,5.4c-0.6,0-1-0.3-1.6-0.3c0.3-0.6,1-1.6,0.3-2.5c-1.3,0.3-2.2,1.3-3.2,1.9c-0.6-0.3-0.6-1.6-0.3-2.2
		c-0.6,0-1.3,0-2.2-0.3c-0.6-1.6-0.6-3.8-1-5.7c0.6,0,1.3,1,1.6,0.3c0.6-0.6,1.9-2.9,0.6-3.5c0-0.6,1,0,1-0.6
		c-0.3-1.6-2.5-1.6-3.2-2.9c-1.6,0.3-2.5,1.3-3.8,1.9c0.6,1.6-0.6,1.3-0.6,2.5c0,0.6,0.6,1,1.3,1c0.3,0.6-0.6,0.6-0.3,1.3
		c1,0.3,1.6,1.3,2.5,1.6c-0.3,1.6,0.6,2.9,0,4.1c-1.6,0.3-1.3-1.3-1.6-2.2c-1.6,0.3-2.5-0.3-3.5-1c-1.6,1-3.5,1.3-4.4,2.5
		c-1-2.2-0.3-5.4-0.3-7.3c0-0.6,1.3-0.3,1.6-0.6c-0.6-1-0.6-2.5-1.6-3.2c-2.9-0.6-4.1,1-4.1,4.4c2.9-0.3,2.5,2.9,2.9,5.4
		c-1.3,0-1.9,0.6-3.5,0.3c-0.3,1,0,1.6-1,1.9c0,0,0,0,0,0c0,0.4-0.1,0.6-0.3,0.6c-0.3,0-0.6-0.3-0.3-1c0.2,0,0.3,0,0.4,0
		c-0.3-0.4-0.4-1-0.5-1.6c-1.2-0.2-1.8,1.6-2.8,2.5c0-2.5,0-5.4,0-8.6c0.3-0.6,0.6,0.6,1.3,0.3c0.3-0.6,1-1.3,0.3-2.2
		c0.3,0,0.3,0,0.6,0c0,0.1,0.1,0.3,0.1,0.5c0.8-1.7,3.7-1.5,2.1-3.3c0-0.3,0.6-0.3,1-0.6c-0.3-1.3-3.2-3.8-4.8-3.5
		c-1.9,0.3-1.6,3.8-4.1,2.9c-0.3,1-1,1.3-1.6,1.9c0.3,1,0,1.6-0.6,1.9c0.3,1,1.3,1.3,1,2.5c1,0,1,1,2.2,0.6
		c0.3,3.2,0.6,7.9-0.6,10.2c0.3,0.3,1,0.6,1.3,0.3c-0.6,0.6,0,1.3-0.3,1.6c-1.3-0.3-2.5,0.3-3.2-0.6c-0.8,0.3-1.9,0.3-2.6,1
		c0,0.3,0,0.6,0.1,0.9c-0.6,0.3-1.9,0-2.9,0.3c-1.6-3.2-0.6-8.6-1.3-12.7c1-1,1-2.9,2.2-3.5h0.3c0.1,0.5,0.2,0.9,0.2,1.4
		c0.3-0.2,0.8-0.2,1.3-0.4c0.3-1.3,0.3-2.5,1-3.5c-0.3-0.6-1-1.6-1-2.5c-1.6-1-3.5-0.6-4.8-1.6c-1,0.6-1,0.3-2.2,0
		c0,0.6-0.3,1-0.3,1.6c-2.9,0-3.2-1.3-3.8-3.5c-1.3,0.3-1.6-0.6-3.5-0.6c-0.6,1.3-1.9,1.6-3.5,2.2c-0.3,0,0-1-0.3-1
		c-1,0.3-1,1-1.9,0.3c0,1-1,1.3-1.6,1.9c0.6,1.3-0.3,1.6-0.3,2.9c0.3,0.3,0.6,0.3,1,0.3c0,0.6,0,1-0.3,1.6c-1.9,0-1.9-2.5-4.4-1.9
		c-0.3,1.3-1.6,1.3-2.2,2.2c0.5,0.7,0.4,1.2,0,1.7c0.9,0.2,1.8,0.5,3.2,0.2c0,0.6-1,1.9,0,2.5c1,0.3,1.3-0.6,1.6-0.3
		c0,1.3,0.6,2.5,0.6,4.1c0.3,3.2-0.6,7,1,8.9c1.3-0.3,0.3-1.6,0.3-2.2c0-2.9-0.3-7-0.3-10.2c1.6-0.3,1.6-1.6,2.9-1.6
		c0-1.3-0.6-2.2-1-2.9c0.6-1.6,1.9,0,2.9-0.3c0,6,1,12.4,1,17.8c-1,0.3-0.3-1.6-1.6-1.3c-0.3,0,0,1-0.3,1c-2.5,0-5.7,0.3-8.6,0
		c-0.3-1.3,0.6-0.3,1.3-1.3c-0.3-1-1.9-0.6-2.9-1.3c-0.3-4.3-0.6-8.6-0.9-13c-0.7-0.7-0.6-2.1,0-2.9c-0.6-1.9-2.2-2.5-4.1-2.9
		c-0.3,0.3-0.3,1-1,1c-1.6-1-2.5-2.2-4.4-2.2c-1,0-1.6,1.6-3.2,1c-0.3-0.3-0.3-0.6-1-1c-1,0-1,0.3-1.9,0.3c-0.3,1.3-1.6,1.6-2.5,2.2
		c0,1,1,1,0.3,1.6c-1.6-0.3-2.9-1.9-4.8-1.6c-0.6,1.3-1.3,1.9-2.2,2.9c0,0.6,0.3,1,0.3,1.3c-0.3,0-0.6,0-1,0c0-3.2,0-7,0-9.5
		c0-0.3,0-1,0-1.3c0-3.5,0-7,0-10.5c-1,0-2.2,0-3.2,0c-0.6-0.6,0-2.2-0.3-3.5c-1.3,0-2.2,0-3.5,0c0,7,0,14,0,21.3
		c0,0.3-1.3,0-1.6,0.3c0,2.2,0,4.1,0,6.3c-1.6,0.6-4.1,0-6,0.3c-1,0.6-1.6,1.9-2.5,2.5c-0.6,0.3-2.5,0.3-3.2,0c0-5.1,0-10.2,0-15.2
		c-1.3,0-2.2,0-3.5,0c0-1,0-1.6,0-2.5c-1.3-0.3-3.2,0-4.8-0.3c0,0.3,0,0.3,0,0.6c0.3,1-0.3,2.2-1,1.6c-0.3,0-1,0-1.3,0
		c0,0,0,0,0,0.3H547c0,0.3,0.3,1.3-0.3,1.6c-1.3,0-2.5,0-4.1,0c0,3.8,0.3,8.3-0.3,11.7c-3.2-0.3-7.9,1-8.9-1.3
		c-0.6-9.2,0-19.4-0.3-28.9c-0.6,0-1.9,0.3-2.2-0.3c-0.3,0-0.3,0-0.6,0c0-0.6,0-1,0-1.6c-2.9,0.3-6.7-0.6-8.9,0.3
		c-0.3,1.3-1.9,1-3.5,1c-0.3,0.6-1,1.3-1.6,1.6c0,5.4,0.3,11.4-0.3,16.5c-0.6,0.3-2.9,0.3-3.5,0c-0.3,0,0-1.3-0.3-1.6
		c-1.6-0.3-3.8-0.3-5.7-0.3c0,0.6,0,1.3,0,2.2c-0.6,1-3.2,0.3-4.4,0.3c-1-0.6-1.3-1.6-2.2-2.2c-0.6,0-1.9,0.3-2.2-0.3
		c0-2.5-0.6-4.1-2.2-5.1c0-6.7,0-13,0-19.7c-4.8,0-9.5,0-14.3,0c0,11.1,0,21.9,0,33c0,0.3-1.3,0-1.6,0.3c0,0.6,0,1,0,1.6
		c-0.6,0-1.3,0-1.6,0c0-0.6,0-1.3,0-1.6c0,0,0,0-0.3,0c0.3-0.6-0.6-0.3-1-0.3c-0.3,0-0.3-0.3-1-0.3c0-2.2,0-4.8,0-7c0-0.3,0-1,0-1.3
		c-1.3-0.3-1.9,0-3.5,0c-0.6,0-0.3-1.3-0.3-2.2c-0.3-1.9,0.3-3.8,0-6c0-0.3-0.6-0.3-0.6-0.6c-1.3-3.2,0.6-7.3,0-9.5
		c0-0.3,0-0.6-1-0.3c-0.6-3.2,0-7.3-0.3-10.8c-0.6,0-1.3,0-1.6,0c-0.6-5.7,0-12.1-0.3-18.1c-0.3-0.3-1-0.3-1-0.6c-0.6-1.3,0-4.8,0-7
		c0-2.5,0-5.1,0-7c-1.6-5.4-12.1-5.4-14-0.3c0,7,0,16.2,0,23.8c0,4.8,1,9.2-2.2,10.2c-1.6,2.9,0.3,14.9-1,18.1c-0.3,0-0.3,0-0.6,0
		c-0.6-3.2,0-7-0.3-10.5c-3.5-0.6-8.6-0.6-10.2,1.9c0,3.8,0,7.3,0,11.1c0,5.4,0,11.1,0,16.5c0,1-1.9,0.3-2.5,0.3c-0.6,0-1.3,0-1.6,0
		c0-3.8,0.3-8.3-0.3-11.7c-0.6,0-1.3,0-1.9,0c-3.2,0-6.3,0-9.5,0c0,8.6,0,10.2,0,18.7c-0.3,0-0.6,0-1,0c-0.6-5.4,0-5.1-0.3-10.8
		c-0.3,0-0.6,0-1,0c0-4.1,0-8.6,0-12.7c-0.6-0.3-1.6-0.6-2.5-0.3c0-1,0-1.9,0-2.9c-0.6,0-1,0-1.6,0c0-1-0.6-1.6-0.6-2.9
		c-0.6-0.3-1.3-0.3-1.9-0.3c0,1.9-1,2.9-2.5,3.2c0,1,0,1.6-0.3,2.2c0,0.3-1.3,0-1.6,0.3c0,3.5,0.3,7.3-0.3,10.5c-1.9,0-3.5,0-5.4,0
		c0,0,0,0-0.3,0c-0.3,0.3-0.3,1-1,1.3c0,0.3,0,0.3-0.3,0.3c0,4.4,0.3,9.5-0.3,14c-1,0-2.2,0-3.2,0c-0.6-0.3,0-1.6-1.6-1.3
		c0-2.2-0.6-3.5-0.3-5.7c-0.6,1-0.6,2.2-0.6,3.5v0.3c0,1.6-2.2,1.3-1.6,3.5c-1,0.3-2.5,0.3-4.1,0.6c-0.6-1.9,0.3-4.4,0-6.7
		c-3.5,0-7.6-0.3-10.8,0.3c0,0.3,0,1,0,1.3c-0.3,1.6,0.3,3.8-0.3,4.8c-1,0-2.2-0.3-2.9,0.3c-1.3,0-1.9,1-3.2,1
		c-1.6,0.6-3.8,0-5.7,0.3c-0.3,0-0.6,0-1,0c-0.5,0.2-0.8,0.2-1.1,0c-0.6,0-1.2,0-1.8,0c-0.6,0-1.3,0-1.6,0c0-4.4-0.3-9.2,0.3-13.3
		c1.3,0.3,1.6-0.3,2.9-0.3c0,0,0,0,0.3,0c1,0,0,1.6,0.3,1.9c0,0,0,0,0,0c0,0,0,0,0,0c0,0.6,0.6,0.3,0.3,1c-0.3,0-0.3,0-0.5,0
		c0,0.1,0,0.2-0.1,0.3c0.2,0,0.4,0,0.6,0c0,0,0,0,0,0c0,0,0,0,0,0c0.3,0,0,1.6-0.3,0.6c-0.3,0.3,0,0.6-0.3,1.3c0.1,0,0.1,0,0.1-0.1
		c-0.4,1.6-0.4,5.3-0.2,7.3c0.3-0.3,0.6-0.7,0.4-1.2c0,0,0,0,0.3,0c0.3,0,0.3,0.6,0.3,1.3c0.7-0.2,1.2-0.5,1-1.3
		c-0.3,0,0,0.6-0.3,0.6c-0.6-0.3,0.3-0.6-0.3-1.3c0.3,0,0.3,0.3,0.3,0.3c0.3-1.6,0-5.4,0.3-7.9c-0.3,0-0.3,0.3-0.6,0.3
		c0.3-0.3,0.6-0.6,1-1c0-0.3-0.3-0.3-0.3-0.3c-0.3,0,0-0.6-0.3-1c0-0.3,0-0.6,0-1c0.3,0,1,0.3,1-0.3c2.2-0.6,4.8,0.3,6.3-1
		c0.3,1,2.9,0.6,2.9-0.3h0.3c0,0.3,0.3,0.6,0.3,1c0.3,0.3,0.6,0.3,1,0c0.3,0,0.6,0,1,0c0-1.3,0-2.2,0-3.5c0,1-1.6,0.3-1.9,1.3
		c-0.3-0.3,0-1-0.6-1c-3.2,1.6-7,2.5-11.4,3.2c0-0.3,0-0.6,0-1c0.3,0,0.3,0.3,0.3,0.3c0.3,0,0-1.6-0.3-1c0.3-0.6,0-1.6-0.3-2.2
		c0-0.3,0-0.6,0-1c0.3,0,0.3,0.3,1,0.3c-0.3-1-1.9-0.6-2.9,0c0.3,0.3,1,0.3,1.6,0.3c0,1,0.6,1.9,0.3,3.2c0,0.6-1.6,0.3-1,1
		c0,0,0,0-0.3,0c-0.3,0-0.3-0.6-0.3-1c-0.6,0.3-0.6,0.3-0.3,1c-0.3-0.3-0.6-0.3-0.6-1c-0.6,0-0.6,0.6-0.3,1c-1,0-1,0.3-1.6,0
		c-0.6-0.6,0.3-3.5,0.3-3.8c0-0.3-0.3-3.2-0.3-4.8c0-1.3,0.6-3.2-0.6-3.5c-0.3,0-0.3,0.3-0.3,0.3c-0.3,0-0.3,0-0.3-0.3
		c0.3-0.6,1-0.3,1.3-0.6c0-0.2,0-0.3-0.1-0.3c0,0,0.1,0,0.1,0c0-0.6,0-1.6,0-2.2c-0.3,0.3-0.3,0.6-0.3,1.3c-0.3-0.3-1.6-1-1.6-0.3
		c-0.6,0-0.6-1-1-1.3c0.6-0.3,1.3-1,2.2-1.3c0.3,0,0,0.6,0.3,1c0.3-0.3,0.3-2.2,0-2.5c-1,0,0,0.3-0.3,0.6c-0.6,0.3,0-0.6-0.6-0.6
		c0,0,0,0-0.3,0c0-0.3,0.3-0.3,0.6-0.3c0-0.3-0.3-0.3-0.3-0.6c0,0,0,0,0.3,0c0.3,0,0,0.6,0.3,1c0.3-0.6,0.3-2.9,0.3-3.2
		c0-0.3-0.6-0.3-0.3-1c0.3-0.6,0.6,0.3,1,0c0.3-1,0.3-2.2,1.9-1.6c0-0.3-0.6-0.3-0.3-0.3s1.3,0,0.6,0.3c0.1,0.3,0.2,0.2,0.3,0
		c0.1,0.2,1,0,1.6,0.3c0-0.3-0.3-0.3-0.3-0.6c0.3,0,0.3,0.3,0.3,0c0,0,0,0,0.3,0c0.3,0.3,0.3,0.3-0.3,0.3c1.3,0.6,3.2,0,4.8,0.3
		c0-0.3-0.6-0.3-0.3-0.6c0.6-0.3,0.3,0.6,1,0.6c1,0-0.3-0.6,0.6-0.6c0.3,0.3,0,1,1,0.6c0-0.3-0.3-0.3-0.3-0.6c1.3,0.3,0.6,1,1.6,0
		c0.3,0,0.3,0.3,0.3,0.3c-1,0.6,0.6,0.3,1.3,0.6c0.3-0.6,0.6-1,1.3-0.6c-0.3,0.3-0.6,0.3-1,0.3c1.3,0.6,3.2,0,4.8,0.3
		c-0.3-0.3,0-0.6,0.6-0.6c0.3,0,0,0.3-0.3,0.3c0,0.3,0.6,0,1,0.3c0-0.3-0.3,0-0.3-0.3c1.6,0,2.9-0.3,5.4,0.3c-1.3,0.3-1.9,0-3.5,0
		c2.5,1,6.7,0.3,8.9,0.6c0-0.3-0.3-0.3-0.6-0.3c0-0.3,1,0,1.3-0.3c0,0.3-0.6,0.3-0.3,0.6c0.6,0,1.3,0,1.6-0.3
		c-0.3-0.6-0.6,0.3-1-0.3c1-0.6,2.9,0,3.5,0.3c0-0.3-0.6,0-0.3-0.6c1,1.3,2.2,0,3.5,0.6c1-0.3-1,0-0.6-0.3c0.6-0.6,1,0.3,1.6,0.6
		v0.3c0.6-0.6,1.3,0.3,2.2,0.3c-0.6-0.3,0.3-0.6,0.3-0.3c0.3,0,0-0.3,0.3-0.3c0.6-0.3,0-1.3,1.3-1c0,0.6-1,0-0.6,0.6
		c0.6-0.3,0.6,0,1.6-0.3c0,0.3-0.6,0.3-0.3,0.6c2.5,0,5.4,0,7.9,0c-0.3-0.3,0-0.3,0-0.6c0.3,0,0.3,0.3,0.3,0.6
		c0.3-0.6,1.6,0.3,1.6-0.6c0.6,0,0.3,1,1,0.6c0.3-0.3,0-0.3,0-0.6c0.3,0,0.3,0.3,0.6,0.3c1-0.3,1.3,0.3,2.2,0c0-0.6-0.6-1-1.3-1
		c-1,0.3-1.9-0.3-2.5,0c0,0,0,0.6-0.3,0.6c0,0-0.6-0.3,0-0.3c-1,0-1.9-0.3-2.5,0.3c1.3-1-1.3-0.3-0.3,0.3c-0.6,0.3-0.6-0.6-0.3-0.6
		c-0.6,0-3.2-0.6-4.1,0.3c0,0-0.6-1-0.6,0c-1.6-1-3.8-0.3-6-1c0,0.3,1,0,1,1c-2.2-0.3-3.5-1-5.4-0.3c-1.3-0.6-1.3-0.3-2.9,0
		c1.3-0.3-1-0.6-0.3,0c-2.2-0.6-3.2-0.3-6-0.6c0,0.2,0.1,0.2,0.2,0.3c-1.9-0.6-5-0.6-6.8-0.3c-1-1-2.2-0.3-3.5-1
		c0.3,0.3,0.3,0.3,0.3,1c-1.3-1-2.9,0-4.1-0.6c-0.6,1-1.3-0.6-1.9,0.3c0-0.3-1.3-0.6-1.6-0.3c-1,0.3-1.6-0.3-1.9,0.3
		c-0.3,0-0.6-0.3-0.6-0.6c-0.3,0-0.6,0.3-1,0.6c-1.3-0.6-2.5-0.6-3.8-0.3c0.3-0.3,0-0.3,0-1c-0.3,0,0,0.3-0.3,0.3
		c-0.3,0.6-1-0.3-1.3,0.3c-0.6,0.3-0.6-0.3-0.6-1s0-1,0-1.6c0-0.3,0.6,0,1-0.3c0-0.6,0.3-0.3,0.3-1c-0.6,0-0.3,0.6-0.6,0.6
		c-0.6,0-0.6-0.6-0.3-1c0-0.3,0.6,0.3,1.3,0c0,0.6,1.3-0.3,1.3,0.3c0.3,0,0.3-0.6,0.3-0.3c0.6,0,0-0.6-0.3-0.3
		c-0.6-0.6-1.9,0.3-2.2-1c-1,0.6-1.9,1-2.9,1.3c-1,0.3,1.3-0.3,1.9-0.3c0.6,0-0.3,0.6-0.3,1c0,0.6-0.3,1.3-0.6,1.6c-0.3,0,0,1-0.3,1
		c0-0.3-0.3-0.3-0.3-0.6c-0.3,0-0.3,0.3-0.3,0.6c-0.6,0.3-1.3-0.6-1.6,0c-0.6,0-1.3,0-1-0.6c-1,0.6-2.2,0.6-2.9,0
		c-2.2,1-3.8-1-6-0.3c-0.6,0-1.3,0-1.6-0.3V434c-1.6,0-2.9-0.3-2.9,0.6c-0.6,0-1,0-1.6,0c-0.3,0,0-1-0.3-1.6c-1.3,1-1.3,2.9-1,4.8
		c0.3,0,0.6,0,1,0c0.3,0.3,1.9,0.3,2.2,0c-0.3-0.6,0.3-1,0.3-1.6c0.6,0,1.3,0,1.9,0c1,1,3.2,0,4.8,0.3c3.2,0,6,0,8.6,0
		c0.3,0.6,0.6,2.2-0.3,2.2c0,0,0,0,0,0.3c0,2.5,0,7,0,9.8c0,0.6,0,1.3,0,1.6c0,1,0,1.9,0,2.9c0,0.6,0,1.3,0,1.6
		c-0.3,1.6-0.3,4.8-0.3,6.3c-0.3,0-0.3-1-1-0.6c0,0.3,0.3,0.3,0.3,0.6c-0.6,0.3-0.3-0.6-1-0.3c0.3,0.3,0,0.3,0,0.6
		c-0.3,0-0.6-1,0-0.6c-0.3-0.6-1.9,0-1.3,0.6c-0.6,0-0.3-0.6-1-0.3c0,0.3,0.3,0.3,0.3,0.3c0,0.3-0.6,0.3-0.3,1
		c0.6-0.3,2.2-0.3,3.8-0.3c0,1.6,0,3.2,0,4.8c0,1,0,2.2,0,3.2c0,1.3,0,2.5,0,3.8c-0.3,0.6-1,1-1.9,1c0-0.3-0.3-0.3-0.3-0.3
		c-1,0-0.6,1.6-0.6,2.5c-1.6-0.4-2.6-1.7-3.4-3.1c-1.2,0-2.4,0.1-3.6,0.2c-0.6-1.6-1.6-2.9-2.2-4.8c0.8-0.2,1.6-0.4,2.3-0.4
		c-0.5-0.6-1-1.1-1.6-1.7c-0.7,0.3-2.4,0.4-2.6-0.4c-1.1-1.8-2.2-3.6-3.6-5.1c-0.8-0.6-1.8-1.2-2.8-1.8c2.4,1.9,4.5,5,5.7,6.8
		c0.6,0.6-1.9,0.3-1.9,0c-3.8-1.3-6.7,0-10.2-0.6c-1.6,0-3.2,0.3-4.8,0.3c-1.6,0.3-2.9,0-4.8,0c2.8-3.5,6.6-8.5,11.6-8.3
		c-0.5-0.1-1.1-0.2-1.6-0.3c-0.2,0.1-0.2,0.3-0.5,0.3c-5.1,1-7.9,5.7-11.1,7.9c-2.2-2.2,1.3-4.1,2.9-5.4c1.9-1.3,4.4-2.5,7-2.9
		c-0.5,0-1.1,0-1.6,0c-0.6-0.6-0.6-0.3-1.3,0c-1.3-0.3-2.9-0.3-4.1,0c-8,2.2-12.8,7.3-17.1,13.2c-0.9-2-1.6-4.2-1.6-7.1
		c-2.2-0.3-4.4-0.6-6.7-1c0-7.6,1.6-27.3-2.5-30.2c-1.9-1-6,0.3-8.9,0.3c-0.6,3.5-1,6.7-1.3,10.2c0,2.9,0,5.4-0.3,8.3h-2.5
		c0-0.6,0-1-0.3-1.6c-2.2,0-4.1,0-5.1,1.3c-1.9,2.5-1.9,8.3-1.9,12.4h-4.8c0-3.8-1-6-1.6-8.9c-1.6,0-4.4-0.3-5.1,0.3
		c-0.3,2.5-1,5.1-1.3,7.6h-1.3c-0.6-1-3.8-0.6-5.4-0.6c0,1.3,0,2.5-0.3,3.8h-1.3c0-0.3-0.3-0.3-0.3-0.6c0-1,0-1.3-0.3-1.9
		c-1,0-1.6,0-2.5-0.3c0-1,0-1.9-0.3-2.5h-1.3c-0.3,1.9-1.3,1.3-1.9,2.5c-0.6,1.3,0.3,2.5-0.3,3.2c-1,1-3.5,1-5.7,1
		c-0.3-8.6-0.3-17.1-0.6-25.7c-3.2-1.9-1-9.8-2.5-13.3c-0.3,4.1-0.6,8.3-1,12.4c-0.6,0-1,0.3-1.6,0.3c0,7.6,0,15.2-0.3,22.5H233
		v-8.9h-3.8c-0.3,1.3-1.6,3.2-2.9,3.8c0,3.5-0.3,7-0.3,10.5h-1.9c0-2.2-0.6-3.2-1.3-5.1c-2.2,0-3.8,1-5.7,0.3c0-5.4-1-10.5-1.3-14.9
		c0,0-0.3,0-0.3,0.3c-0.6,2.2-1,4.4-1.3,7c0,2.9,0,5.7-0.3,8.3c-0.6,1.3-1.6,1.3-1.9,3.8h-1c0-1.9-0.3-2.2-2.2-1.9
		c0-1,0-2.2-0.3-3.2h-1.9c0-1,0-1.9-0.3-2.5h-1.3c0-1.3,0-1.9-0.3-2.5h-1.3l-0.3,0.3c0,3.2,0,6.7-0.3,9.8c-1.3,0-2.2,0-3.5,0.3
		c0,1,0,1.9-0.3,2.9c-0.6,0-1.3,0-1.9,0.3c0,1.3,0,2.9-0.3,4.1h0c-1-0.3-1.6-0.3-2.5-0.6c0-1.9,0-3.5-0.3-5.4c-1.9,0-5.4-1-6.3,0
		c-0.3,1.9-0.3,3.8-0.6,5.4c-1,0-1.9,0.3-3.2,0.3c-0.6-2.2-1.9-3.2-1.9-6.3c-1.6,0.3-3.5,0.3-5.1,0.6c-0.3,1.6-0.6,3.5-1,5.1
		c-0.6,0.3-1.6,0.3-2.2,0.6v-3.8h-1c0,1-0.3,1.9-0.3,2.5h-2.2c0-2.9,0.6-17.5-0.3-18.4c-1,0-1.6-0.3-2.5-0.3c0-1.6,0.3-4.1-0.6-4.8
		c-1,0-1.9,0-2.5-0.3v1.9h-2.2v3.2h-1v1.3c0,0,0,0,0,0c0,0,0,0,0,0v1.6c-2.5-1.6-5.1-3.8-7.3-5.7c-0.3-0.3-0.6-0.3-0.6-0.6
		c-0.3-0.3-0.6-0.3-0.6-0.6c0-0.3-0.6-0.3-0.6-0.6c-0.3-0.3-0.6-0.3-0.6-0.6c-0.3-0.3-0.3-0.3-0.6-0.6c-0.3-0.3-0.6-0.3-0.6-0.6
		c-0.6-0.3-1-1-1.3-1.3c-0.3-1.6-0.6-2.9,0-3.2c-0.3,0-0.3-0.3-0.6-0.3c0-0.6-0.3-0.6-0.3-1s-0.3-0.3-0.3-0.3c0-0.3,0.3-0.6,0-0.6
		c-0.6,0-0.6,0.6-0.3,1c-0.3,0.3-0.3,0.3-0.3,0.6c-0.3,0.3-1,0.3-1.6,0.6c0,0-0.3-0.3,0-0.6c0-0.3-0.3,0-0.3-0.3s0.3-0.6,0-0.6
		c-0.3,0-0.3,0-0.3,0c-0.3,0-0.3,0.6,0,1c-0.3,0-0.3,0.3-0.3,0.6c-0.3,0-0.3,0.3-0.6,0.3c-0.6,0-1.6,0.3-2.2,0.3
		c0-0.3-0.3-0.6-0.3-1c0.3-0.3,0.3-0.6,0-0.6c-0.6,0-0.3,0.6-0.3,1c-0.3,0-0.3,0.3-0.3,0.6c-0.3,0.3-1,0.6-1.6,0.3
		c0-0.3-0.3-0.6-0.3-1c0.3-0.3,0.3-0.6-0.3-0.6c-0.3,0-0.3,0.6,0,1c-0.3,0-0.3,0.3-0.3,0.6c-0.3,0-0.3,0.3-0.3,0.3
		c-0.2,0.1-0.4,0.1-0.6,0.2c0.1,0.1,0.2,0.2,0.2,0.4c-0.3,0-0.6,0.3-1,0.3c-0.2,0.1-0.4,0.2-0.5,0.2c0.3-0.1,0.6-0.2,0.9-0.2
		c0.3,0,0.6-0.3,1-0.3c0.3,0.3,0,0.3-0.3,0.3c-0.3,0-0.3,0-0.6,0c-0.6,0.2-1.2,0.4-1.9,0.6c-0.4,0.1-0.9,0.3-1.3,0.4
		c-1.2,0.6-2.3,0.9-3.5,1.2c0.2-0.1,0.4-0.2,0.7-0.2c0.3-0.3,0.6-0.3,1-0.3c0.6-0.3,1.2-0.3,1.9-0.6c-0.4,0.1-0.8,0.2-1.2,0.3
		c-0.3,0-0.6,0.1-1,0.2c-0.3,0.1-0.5,0.2-0.8,0.3c-0.2,0.1-0.3,0.1-0.5,0.2c-0.4,0.2-0.9,0.3-1.4,0.4c-0.9,0.3-1.8,0.6-2.7,0.9
		c-0.7,0.2-1.3,0.4-1.9,0.6c1.3-0.3,2.6-0.6,3.8-0.9c2.9-0.6,5.7-1.6,8.3-2.2c0.3,0,1-0.3,1.3-0.3c0,3.8,0,7.9,0,11.7
		c0,0.3-0.6,0-0.6,0.3c-0.3,0.6,0.3,0.6,0.6,1c0,0.6,0,1,0,1.6c-4.1,0.3-8.3,0.3-12.1,0.3c0,0-0.3,0-0.6,0c0,0-0.4,0-0.4,0.2
		c0,0-0.1,0-0.2-0.2c-0.3,0-1,0-1.3,0c-0.2,0-0.5,0-0.7,0c0,0.1-0.1,0.2-0.2,0c-0.6,0-1.3,0-1.9,0c-1.6,0-3.2,0-4.4,0.3
		c-0.3,0-0.3,0-0.3-0.3c-5.7,0-11.7,0.3-17.8,0.6l-0.3-7h0.3c1.6-0.3,3.5-0.6,5.1-1c1.3-0.2,2.6-0.5,3.9-0.7
		c-0.9-0.2-1.6-0.2-2.3-0.2c-1.3,0.3-2.5,0.6-3.8,0.6c-0.3,0-1,0.3-1.3,0.3c-0.6,0-1.3,0.3-1.9,0.3v-21h-2.5c-0.6-1.9-1-3.5-1.6-5.4
		c-1,0-1.9,0-2.5-0.3c-0.6-0.6-0.6-0.6-1-1.9h-2.5v3.2h-2.5v3.2h-2.2v15.2h-4.8v-7H73v3.8h-1.9v4.8H66v5.4h-3.5v2.5h-0.6v-24.1h-1.6
		c-3.5-3.2-3.2-8.9-3.2-15.2h-1.3v9.8h-1c0,1.9,0,3.8-0.3,5.4c-1,1.9-1.6,3.5-2.5,5.4c0,2.5,0,5.1-0.3,7.6c0,0,0,0.3-0.3,0.3h-2.9
		c-0.3,1.3-0.3,3.5-0.3,5.4h-3.2v-17.5h-3.8c0-3.2,0-6.3-0.3-9.5H30.5v15.2h-2.2v-3.2H21c0-9.8,0-20-0.3-29.8
		c0-4.8,0.6-10.8-0.3-14.9c0-3.8,0-7.6-0.3-11.4c0-3.5-1.6-7.3-1.6-7.3l-1.6-5.7c0,0-1.6-26.3-1.6-38.1c0,3.5,0,13-0.3,16.5
		c0,7.3,0,14.6-1,21.6c-0.3,2.9-1.6,4.8-2.2,6.7c0,2.2-0.3,4.4-0.3,6.7c-0.3,0.3-0.6,0.6-1,1V393c-1,2.5-0.6,7.6-0.6,11.4v26.7H7
		c0-1,0-2.2-0.3-3.2c-0.6-0.6-3.5-0.6-4.8-0.3c0,7.9,0,23.8,0,23.8h-5.1c0.3,13.7,1.3,27.3,1,41H0V522h800v-31.6H720.9z M689.5,474
		c0-0.3,0-1,0.6-1C690.5,473.7,690.2,474.3,689.5,474z M365.9,467.5c0-0.2,0-0.5,0.2-0.5C366,467.1,365.9,467.3,365.9,467.5z
		 M360.3,448.6c0.3,0,0,0.3,0,0.3c0,0,0,0,0,0.1c-0.1,0-0.2,0-0.3-0.1C360,448.6,360.3,448.6,360.3,448.6z M365.1,437.5
		c0,0.3-0.3,0.3-0.9,0.3C364.3,437.6,364.6,437.3,365.1,437.5z M128.3,449.5C127.9,449.5,128.6,449.2,128.3,449.5L128.3,449.5z
		 M138.1,465.1C138.4,465.1,138.1,465.4,138.1,465.1L138.1,465.1z M139.4,448.3C139.7,447.9,139.7,448.3,139.4,448.3L139.4,448.3z
		 M140,449.5c-0.3,0-0.6,0-1,0c0-0.3,0-0.3,0.3-0.6C139.7,449.2,139.7,449.2,140,449.5z M139.7,455.9c0-0.3,0.3-0.3,0.3-0.3
		S140,455.9,139.7,455.9z M139.4,455.6c-0.3-0.3-0.6-0.3-0.6-0.6c0.3,0,0.6,0,1.3,0C140,455.2,139.7,455.6,139.4,455.6z
		 M138.7,458.7c0,0,0-0.3,0-0.6C139,458.1,138.7,458.7,138.7,458.7z M138.7,460C138.7,459.7,139,460,138.7,460L138.7,460z
		 M138.7,456.5C139,456.5,138.7,456.8,138.7,456.5L138.7,456.5z M138.8,455.4C138.9,455.4,138.9,455.4,138.8,455.4L138.8,455.4z
		 M139,455.9c0,0.3,0,0.3,0,0.3C138.7,456.2,138.7,455.9,139,455.9z M138.7,455.2C138.7,455.2,138.7,455.2,138.7,455.2
		C138.7,455.3,138.7,455.2,138.7,455.2z M139,465.1C139.4,465.1,139.4,465.4,139,465.1L139,465.1z M139.4,462.2c0.3,0,0,0.3,0,0.6
		c0,0.6,0,1,0,1.6C139,463.8,139.4,463.2,139.4,462.2z M138.7,454.3c0-0.3,0-0.3,0.4-0.5C139,453.9,138.9,454.1,138.7,454.3
		c0.3,0,0.3-0.3,0.6-0.6c0.3,0,0.6,0.3,0.6,0.6C139.7,454.3,139.4,454.3,138.7,454.3z M138.7,453.7V453
		C139,453,139,453.7,138.7,453.7z M139.7,453.7c0-0.3,0.3-0.3,0.3-0.6c0,0,0,0.6,0,1L139.7,453.7z M139.7,453.3
		C139.4,453,139.7,453,139.7,453.3L139.7,453.3z M139.4,453c-0.3,0-0.3-0.3-0.6-0.6c0,0,0.6,0,1.3-0.3
		C139.7,452.7,139.4,452.7,139.4,453z M139,450.8c0,0.3-0.3,0.3-0.3,0.6C138.7,451.1,138.7,450.8,139,450.8z M139,451.1
		C139.4,451.4,139,451.4,139,451.1L139,451.1z M139,451.7c0,0,0-0.3,0.3-0.6c0.3,0.3,0.3,0.3,0.6,0.6
		C139.7,451.7,139,451.7,139,451.7z M139.4,450.8c0-0.3,0.3-0.3,0.3-0.6C140,450.2,139.7,450.5,139.4,450.8
		C139.7,450.5,139.7,450.8,139.4,450.8z M139.7,450.8c0,0,0.3,0,0.3-0.3c0,0.3,0,0.3,0,0.6L139.7,450.8z M139.7,449.8
		c0,0.3-0.3,0.3-0.3,0.6c-0.3,0-0.6-0.3-0.6-0.6C139,449.8,139.4,449.8,139.7,449.8z M139.4,467.6v-0.3c-0.3-0.3-0.6-0.3-0.3-0.6
		c0.3,0,0.6,0,0.6,0c0,0.3,0,0.3-0.3,0.6c0.3,0,0.3,0.3,0.3,0.3H139.4c0,0,0,0.3,0.3,0.3c0,0.6-0.3,0.3-1,0.3
		C138.7,467.9,139,467.6,139.4,467.6z M139.7,468.6c0.3,0.3,0,0.3-0.6,0.6c0-0.3-0.3-0.3-0.3-0.6C139,468.6,139.4,468.6,139.7,468.6
		z M139.7,472.4c-0.3,0-0.6-0.3-0.6,0v-0.3c0.3-0.3,0.3-0.1,0.6-0.2c0,0,0,0.1,0.1,0.1c0,0,0-0.1,0-0.2h0.3v0.3h-0.3
		C139.8,472.2,139.8,472.3,139.7,472.4z M139.4,474c0,0.3,0,1-0.3,1c0-0.3-0.3-1.3,0-1.9c0.3-0.3,0.3,0,0.3,0
		C139.7,473,139.4,473.7,139.4,474z M139.4,469.5c0.3,0,0.3,0.3,0.3,0v0.3c-0.3,0,0,0,0,0.3c-0.3,0-0.6,0-1,0
		C138.7,469.8,139,469.5,139.4,469.5z M139.7,470.5c0.3,0.3-0.3,0.3-0.3,0.6c-0.3-0.3-0.6-0.3-0.6-0.6
		C139,470.5,139.7,470.8,139.7,470.5z M142.5,467c0.6,0.3,1,1,1,1.3c0,2.5,0,5.1-0.3,7.3c-0.3,0-0.3-0.3-0.6-0.3c0-0.3,0-0.3,0-0.6
		h-0.6c0-1.3-0.3-2.9-0.3-4.4c0-0.3-0.3,0,0-0.3c0-0.6,0-1.3,0-1.9C141.9,467.6,141.9,467,142.5,467z M146,447.9
		c0.3,0.3,0.6,0.3,0.6,0.6c-0.3,0-0.6,0.3-1.3,0.3C145.4,448.6,145.7,448.3,146,447.9z M146.7,447c0.3,0,0,0.3,0,0.3
		c0,0.3,0,0.6,0,1c0-0.3,0-0.3-0.3-0.6C146.3,447.3,146.7,447.3,146.7,447z M146.6,446.8C146.6,446.7,146.6,446.7,146.6,446.8
		C146.6,446.7,146.6,446.7,146.6,446.8z M146,450.5c0.3,0,0.3,0.3,0.6,0.6c-0.3,0.3-1,0.3-1.3,0C145.7,450.8,146,450.8,146,450.5z
		 M146,449.5l-0.3-0.3c0,0.3,0.6,0.3,0.3,0.6c-0.3-0.3-0.6-0.3-0.6-0.6h0.2h0.1c0.3-0.3,0.6,0,1-0.3
		C146.3,449.2,146.3,449.5,146,449.5z M146.3,450.2c0.3,0,0.6,0.3,0.3,0.6C146.7,450.5,146.3,450.5,146.3,450.2z M145.4,449.8
		c0-0.3,0,0,0.3,0.3c0,0.3-0.3,0.3-0.3,0.6C145.1,450.5,145.4,449.8,145.4,449.8z M145.4,452.4l0.3,0.3c0,0.3-0.3,0.3-0.3,0.6
		C145.4,453,145.1,452.7,145.4,452.4z M145.7,453C145.7,453,145.7,453,145.7,453C145.7,453,145.7,453,145.7,453
		C146,453,145.7,453.3,145.7,453z M145.6,453.1C145.6,453.2,145.6,453.2,145.6,453.1L145.6,453.1z M145.5,453.5
		c0.1-0.1,0.3-0.3,0.5-0.5c0.3,0.3,0.6,0.3,0.6,0.6c-0.3,0-1,0-1.3,0C145.5,453.5,145.5,453.5,145.5,453.5z M146.3,452.7
		C146,452.4,146.3,452.4,146.3,452.7L146.3,452.7z M145.4,473v-0.3l0.3-0.3c0.6,0,0.6,0,0.6,0c0,0,0,0,0,0c0,0,0,0,0,0
		c0,0.3,0.3,0.3,0.3,0.6C146.3,473,146,473,145.4,473z M146.7,473.7c0,0.3,0,1,0,1.6c-0.3,0,0,0.3-0.3,0c-0.3,0,0-0.3-0.3,0
		c0,0,0-0.3-0.3-0.3c0-0.3-0.3-1-0.3-1.3C146,473.3,146.3,474,146.7,473.7z M145.4,471.1c0.3-0.3,1,0,1.3,0c0,0.3-0.3,0.3-0.6,0.6
		C145.7,471.7,145.7,471.4,145.4,471.1z M146.5,472.5C146.5,472.5,146.5,472.5,146.5,472.5L146.5,472.5z M146.7,471.7
		c0.3,0,0,0.3,0,0.6C146.3,472.4,146.7,471.7,146.7,471.7z M146.7,470.8c-0.3,0.3-0.6,0-1,0c0-0.3-0.3,0-0.3-0.3
		c0-0.2,0.1-0.3,0.2-0.4c-0.1-0.1,0.1-0.3,0.1-0.6c0,0,0,0.2,0,0.3c0.3,0.3,0.6,0.3,0.6,0.3c0.3,0,0,0.3,0.3,0.3V470.8
		C147,470.8,146.7,471.1,146.7,470.8z M146,455.9c0.3,0.3,0.6,0.3,0.6,1c-0.6,0-0.6,0-1.3,0C145.7,456.2,145.7,456.2,146,455.9z
		 M145.7,455.9C146,455.6,145.7,456.2,145.7,455.9L145.7,455.9z M146.7,456.8c0,0.6-0.3,0.6-0.6,1c-0.3-0.3-0.6-0.3-0.6-1
		C146,456.8,146.3,456.8,146.7,456.8z M145.9,462.6c0-0.1,0.1-0.3,0.1-0.4c0,0,0.3-0.3,0.3,0c0,0.1,0,0.1-0.1,0.1
		c-0.3,0.6-0.3,1.2-0.3,1.5c0-0.3,0-1,0-1.6C146,462.4,146,462.5,145.9,462.6z M145.7,464.8C146,464.4,146,464.8,145.7,464.8
		L145.7,464.8z M146.7,463.8c0-0.3-0.3-0.6-0.3-0.6C146.7,463.2,146.7,463.5,146.7,463.8z M146.5,462.5c0.1,0.1,0.2,0.2,0.2,0.3
		C146.5,462.9,146.5,462.7,146.5,462.5z M146.3,458.1c0-0.3,0.3-0.3,0.3-0.6v0.6C146.7,458.4,146.7,458.4,146.3,458.1z M145.7,458.4
		c0,0-0.1,0-0.2,0c0-0.1,0-0.2-0.1,0v-0.6C145.7,457.8,145.7,458.1,145.7,458.4z M145.7,463.3c0,0.3,0,0.5-0.3,0.8
		C145.6,463.8,145.6,463.6,145.7,463.3z M145.7,467.6c0.2,0,0.3,0.4,0.2,0.5c0.1-0.1,0.1-0.1,0.1-0.2c0.3,0,0.6,0.3,0.6,0.6
		c-0.6,0-0.6,0-1.3,0c0-0.2,0.2-0.2,0.3-0.3C145.4,467.9,145.4,467.6,145.7,467.6z M146.7,468.9c0,0.3-0.3,0.3-0.6,0.6
		c-0.3-0.3-0.6-0.3-0.6-0.6C146,468.9,146.3,468.9,146.7,468.9z M146.7,470.2c-0.3-0.3,0-0.6,0.3-0.6
		C147,469.8,147,469.8,146.7,470.2z M146.3,467.6H146c-0.3,0-0.3-0.6-0.3-0.3c0,0,0,0,0-0.3c0.3,0,1,0,1.3,0
		C146.7,467,146.7,467.3,146.3,467.6z M147,461.9v1v0.8v0.1C146.7,463.2,146.7,462.9,147,461.9z M146.3,455.6c0-0.3,0.3-0.6,0.6-0.6
		v1C146.7,455.9,146.7,455.6,146.3,455.6z M146,455.2c-0.3,0-0.6-0.3-0.6-0.6c0.3-0.3,1,0,1.6-0.3
		C146.7,454.6,146.3,454.9,146,455.2z M145.4,455.2c0-0.3,0.3,0,0.3,0.3c0,0.3-0.3,0.3-0.3,0.6c0.3-0.3,0,0.3,0,0
		C145.1,455.9,145.4,455.6,145.4,455.2z M149.5,465.7c0.3-0.3,1-0.6,1.3-1c3.2-0.3,6.7-0.3,9.8-0.6l0.3,2.9h-3.2
		c0.3,4.4,0.6,8.9,0.6,13.3c-1-1-1.3-2.2-1.9-3.5c-0.3-0.3-1-0.6-1.3-1c-0.3,1-1,2.2-1.3,3.2c-1,0-1.9,0-2.9,0.3
		c0-2.5,0-4.8-0.3-7.3h-1.6c0,2.5,0,5.1-0.3,7.3c0-1.3,0-1.6-0.3-4.1c-0.3-2.5-0.6-5.7-0.3-7.9c0-0.3,0-0.6,0-1
		C148.6,466,148.9,465.7,149.5,465.7z M148.6,463.8C148.9,463.5,148.6,464.1,148.6,463.8L148.6,463.8z M148.9,463.2v-0.6h0.3
		c0,0.3-0.3,1-0.3,1.3C148.6,463.8,148.9,463.5,148.9,463.2z M150.2,463.8c-0.3-0.6-0.3-1-0.6-1.6v1.3c-0.3-0.3,0-1,0-1.6
		c0,0-0.3,0.3-0.3,0c0.3,0,0.3,0,0.3,0c0,0.2,0,0.2,0,0.2v0.1C149.8,462.5,149.8,463.2,150.2,463.8z M151.4,462.5c0.3,0,0,0.3,0,0.3
		C151.1,462.9,151.4,462.5,151.4,462.5z M151.4,464.1C151.7,463.8,151.7,464.4,151.4,464.1L151.4,464.1z M150.8,463.2
		c-0.3,0,0-0.3,0-0.3s0-0.3,0-0.6c0-0.3,0-0.6,0.3-0.6c0.1,0.1,0.2,0.2,0.3,0.4C151.1,462.3,151.1,462.9,150.8,463.2z M151.1,464.1
		C150.8,464.4,150.8,464.1,151.1,464.1L151.1,464.1z M152.3,462.4c0,0,0-0.1,0.1-0.1C152.3,462.3,152.3,462.4,152.3,462.4z
		 M153.3,463.2C153,463.2,153,462.9,153.3,463.2L153.3,463.2z M152.7,463.2c-0.3,0,0-0.6,0.3-1C153,462.5,152.7,462.5,152.7,463.2z
		 M153.7,463.2c0-0.3-0.3-0.6-0.3-1s0.3,0,0,0C153.7,462.5,153.7,462.9,153.7,463.2z M156.2,462.9c-0.3-0.3,0,0.3-0.3,0.3
		c0-0.3,0.3-0.6,0.3-1C156.5,462.2,156.2,462.5,156.2,462.9z M156.8,462.9C156.5,462.2,156.8,462.5,156.8,462.9L156.8,462.9z
		 M157.5,462.2c0,0,0,0.6-0.3,0.6C157.1,462.5,157.5,462.5,157.5,462.2z M157.1,462.3C157.1,462.3,157.1,462.3,157.1,462.3
		C157.1,462.3,157.1,462.3,157.1,462.3z M157.5,461.9c0-0.3,0.3-0.6,0.3,0c0.3,0.3,0.3,0.3,0.3,0.6c0-0.3-0.3-0.3-0.3-0.6
		C157.8,461.9,157.8,461.9,157.5,461.9z M158.7,461.9c0.3,0,0,0.3,0,0.3C158.4,462.2,158.7,461.9,158.7,461.9z M159.1,461.9
		C159.1,461.9,159,461.9,159.1,461.9C159.1,461.9,159.1,461.9,159.1,461.9z M159.2,462C159.2,462.1,159.2,462,159.2,462L159.2,462z
		 M160,462.5C160,462.9,159.7,462.5,160,462.5L160,462.5z M160.5,462.4C160.6,462.5,160.6,462.5,160.5,462.4
		C160.6,462.5,160.6,462.5,160.5,462.4z M315.6,475.6c0.3,0,0.3-0.3,0.3-0.3c0-0.6,0.3-1,1-1.3c0,0.6,0.3,1.6-0.3,1.9
		C316.2,475.9,315.9,475.9,315.6,475.6z M707.3,478.4c0,0.6,0,1.3,0.6,1.6c0.6,0,0.6-0.6,1.3-0.6c0.3,0.6,0.3,1.9,0.3,2.9
		c-0.6,0.3-1.3,0.6-2.2,0.6c-0.3-1.3-0.3-2.9-0.6-4.1C707,478.7,707,478.4,707.3,478.4z M704.4,475.9c0.6,1.6,1.9,4.4,1,6.3
		c-1-0.3,0-1,0-1.9c-1.9,0-2.5-0.3-4.1,0.6c0-1,0-3.2-0.3-3.5C702.2,478.7,703.5,476.8,704.4,475.9z M697.5,479.7c1,0.3,1.6,0,2.5,0
		c0.3,0.3,0.3,1,0.3,1.6c-1.3,0.3-2.2,0.6-3.2,0C697.5,480.6,696.8,480,697.5,479.7z M693,475.9c0.6-0.3,1-0.6,1.6-1
		c0.6,1.6,1.6,3.8,1.3,6c-1,0.3-3.2,1.3-3.8,0.3C693.7,480.6,693,477.8,693,475.9z M672.7,472.4c0,2.9,1,5.7,0.3,8.6
		c0-1.3-1.3-1.3-2.2-0.6c0.3-2.5,0.3-5.4-0.3-7.3C671.4,473,672.1,472.4,672.7,472.4z M639,481.6c-0.3,1.3-3.8,1-4.1,0
		C636.2,480.6,637.8,480.6,639,481.6z M622.9,462.2c0.6-0.6,1.6,0,1.9-1c0.3,0.6,0.6,1,1,1.6c-1.6,1-1.9,2.9-1.6,5.4
		c0.3,0.6,1.6,0.6,2.2,1c0.6,3.2,0.3,7,0.6,10.2c0,1,1,2.5-0.3,2.9c-0.3-1-0.6-1.3-1.6-1.6c-1,0.3-1.3,0.6-1.9,1
		c-1-4.8,0-11.7-1.3-16.8C623.2,464.4,623.5,463.5,622.9,462.2z M616.8,464.8c1,0,0.3,1,1.6,0.6c0.6-0.6-0.6-1.6,0.3-1.9
		c0.3,0.3,0,1.3,0.6,1.3c0.3-0.3,1.3-0.6,1.6-0.3c0.3,4.4,1.3,10.5,0.3,14.6c0-0.6-0.3-1-0.6-1c-1.3,1.3-0.6,4.1-2.9,4.4
		C617.1,477.1,616.5,469.8,616.8,464.8z M600,466c-1,1.9,1,2.9,2.2,2.5c1,3.8,0.6,8.9,1.3,12.7c-0.3,0.6-1,0-1.3,1
		c0.6,0.6,1.3-0.6,1.3,0.6c0,0.3,0,0.6,0,1c-1.3,0.3-3.2,0-4.4-0.3c-0.6-5.1-1.3-10.8-1.3-15.6C598.7,467.3,598.7,466.3,600,466z
		 M594.6,466.3c0.3,1.6,1.3,0.3,1.9,1c0.3,5.4,1,10.2,1.3,15.6c-1,0-1.9,0-2.9-0.3c0-2.2,0-4.4,0-6.7c-0.3,0-1,0-1.3,0
		C594,472.7,591.4,467.9,594.6,466.3z M593.3,464.4c0,0.6,0.3,0.3,0.3,1C592.7,466,592.4,464.4,593.3,464.4z M588.6,469.2
		c-0.3-0.3-0.6-1-1-1.6c0.6,0,1.6,0.3,1.6-0.3c0.3-1-0.6-1-0.3-2.2c1.9-0.3,0.3,1.6,1,2.2c0.6,0.3,1.3,0,1.9,0
		c0,1.6,0.3,2.9,0.3,4.4c-1.9,0-3.5,0-5.4,0c0,0.6,0,1,0,1.6c-0.3-1.3-0.3-2.9-0.6-3.8C586.7,469.2,588.3,470.5,588.6,469.2z
		 M584.4,467.3c0,0.3,0,0.6,0,1C583.5,468.6,583.5,467.3,584.4,467.3z M583.5,469.8c0.3,0.6,1,0,1.6,0.3c-0.3,1.6,0.6,2.2,0.3,3.8
		c-0.6,0-1.3,0-1.9,0C583.5,472.7,583.5,471.4,583.5,469.8z M319.7,470.5c0.6,0,1-0.3,1.6-0.3c1-1,1.3,0.6,1.6,1.3
		c0.6,1,2.9,0.6,4.4,1c2.9,0,6.7-0.3,9.2,0.3h0.3c0.3-0.3,1.9-0.3,2.2,0c0.3,0,0.6,0,1,0c0.3-0.6,1.6,0,2.2-0.3c1.3,0.3,1-1,1.9-1.3
		c1,1,1.9,1.9,2.5,3.5c-1.3,0.6-2.9,0-4.1,0c0,1.3-1,1.6-1,2.9c-1.3,0.3-1.9,0.3-3.2,0.3c-0.3-1-0.3-2.2-0.6-2.9
		c-0.3,0-0.3,0.3-1,0.3c-0.3,0.6-1.6,0-2.2,0.3c-0.3,0-0.6,0-1,0c0,1-0.3,1.3-0.3,2.2c-2.2,0-3.8-0.6-6.3-0.3
		c-0.3-0.6,0-2.5-0.3-3.2c-2.9-0.6-6.3-0.6-9.8-0.6C317.1,472.1,318.4,471.1,319.7,470.5z M312.1,472.1c1.3-1.6,2.5-3.2,4.8-3.8
		c0.6,0,1,0.3,1.6,0.3c-1.3,2.5-2.5,5.1-4.1,7H314c-1,0.6-2.5,0-3.8,0.3c0,0.3-0.3,0.3-0.6,0.3C310.2,474.6,311.4,473.7,312.1,472.1
		z M148.9,448.9c2.2,2.2,4.4,4.1,6.3,6c1.9,1.6,3.5,2.9,5.7,4.1v1c-0.3-0.3-0.3,0-0.3,0c-0.3,0,0-0.3-0.3-0.3c0,0,0,0-0.3,0
		c0,0,0-0.3-0.3-0.3c0,0,0,0-0.3,0c-0.3-0.3-0.3-0.3-0.6-0.3c-0.3-0.3-0.6-0.3-0.6-0.3c-0.3-0.3-1-0.6-1.6-1
		c-0.4-0.3-0.9-0.6-1.3-0.9c1.2,0.9,2.4,1.7,3.8,2.5c0.3,0,1,0.3,1.9,1v0.6v0.3c-0.3,0-0.6,0-0.6,0.3c-0.3,0,0-0.3-0.3-0.3
		c-0.6,0-1.6,0-2.2,0c-0.3,0.3-0.3,0-0.3,0c-0.3,0-0.3,0-0.6,0c-2.5,0-5.4,0-8.3,0c0-0.6,0-1,0-1.6c0.3,0,0.6,0,0.6-0.3l-0.3-0.3
		c0-1.6,0-3.2,0-4.8c1.1,0.8,2.1,1.6,3.2,2.2c0-0.1-0.1-0.3-0.3-0.3c0,0-0.3,0,0-0.3h-0.3c-1-1-1.9-1.3-2.9-2.2c0-0.6,0-1.2,0-1.8
		c-0.1-0.1-0.2-0.3-0.3-0.5c0-1.3,0-2.5-0.3-3.5C148.3,448.3,148.6,448.6,148.9,448.9z M146.7,452.4l0.3,1
		C146.7,453.3,146.3,452.7,146.7,452.4z M146.7,452.1C147,452.1,146.7,452.4,146.7,452.1L146.7,452.1z M146.7,451.7
		c0,0-0.3,0-0.3,0.3c0,0.3-0.3,0-0.3,0.3c-0.3,0-0.6-0.3-0.6-0.6c0.6,0,0.6,0.3,1,0.3c-0.3,0-0.3-0.3-0.3-0.3
		C146.3,451.7,146.3,451.7,146.7,451.7C147,451.7,147,452.1,146.7,451.7z M146.7,446.3C147,446.7,146.7,446.7,146.7,446.3
		c-0.3,0.3-0.3,0.6-0.3,0.3c0,0-0.3,0.3-0.3,0.6c-0.3-0.3-0.6-0.3-0.6-0.6C145.7,446.7,146.3,446.7,146.7,446.3z M145.7,447.6
		c0,0.3-0.3,0.3-0.3,0.6c-0.3-0.3-0.3-1-0.3-1.3C145.4,447,145.4,447.3,145.7,447.6z M144.1,462.9c0,0.3,0.3,0.6,0.3,1.3
		c-0.3,0-0.3-0.3-0.3-0.6c0-0.3-0.3-0.3-0.3-0.6v-0.6c-0.1,0.1-0.1,0.1-0.1,0.2c0,0,0.1-0.1,0.1-0.2c-0.6,0.3-0.3,0.6-0.6,0.6
		c0,0.3,0,0.3-0.3,0.3c0.2-0.3,0.3-0.6,0.3-1h0.6C144.1,462.5,143.8,462.9,144.1,462.9z M142.5,464.1c0-0.3,0.2-0.6,0.3-1
		C142.9,463.5,142.9,463.8,142.5,464.1z M142.2,447c1.3,0.6,1.6,1.6,1.6,2.9c0,0.3-0.3-0.3-0.3-0.3c-0.3,0-0.3-0.3-0.6-0.6
		c-0.6-0.3-0.6-0.6-1.3-1C141.6,447.6,142.2,447.3,142.2,447z M141.3,449.8c0-0.3,0.3-1,0.3-1.3c0,0,0,0,0-0.3
		c0.6,0.6,1.6,1.3,2.2,1.9c0,0.3,0,1,0,1.3s0,0.6,0,1c0,1,0,1.6,0,2.5c0,1.3,0,2.5,0,3.8c-0.6,0.3-1.3,0-1.9,0c-0.3-0.3-0.3,0-0.6,0
		C141.3,455.9,141,452.7,141.3,449.8z M140.6,462.5v-0.3h0.6c0,0.6,0.6,1.3,0.6,1.9c-0.3-0.3-0.6-1.3-1-1.6c0.3,0.3,0.3,1.3,0,1.6
		c0-0.3,0-1.3,0-1.6c-0.5,0.3-0.6,0.5-0.6,0.8C140.3,463.1,140.4,462.8,140.6,462.5z M139.7,464.4c0-0.3,0.3-0.6,0.6-1
		C140,463.8,140,464.1,139.7,464.4z M140,448.9c-0.3,0-0.3-0.3-0.3-0.3c0-0.3,0.3-0.3,0.3-0.6C140,448.3,140,448.6,140,448.9z
		 M139.7,447.9C140,447.6,140,447.9,139.7,447.9L139.7,447.9z M139.7,447.3c0,0.3-0.3,0.6-0.6,1c0-0.3-0.3-0.3-0.3-0.6
		C139,447.6,139.4,447.6,139.7,447.3z M138.7,448.3c0,0,0,0,0.3,0.3c0,0.2-0.1,0.2-0.2,0.3c0,0,0.1,0,0.2,0
		c-0.3,0.3-0.3,0.3-0.3,0.6c0-0.1,0-0.2,0-0.3c0,0,0,0,0,0C138.7,448.9,138.7,448.6,138.7,448.3z M137.5,462.5c0.2,0,0.2,0,0.3,0
		c0.1,0,0.2,0,0.3,0c0,0.6,0.6,1.3,0.6,1.9c-0.3-0.3-0.3-0.6-0.6-1c-0.3-0.3-0.3-0.6-0.3-1c-0.3,0-0.3,0.3-0.3,0.6
		c0,0,0,0.3-0.3,0.3c0,0.6-0.3,0.6-0.6,1C136.8,463.8,137.1,463.2,137.5,462.5z M136.5,464.8c-0.3,0,0-0.3,0-0.3
		C136.5,464.6,136.5,464.7,136.5,464.8z M136.5,464.4c-0.3-0.6-0.3-1.3-0.3-1.9C136.5,463.1,136.5,463.8,136.5,464.4z M134.6,463.2
		c0,0,0.1-0.1,0.1-0.3c0.3,0.7,0.8,1.1,0.8,1.9c-0.3,0-0.3-0.6-0.6-1C134.9,463.8,134.6,463.5,134.6,463.2z M134.9,465.7
		c-0.3,0-0.3,0-0.3-0.3C134.9,465.4,134.9,465.7,134.9,465.7z M132.7,462.9c0,0.3,0,0.6,0,1c0,0.3,0,0,0.3,0.3c-0.3,0-0.3,0.6,0,0.6
		c0-0.1,0-0.1,0-0.1v-0.2c0.3-0.6,0.3-1.3,1-1.6v-0.3l0.6,0c-0.3,0.6-0.3,1.6-0.3,2.2c-0.3,0,0-0.3,0-1v0v-1c-0.3,0.3-0.3,0.6-0.6,1
		c-0.3,0.3-0.3,0.6-0.6,1c0,0-0.2,0.2-0.1,0.4C132.4,464.3,132.7,463.4,132.7,462.9z M134.3,465.1
		C134.6,464.8,134.6,465.4,134.3,465.1L134.3,465.1z M129.5,465.1c0.3-0.6,0.6-1.3,1-1.6l0.6-0.6c0.3,0.6,0.6,1.3,1.3,2.2
		c-0.3,0-0.3-0.3-0.6-0.6c0-0.3-0.3-0.6-0.3-1c-0.3-0.3-0.3-0.3-0.3-0.6c-0.3,0.3,0,0.3-0.3,0.6c-0.3,0-0.3,0.3-0.3,0.6
		c-0.3,0.3-0.3,0.6-0.3,1c0,0.3-0.3,0.6-0.6,0.6C129.5,465.4,129.8,465.1,129.5,465.1z M130.8,466c0-0.1,0-0.2,0-0.3
		C131.1,465.7,131.1,466,130.8,466z M128.9,462.9c0,0.6,0,1.3,0,1.9c0,0,0,0.6-0.3,0.6L128.9,462.9z M127.9,466.3
		C128.3,466.3,128.3,466.7,127.9,466.3L127.9,466.3z M125.4,464.8c0-0.3,0.3-0.6,0.3-1c0.3-0.6,0.6-1,1-1c0.3,0.6,1,1.6,1.3,2.5
		c-0.6,0-0.3-0.6-0.6-1c0-0.3-0.3-0.6-0.6-1.6c-0.3,0.3,0,0.6-0.3,1c0-0.2,0-0.4,0-0.6c-0.3,0.3-0.3,1-0.6,1.3
		c0,0.3-0.3,0.3-0.3,0.6c-0.3,0,0,0.6-0.3,0.6C125.1,465.1,125.4,465.1,125.4,464.8z M126.8,466.5c0,0.1,0,0.1,0.1,0.1h-0.3
		C126.7,466.4,126.7,466.4,126.8,466.5z M124.1,466C124.4,465.7,124.4,466,124.1,466L124.1,466z M124.1,464.4c0,0.5,0,1,0,1.3
		C123.8,465.4,124.1,465.1,124.1,464.4z M122.2,463.2c0.3,1,1,1.6,1.3,2.5c-0.3,0-0.3-0.3-0.6-0.3c-0.3,0-0.3-0.3-0.3-0.6
		C122.5,464.1,122.2,463.8,122.2,463.2c-0.3,1-0.3,1.9-0.3,2.5c-0.3,0-0.3-0.6-0.3-1v-1.3L122.2,463.2z M123.5,467
		C123.2,466.7,123.5,466.7,123.5,467L123.5,467z M122.2,467h-0.3v-0.3c0,0,0,0,0.3,0C121.9,466.7,121.9,467,122.2,467z M120,465.4
		C120.3,465.4,120,465.7,120,465.4L120,465.4z M120.3,465.4c0-0.3,0.3-0.3,0.3-0.6c0.2-0.2,0.4-0.6,0.6-0.9c0,0.1,0,0.2,0,0.2
		c0,0.3-0.3,0.3-0.3,0.6c-0.3,0.3-0.6,0.6-0.6,1.3H120C120,465.7,120.3,465.4,120.3,465.4z M119.7,463.8
		C120,463.8,120,464.1,119.7,463.8C119.7,464.1,119.4,463.8,119.7,463.8z M119.4,463.5c0.3,0,0,0.3,0,0.6
		C119,463.8,119,463.5,119.4,463.5z M119.4,466.3c-0.3,0,0-0.3,0-0.3C119.4,466.1,119.4,466.3,119.4,466.3z M114.6,466
		c0,0,0-0.3,0.3-0.3c0-0.3,0.3-0.3,0.3-0.6c0.3-0.3,0.3-1,0.6-1.3c0,0,0-0.3,0.3-0.6c0,0.3,0.6,0.3,0.6,0.3c0.3,0.3,0.6,1,1,1.3
		c0.3,0.6,0.6,0.6,0.6,1.3c-0.3,0.3-0.3-0.3-0.6-0.3s-0.3-0.3-0.3-0.6c-0.3-0.6-0.6-0.6-0.6-1.3c-0.3,1,0,1.9-0.3,2.5
		c-0.3,0,0-0.3,0-0.6c0-0.3,0-1,0-1.6v-0.2c-0.1,0-0.2-0.1-0.3-0.1c0,0.3-0.3,1-0.6,1.3c-0.3,0.3-0.3,0.3-0.3,0.6
		c-0.3,0-0.3,0.6-0.6,0.6C114.3,466.3,114.6,466.3,114.6,466z M116.2,467h0.3v0.3c0,0.3-0.3,0,0,0L116.2,467z M114.9,467.3
		C115.2,467.3,114.9,467.6,114.9,467.3L114.9,467.3z M113.7,463.5c0,0.3,0,0.3,0,0.3c-0.3,0,0-0.3-0.3-0.6
		C113.7,463.5,113.7,463.5,113.7,463.5z M113.3,464.1h0.3v1.3c0,0.3,0,1-0.3,1V464.1z M109.2,465.4c0-0.3,0.2-0.5,0.6-1c0,0,0,0,0,0
		c0-0.6,0.6-0.6,1.3-0.6c0.6,1,1.3,1.6,1.9,2.9c-0.6,0-0.6-0.6-1-1s-0.6-0.6-1-1.3c-0.1,0-0.2,0-0.3,0c0,0.3,0,0.7,0,1
		c-0.3,0.3,0,1.3-0.3,1.3v-2.2c-0.1,0-0.3,0-0.5,0c-0.2,0.4-0.2,0.7-0.5,1c0,0.3-0.3,0.3-0.3,0.6c0,0.3-0.3,0.6-0.6,0.6
		C108.6,466,109.2,465.7,109.2,465.4z M112.1,467.9C111.7,467.6,112.1,467.6,112.1,467.9L112.1,467.9z M109.8,467.9v-0.3
		C110.2,467.6,110.2,468.3,109.8,467.9z M107.3,463.8c0,0.3,0,0.3,0,0.6c0.3,0,0,0.3,0,0.6c0,0.6,0,1.6,0,1.9
		c-0.3,0-0.3-0.3-0.3-0.3c0-0.6,0-1.6,0.3-2.2C107,464.4,107.3,464.1,107.3,463.8z M106,467c-0.3,0.3-0.3-0.3-0.6-0.3
		c-0.3-0.3-0.3-0.3-0.3-0.6c-0.3-0.6-0.6-1-0.6-1.6c0.3,0.3,0.6,1,1,1.3C105.4,466,106,466.7,106,467z M105.1,468.3
		C104.8,468.6,104.8,468.3,105.1,468.3L105.1,468.3z M104.4,464.1c-0.3,0.3-0.6-0.3-0.6,0c-0.2,0-0.3,0-0.3-0.2c0.2,0,0.5,0,0.6-0.2
		C104.1,464.1,104.1,464.1,104.4,464.1z M103.8,464.4c0,0.6,0,1.9,0,2.5c-0.3,0-0.3-0.3-0.3-0.6C103.5,466,103.8,465.4,103.8,464.4z
		 M103.3,464c-0.1,0.1-0.3,0.2-0.4,0.2C103,464,103.1,464,103.3,464z M101.3,466c0.3-0.3,0.3-0.6,0.6-1c0.3,0,0.3-0.3,0.3-0.6
		c0,0,0,0,0-0.3l1,0.3c0,0.3-0.3,0.3-0.3,0.3c-0.3,0-0.3,0.3-0.6,0.6c-0.3,0.3-0.3,0.6-0.6,0.6c0,0.3-0.3,0.6-0.6,1c0-0.3,0,0-0.3,0
		C100.6,466.7,101,466.3,101.3,466z M103,468.6h-0.2c-0.3-0.3-0.3-0.6,0-0.3C103,468.3,103,468.5,103,468.6z M99.7,464.1
		c0.3,0.3,0,0,0.3,0v0.3h-0.3V464.1z M100,465.4c0,0.2,0,0.9,0,1.6c0,0.2,0,0.4,0,0.6c-0.3,0,0-0.3,0-0.6c-0.3-0.6-0.3-1.6-0.3-2.2
		C100.3,464.8,99.7,465.4,100,465.4z M97.1,464.8c0.6,0.6,1.3,1.6,1.9,2.2v0.3c-1,0-1-0.6-1.3-1s-0.6-0.6-0.6-1V464.8z M97.1,470.8
		c13.3-1.3,27-2.5,40.3-4.1c0,5.7-0.3,10.2-0.6,13.3c-5.1-0.6-9.8-6.3-11.1-9.8c-5.1-0.6-7.3,14.3-18.4,9.2c-1-1-1.6-2.5-1.9-4.1
		h-5.7v4.1h-2.5V470.8z"/>
</g>
</svg>
